<svg version="1.2" xmlns="http://www.w3.org/2000/svg" viewBox="0 0 436 56" width="436" height="56"><style>.a{fill:#00594c}</style><path class="a" d="m79.3 44.3v-32.6h22.2v6.9h-13.8v6.6h11.9v6.9h-11.9v12.2z"/><path class="a" d="m107.7 44.3v-32.6h8.4v32.6z"/><path class="a" d="m124.6 44.3v-32.6h8.4l13.2 19.6v-19.6h8.5v32.6h-8.4l-13.3-19.4v19.4z"/><path fill-rule="evenodd" class="a" d="m160.3 44.3l13-32.6h7.9l13 32.6h-9.1l-2.5-7.8h-10.7l-2.5 7.8zm13.6-14h6.6l-3.3-10.1z"/><path class="a" d="m199.5 44.3v-32.6h8.4l13.3 19.6v-19.6h8.4v32.6h-8.3l-13.4-19.4v19.4z"/><path class="a" d="m237.2 36.4q0 0-0.6-1.7-0.7-1.8-0.7-6.7 0-4.9 1.3-8.4 1.4-3.5 3.8-5.2 2.3-1.7 4.8-2.4 2.4-0.7 5.4-0.7 4.7 0 10.5 2.3v7.3q-4.9-2.3-10-2.3-3.4 0-5.4 2-2 2.1-2 7.4 0 5.3 2 7.4 2 2 5.4 2 5.1 0 10-2.3v7.3q-5.8 2.3-10.5 2.3-3 0-5.4-0.7-2.5-0.7-4.8-2.4-2.4-1.7-3.8-5.2z"/><path class="a" d="m268.5 44.3v-32.6h22.8v6.9h-14.4v6h12.5v6.9h-12.5v5.9h14.4v6.9z"/><path class="a" d="m315.9 44.3v-32.6h20.1v3.3h-16.5v11.3h14.4v3.4h-14.4v14.6z"/><path class="a" d="m344.6 44.3v-32.6h3.5v29.2h16.7v3.4z"/><path class="a" d="m372.5 44.3v-32.6h20.6v3.3h-17.1v11.3h15v3.4h-15v11.3h17.1v3.3z"/><path class="a" d="m400.5 44.3l11.6-16.5-11.3-16.1h4.2l9.3 13.1 9.2-13.1h4.3l-11.4 16.2 11.6 16.4h-4.2l-9.5-13.4-9.5 13.4z"/><path fill-rule="evenodd" class="a" d="m18.8 30.6h-9.4c-0.7 0-1.2-0.5-1.3-1.2q-0.1-1-0.1-2c0-11 9-20.1 20.1-20.5h0.1c0.3 0 0.6 0.1 0.9 0.3 0.2 0.3 0.4 0.6 0.4 1v8.6h0.6c4.7-0.2 8.6-3.9 8.9-8.7 0-0.7 0.6-1.2 1.3-1.2h8.6c0.4 0 0.7 0.1 1 0.4 0.2 0.2 0.3 0.5 0.3 0.8v0.1c-0.2 7.2-4.1 13.7-10.3 17.2h9c0.8 0 1.3 0.6 1.3 1.3v0.1c0 11.6-8.8 21.2-20.3 22.3h-0.1q-0.5 0-0.9-0.3c-0.3-0.3-0.4-0.6-0.4-1v-8.6c-4.8 0.4-8.9 4.2-9.2 8.7-0.1 0.7-0.7 1.2-1.4 1.2h-8.6c-0.3 0-0.7-0.1-0.9-0.4-0.3-0.2-0.4-0.5-0.4-0.8v-0.1c0.2-7.3 4.6-13.7 10.8-17.2zm9.4-13.8v-8.6c-10.4 0.4-18.9 8.9-18.9 19.2q0 0.9 0.1 1.9h8.7q-0.2-0.9-0.2-1.9c0-5.6 4.6-10.3 10.3-10.6zm12.1-8.6c-0.3 5.2-4.3 9.4-9.5 9.9v8.6c9.9-0.5 17.8-8.6 18.1-18.5zm-10.9 19.8v-9.9h-0.6c-5.2 0-9.6 4.2-9.6 9.3q0 1.2 0.4 2.4l0.1 0.4c2.9-1.5 6.1-2.2 9.4-2.2zm0.7 0h-0.3v10.4c5.7-1 9.8-5.9 9.8-11.7 0-0.2-0.1-1.2-0.1-1.2-2.9 1.6-6.1 2.5-9.4 2.5zm10.8-1.3c0 6.5-4.7 12-11.1 13.1v8c10.8-1 19.1-10.1 19.1-21.1zm-23 21.1c0.4-5.2 5.2-9.6 10.6-9.9v-8.6c-10.3 0.4-18.8 8.5-19.2 18.5z"/></svg>