<?xml version="1.0" encoding="utf-8"?>
<!-- Generator: Adobe Illustrator 27.5.0, SVG Export Plug-In . SVG Version: 6.00 Build 0)  -->
<svg version="1.1" xmlns="http://www.w3.org/2000/svg" xmlns:xlink="http://www.w3.org/1999/xlink" x="0px" y="0px"
	 viewBox="0 0 500 500" style="enable-background:new 0 0 500 500;" xml:space="preserve">
<g id="Background_Complete">
	<g>
		<g>
			<g>
				<g>
					<g>
						<g>
							<g>
								<g>
									<path style="fill:none;" d="M361.975,264.436c-2.308,0.71-4.672,1.096-7.031,1.171l-2.875,5.951l-10.653-2.464l0.03-6.609
										c-2.086-1.103-4.041-2.487-5.804-4.14l-6.238,2.174l-5.789-9.276l4.692-4.65c-0.711-2.308-1.096-4.673-1.17-7.032
										l-5.951-2.875l2.464-10.652l6.609,0.029c1.103-2.086,2.488-4.04,4.141-5.803l-2.175-6.238l9.276-5.791l4.65,4.693
										c2.308-0.711,4.672-1.096,7.031-1.171l2.875-5.951l10.653,2.464l-0.03,6.61c2.085,1.103,4.04,2.488,5.803,4.14l6.238-2.173
										l5.791,9.275l-4.692,4.65c0.711,2.308,1.096,4.674,1.171,7.032l5.951,2.875l-2.464,10.652l-6.609-0.03
										c-1.103,2.086-2.488,4.041-4.141,5.803l2.174,6.238l-9.275,5.79L361.975,264.436L361.975,264.436z M359.853,248.892
										c5.495-3.43,7.169-10.666,3.738-16.161c-3.431-5.495-10.667-7.168-16.161-3.738c-5.495,3.431-7.169,10.666-3.738,16.161
										C347.123,250.65,354.357,252.323,359.853,248.892z"/>
								</g>
							</g>
						</g>
					</g>
				</g>
				<g>
					<g>
						<g>
							<g>
								<g>
									<g>
										<path style="fill:#E0E0E0;" d="M359.853,248.892c0,0-0.804,0.69-2.583,1.33c-1.744,0.623-4.635,1.078-7.863-0.1
											c-1.586-0.591-3.239-1.57-4.598-3.054c-1.341-1.479-2.479-3.391-2.932-5.617c-0.256-1.102-0.332-2.273-0.237-3.453
											c0.078-1.182,0.346-2.378,0.811-3.519c0.882-2.306,2.592-4.367,4.798-5.772c2.231-1.367,4.835-1.998,7.294-1.779
											c1.23,0.083,2.423,0.367,3.519,0.816c1.102,0.433,2.121,1.015,2.998,1.729c1.802,1.384,3.02,3.246,3.76,5.101
											c0.736,1.872,0.889,3.787,0.724,5.472c-0.359,3.417-2.038,5.814-3.363,7.108
											C360.826,248.473,359.853,248.892,359.853,248.892c-0.049-0.067,0.873-0.575,2.141-1.918
											c1.241-1.321,2.794-3.684,3.078-6.97c0.129-1.621-0.045-3.448-0.77-5.224c-0.728-1.759-1.904-3.519-3.623-4.816
											c-0.836-0.671-1.806-1.216-2.852-1.619c-1.04-0.42-2.17-0.684-3.333-0.757c-2.327-0.199-4.779,0.402-6.887,1.692
											c-2.084,1.329-3.701,3.267-4.542,5.444c-0.445,1.077-0.704,2.208-0.783,3.326c-0.096,1.116-0.033,2.227,0.203,3.273
											c0.411,2.113,1.476,3.943,2.736,5.369c1.277,1.431,2.842,2.39,4.355,2.986c3.077,1.189,5.883,0.831,7.614,0.296
											C358.952,249.425,359.814,248.819,359.853,248.892z"/>
									</g>
								</g>
							</g>
						</g>
					</g>
				</g>
				<g>
					<g>
						<g>
							<g>
								<g>
									<g>
										<path style="fill:#E0E0E0;" d="M361.975,264.436c0.003-0.009,0.105,0.083,0.307,0.275c0.221,0.214,0.516,0.5,0.899,0.87
											c0.817,0.805,1.994,1.965,3.521,3.471l-0.133-0.016c2.366-1.496,5.478-3.464,9.241-5.843l-0.071,0.201
											c-0.666-1.887-1.407-3.984-2.199-6.228l-0.04-0.112l0.082-0.088c1.514-1.627,2.926-3.556,4.089-5.771l0.062-0.118l0.135,0
											c2.06,0.003,4.29,0.007,6.609,0.011l-0.234,0.186c0.768-3.356,1.583-6.918,2.439-10.657l0.143,0.298
											c-1.844-0.886-3.875-1.863-5.957-2.863l-0.152-0.073l-0.005-0.169c-0.071-2.193-0.437-4.598-1.17-6.955l-0.052-0.167
											l0.125-0.124c1.452-1.443,3.054-3.035,4.685-4.656l-0.043,0.372c-1.823-2.911-3.788-6.05-5.802-9.268l0.369,0.13
											c-1.942,0.679-4.074,1.424-6.235,2.179l-0.183,0.064l-0.141-0.132c-1.611-1.51-3.574-2.947-5.736-4.085l-0.174-0.092
											l0.001-0.198c0.008-2.07,0.017-4.328,0.026-6.609l0.255,0.323c-3.373-0.779-6.988-1.614-10.654-2.46l0.376-0.18
											c-0.908,1.88-1.887,3.909-2.874,5.952l-0.088,0.184l-0.204,0.006c-2.236,0.069-4.628,0.441-6.937,1.155l-0.003,0.001
											l-0.001,0c-0.151-0.038,0.337,0.085-0.34-0.085l-0.005-0.005l-0.009-0.009l-0.018-0.019l-0.037-0.037l-0.073-0.074
											l-0.147-0.148l-0.293-0.295l-0.585-0.59l-1.166-1.177c-0.776-0.783-1.549-1.563-2.318-2.34l0.417,0.048
											c-3.135,1.956-6.228,3.887-9.277,5.789l0.138-0.392c0.731,2.1,1.455,4.18,2.172,6.239l0.066,0.189l-0.137,0.146
											c-1.631,1.737-3.005,3.674-4.094,5.729l-0.092,0.175l-0.197-0.001c-2.235-0.012-4.436-0.023-6.608-0.034l0.314-0.248
											c-0.845,3.635-1.67,7.186-2.474,10.649l-0.167-0.349c2.018,0.978,4,1.939,5.947,2.883l0.165,0.08l0.006,0.182
											c0.073,2.407,0.472,4.751,1.147,6.955l0.052,0.169l-0.125,0.124c-1.611,1.592-3.174,3.135-4.699,4.642l0.04-0.347
											c2.03,3.267,3.946,6.351,5.77,9.287l-0.303-0.107c2.196-0.759,4.256-1.472,6.243-2.159l0.139-0.048l0.106,0.1
											c1.838,1.729,3.778,3.072,5.742,4.12l0.119,0.063l-0.001,0.133c-0.019,2.401-0.036,4.565-0.052,6.608l-0.154-0.195
											c4.122,0.973,7.635,1.802,10.642,2.511l-0.17,0.081c1.164-2.369,2.118-4.313,2.913-5.932l0.029-0.059l0.065-0.002
											c2.401-0.066,4.163-0.404,5.316-0.654c0.554-0.133,0.979-0.236,1.29-0.31C361.84,264.457,361.978,264.427,361.975,264.436
											c-0.002,0.009-0.144,0.062-0.413,0.153c-0.28,0.088-0.703,0.22-1.279,0.365c-1.15,0.286-2.915,0.662-5.334,0.762
											l0.094-0.061c-0.774,1.629-1.703,3.585-2.836,5.969l-0.052,0.108l-0.118-0.027c-3.013-0.683-6.533-1.481-10.664-2.417
											l-0.154-0.035l0-0.16c0.002-2.044,0.005-4.207,0.007-6.608l0.118,0.196c-2.003-1.053-3.985-2.408-5.865-4.159l0.245,0.052
											c-1.984,0.697-4.041,1.419-6.233,2.189l-0.194,0.068l-0.11-0.175c-1.836-2.928-3.765-6.005-5.808-9.264l-0.119-0.189
											l0.159-0.158c1.521-1.512,3.077-3.061,4.683-4.658l-0.073,0.292c-0.697-2.251-1.112-4.646-1.193-7.108l0.17,0.262
											c-1.95-0.939-3.934-1.895-5.954-2.868l-0.223-0.107l0.056-0.242c0.798-3.464,1.615-7.017,2.453-10.654l0.057-0.25
											l0.257,0.001c2.173,0.008,4.374,0.016,6.609,0.024l-0.289,0.173c1.112-2.107,2.518-4.094,4.188-5.876l-0.071,0.334
											c-0.719-2.058-1.444-4.137-2.178-6.237l-0.088-0.251l0.226-0.141c3.048-1.904,6.14-3.836,9.274-5.794l0.228-0.142
											l0.189,0.191c0.769,0.776,1.543,1.556,2.319,2.339l1.166,1.177l0.585,0.59l0.293,0.295l0.147,0.147l0.073,0.074
											l0.037,0.037l0.018,0.018l0.009,0.009l0.004,0.005c-0.675-0.169-0.186-0.047-0.337-0.085l0.001-0.001l0.003-0.001
											c2.368-0.732,4.821-1.113,7.113-1.183l-0.292,0.189c0.988-2.043,1.968-4.071,2.877-5.951l0.116-0.241l0.26,0.06
											c3.665,0.849,7.279,1.687,10.652,2.469l0.257,0.06l-0.001,0.263c-0.012,2.281-0.024,4.539-0.035,6.609l-0.173-0.289
											c2.214,1.169,4.222,2.645,5.869,4.194l-0.324-0.069c2.162-0.751,4.296-1.492,6.24-2.167l0.237-0.082l0.132,0.212
											c2.007,3.222,3.964,6.366,5.779,9.282l0.127,0.204l-0.17,0.169c-1.636,1.616-3.242,3.203-4.699,4.642l0.073-0.291
											c0.742,2.411,1.107,4.869,1.171,7.109l-0.157-0.242c2.078,1.009,4.105,1.993,5.945,2.887l0.191,0.093l-0.048,0.206
											c-0.873,3.736-1.705,7.293-2.488,10.646l-0.044,0.187l-0.191-0.001c-2.319-0.017-4.549-0.033-6.609-0.048l0.196-0.118
											c-1.196,2.244-2.644,4.195-4.192,5.835l0.042-0.2c0.774,2.25,1.498,4.354,2.149,6.246l0.045,0.13l-0.116,0.071
											c-3.791,2.336-6.925,4.268-9.308,5.736l-0.074,0.046l-0.059-0.061c-1.479-1.527-2.619-2.703-3.41-3.52
											c-0.372-0.391-0.659-0.693-0.874-0.918C362.071,264.555,361.973,264.445,361.975,264.436z"/>
									</g>
								</g>
							</g>
						</g>
					</g>
				</g>
			</g>
			<g>
				<g>
					<g>
						<g>
							<g>
								<path style="fill-rule:evenodd;clip-rule:evenodd;fill:#E0E0E0;" d="M383.746,185.324c-3.263,1.003-6.606,1.549-9.941,1.656
									l-4.065,8.414l-15.062-3.485l0.042-9.344c-2.949-1.559-5.714-3.517-8.206-5.853l-8.821,3.074l-8.185-13.115l6.634-6.575
									c-1.006-3.263-1.549-6.608-1.655-9.942l-8.414-4.065l3.483-15.06l9.344,0.041c1.56-2.949,3.518-5.712,5.855-8.204
									l-3.075-8.82l13.115-8.189l6.575,6.635c3.263-1.006,6.607-1.549,9.942-1.655l4.066-8.415l15.062,3.485l-0.043,9.345
									c2.949,1.56,5.712,3.518,8.205,5.853l8.82-3.073l8.187,13.114l-6.634,6.574c1.006,3.263,1.55,6.608,1.655,9.943l8.415,4.065
									l-3.483,15.061l-9.345-0.042c-1.56,2.949-3.517,5.713-5.854,8.205l3.074,8.819l-13.114,8.187L383.746,185.324
									L383.746,185.324z M380.745,163.347c7.769-4.85,10.137-15.081,5.286-22.851c-4.85-7.77-15.082-10.135-22.851-5.285
									c-7.77,4.851-10.136,15.081-5.286,22.851C362.746,165.831,372.975,168.198,380.745,163.347z"/>
							</g>
						</g>
					</g>
				</g>
			</g>
		</g>
		<g>
			<g>
				<g>
					<g>
						<g>
							<path style="fill-rule:evenodd;clip-rule:evenodd;fill:#EBEBEB;" d="M419.232,235.138c-1.736,0.534-3.515,0.824-5.289,0.881
								l-2.162,4.476l-8.013-1.854l0.022-4.971c-1.569-0.83-3.04-1.871-4.366-3.114l-4.693,1.635l-4.355-6.977l3.529-3.498
								c-0.535-1.736-0.824-3.515-0.88-5.289l-4.476-2.163l1.853-8.012l4.971,0.022c0.83-1.569,1.872-3.039,3.115-4.365
								l-1.636-4.692l6.977-4.356l3.498,3.53c1.736-0.535,3.515-0.824,5.289-0.881l2.163-4.477l8.013,1.854l-0.023,4.972
								c1.569,0.83,3.039,1.872,4.365,3.114l4.692-1.635l4.356,6.977l-3.53,3.497c0.535,1.736,0.825,3.516,0.881,5.29l4.477,2.163
								l-1.853,8.012l-4.972-0.022c-0.83,1.569-1.871,3.039-3.114,4.365l1.635,4.692l-6.976,4.355L419.232,235.138L419.232,235.138z
								 M417.635,223.446c4.133-2.58,5.393-8.023,2.812-12.157c-2.58-4.133-8.023-5.392-12.156-2.812
								c-4.134,2.581-5.392,8.023-2.812,12.157C408.059,224.768,413.501,226.027,417.635,223.446z"/>
						</g>
					</g>
				</g>
			</g>
		</g>
	</g>
	<g>
		<g>
			<g>
				<path style="fill:#E0E0E0;" d="M112.364,146.651c0.101,0.102-4.588,4.906-10.472,10.728
					c-5.886,5.824-10.738,10.461-10.839,10.358c-0.101-0.102,4.587-4.905,10.473-10.729
					C107.41,151.187,112.263,146.549,112.364,146.651z"/>
			</g>
		</g>
		<g>
			<g>
				<path style="fill:#E0E0E0;" d="M112.415,167.686c-0.101,0.103-4.976-4.512-10.888-10.305
					c-5.914-5.796-10.625-10.575-10.525-10.678c0.101-0.103,4.975,4.511,10.889,10.306
					C107.803,162.802,112.515,167.583,112.415,167.686z"/>
			</g>
		</g>
	</g>
	<g>
		<g>
			<g>
				<g>
					<path style="fill:#E0E0E0;" d="M133.571,279.736c-0.015,0.143-5.998-0.371-13.362-1.148
						c-7.366-0.777-13.324-1.523-13.309-1.667c0.015-0.143,5.997,0.371,13.363,1.149
						C127.627,278.847,133.586,279.593,133.571,279.736z"/>
				</g>
			</g>
		</g>
		<g>
			<g>
				<g>
					<path style="fill:#E0E0E0;" d="M132.51,289.781c-0.015,0.143-5.998-0.371-13.362-1.148c-7.366-0.777-13.324-1.523-13.309-1.667
						c0.015-0.143,5.997,0.371,13.363,1.149C126.567,288.892,132.525,289.638,132.51,289.781z"/>
				</g>
			</g>
		</g>
	</g>
	<g>
		<g>
			<g>
				<path style="fill:#EBEBEB;" d="M60.399,257.692c0,0-7.919-0.57-7.19,17.194c0.729,17.764,2.541,27.226,2.541,27.226
					s-0.233,3.939-3.283,3.166c-3.05-0.773-8.789-4.606-11.623-1.741c-2.939,2.972-1.894,7.53,2.005,12.899
					c3.899,5.369,12.009,17.445,12.739,18.539c0.716,1.075,1.003,3.09-1.159,2.896c-2.162-0.194-16.758-5.141-18.691,1.926
					c-1.933,7.066,11.387,20.238,12.815,21.706c1.429,1.468,1.505,2.395,0.926,3.283c-0.58,0.888-5.329-1.237-9.538-2.474
					c-4.209-1.237-9.306-1.933-10.08,2.237c-0.774,4.17,5.093,16.375,27.063,29.202l10.569,5.277l10.004-6.381
					c20.576-14.96,25.193-27.69,24.006-31.762c-1.187-4.072-6.189-2.869-10.253-1.218c-4.064,1.652-8.577,4.241-9.242,3.416
					c-0.665-0.826-0.681-1.755,0.593-3.359c1.275-1.603,13.21-16.042,10.58-22.879c-2.63-6.838-16.658-0.456-18.79-0.047
					c-2.132,0.409-2.048-1.625-1.443-2.766c0.616-1.162,7.478-13.989,10.82-19.721c3.342-5.732,3.926-10.372,0.704-13.034
					c-3.107-2.568-8.433,1.82-11.391,2.895s-3.584-2.821-3.584-2.821s0.857-9.596-0.195-27.343
					c-1.052-17.748-9.064-16.315-9.064-16.315"/>
			</g>
			<g>
				<g>
					<path style="fill:#E0E0E0;" d="M61.025,273.602c0,0,0.021,0.125,0.042,0.371c0.02,0.263,0.048,0.625,0.084,1.09
						c0.066,0.978,0.162,2.388,0.285,4.195c0.243,3.643,0.554,8.918,0.914,15.436c0.725,13.037,1.571,31.055,2.441,50.957
						c0.869,19.909,1.671,37.928,2.323,50.968c0.331,6.506,0.599,11.777,0.785,15.441c0.09,1.809,0.16,3.22,0.209,4.199
						c0.019,0.466,0.034,0.829,0.044,1.092c0.008,0.246,0.001,0.373,0.001,0.373s-0.021-0.125-0.043-0.37
						c-0.02-0.263-0.048-0.625-0.084-1.09c-0.066-0.978-0.162-2.388-0.285-4.194c-0.243-3.643-0.554-8.917-0.914-15.436
						c-0.724-13.037-1.571-31.057-2.441-50.965c-0.869-19.902-1.671-37.92-2.322-50.959c-0.331-6.506-0.599-11.777-0.786-15.442
						c-0.09-1.809-0.16-3.22-0.209-4.199c-0.019-0.466-0.034-0.829-0.044-1.093C61.018,273.729,61.025,273.602,61.025,273.602z"/>
				</g>
			</g>
			<g>
				<g>
					<path style="fill:#E0E0E0;" d="M48.656,309.222c0.02-0.02,0.253,0.176,0.658,0.547c0.407,0.369,0.978,0.922,1.677,1.611
						c1.395,1.382,3.271,3.341,5.3,5.541c1.986,2.172,3.781,4.136,5.169,5.656c0.617,0.669,1.142,1.238,1.573,1.706
						c0.373,0.402,0.57,0.634,0.551,0.654c-0.019,0.02-0.254-0.174-0.662-0.542c-0.406-0.371-0.977-0.923-1.669-1.62
						c-1.382-1.396-3.231-3.379-5.26-5.579c-2-2.157-3.808-4.107-5.208-5.616c-0.621-0.666-1.149-1.233-1.583-1.699
						C48.832,309.476,48.636,309.242,48.656,309.222z"/>
				</g>
			</g>
			<g>
				<g>
					<path style="fill:#E0E0E0;" d="M64.632,324.589c-0.08-0.078,3.786-4.126,8.632-9.04c4.848-4.915,8.842-8.835,8.921-8.757
						c0.079,0.078-3.785,4.125-8.633,9.041C68.705,320.746,64.711,324.667,64.632,324.589z"/>
				</g>
			</g>
			<g>
				<g>
					<path style="fill:#E0E0E0;" d="M64.588,355.216c-0.013-0.025,0.25-0.191,0.737-0.469c0.564-0.317,1.255-0.704,2.067-1.16
						c1.744-0.98,4.149-2.342,6.748-3.94c2.604-1.592,4.911-3.114,6.573-4.227c0.775-0.517,1.434-0.956,1.972-1.315
						c0.468-0.308,0.735-0.467,0.751-0.445c0.016,0.023-0.219,0.225-0.659,0.572c-0.441,0.347-1.088,0.836-1.901,1.423
						c-1.624,1.175-3.913,2.74-6.525,4.337c-2.607,1.603-5.042,2.929-6.824,3.847c-0.893,0.455-1.62,0.815-2.13,1.048
						C64.888,355.123,64.601,355.241,64.588,355.216z"/>
				</g>
			</g>
			<g>
				<g>
					<path style="fill:#E0E0E0;" d="M47.079,344.498c0.014-0.024,0.274,0.099,0.731,0.343c0.457,0.244,1.112,0.608,1.916,1.065
						c1.609,0.914,3.818,2.201,6.244,3.644c2.427,1.443,4.613,2.77,6.184,3.747c0.786,0.489,1.418,0.89,1.85,1.175
						c0.432,0.285,0.665,0.454,0.65,0.478c-0.014,0.024-0.274-0.099-0.731-0.343c-0.457-0.244-1.112-0.607-1.916-1.065
						c-1.609-0.914-3.818-2.202-6.245-3.645c-2.426-1.443-4.612-2.769-6.183-3.746c-0.786-0.489-1.418-0.89-1.851-1.175
						C47.297,344.691,47.064,344.522,47.079,344.498z"/>
				</g>
			</g>
			<g>
				<g>
					<path style="fill:#E0E0E0;" d="M43.605,371.532c0.014-0.024,0.344,0.137,0.93,0.45c0.651,0.359,1.476,0.814,2.46,1.357
						c2.068,1.161,4.911,2.789,8.039,4.609c3.129,1.82,5.949,3.488,7.98,4.712c0.958,0.587,1.761,1.079,2.395,1.468
						c0.561,0.354,0.864,0.562,0.85,0.586c-0.014,0.024-0.344-0.137-0.93-0.45c-0.651-0.359-1.476-0.814-2.46-1.357
						c-2.068-1.161-4.911-2.789-8.04-4.609c-3.127-1.82-5.948-3.487-7.979-4.711c-0.958-0.587-1.761-1.079-2.395-1.468
						C43.895,371.763,43.591,371.556,43.605,371.532z"/>
				</g>
			</g>
			<g>
				<g>
					<path style="fill:#E0E0E0;" d="M65.806,384.245c-0.014-0.024,0.314-0.242,0.919-0.615c0.673-0.409,1.535-0.935,2.569-1.564
						c2.168-1.321,5.157-3.156,8.4-5.272c3.248-2.112,6.137-4.099,8.221-5.551c0.994-0.691,1.824-1.267,2.47-1.716
						c0.586-0.402,0.917-0.614,0.934-0.592c0.017,0.022-0.284,0.277-0.841,0.719c-0.557,0.442-1.374,1.067-2.397,1.822
						c-2.043,1.513-4.913,3.541-8.167,5.657c-3.249,2.12-6.268,3.919-8.476,5.179c-1.106,0.627-2.006,1.125-2.636,1.454
						C66.174,384.098,65.82,384.27,65.806,384.245z"/>
				</g>
			</g>
		</g>
		<g>
			<g>
				<g>
					<polygon style="fill:#E0E0E0;" points="81.691,402.485 52.451,402.485 61.995,474.727 72.148,474.727 					"/>
				</g>
			</g>
			<g>
				<g>
					<g>
						<path style="fill:#F5F5F5;" d="M53.969,411.366c-0.011,0.007,0.032,0.102,0.156,0.257c0.125,0.153,0.354,0.353,0.705,0.505
							c0.693,0.302,1.911,0.326,3.088-0.379c1.181-0.651,2.209-1.931,3.792-2.496c1.569-0.599,3.513-0.492,5.377,0.107
							c1.885,0.583,3.523,1.537,5.007,2.426c1.487,0.885,2.849,1.674,4.072,2.185c1.213,0.53,2.271,0.774,3.003,0.868
							c0.367,0.049,0.653,0.063,0.848,0.057c0.194,0,0.296-0.008,0.297-0.025c0.017-0.096-1.655-0.081-4.011-1.209
							c-1.181-0.54-2.507-1.347-3.982-2.253c-1.468-0.906-3.145-1.903-5.092-2.505c-1.924-0.619-3.992-0.731-5.675-0.062
							c-0.841,0.32-1.547,0.823-2.136,1.321c-0.597,0.494-1.132,0.959-1.674,1.297c-1.069,0.691-2.193,0.72-2.848,0.494
							C54.222,411.72,54.006,411.325,53.969,411.366z"/>
					</g>
				</g>
			</g>
			<g>
				<g>
					<g>
						<path style="fill:#F5F5F5;" d="M55.036,424.671c0.039,0.024,0.232-0.298,0.689-0.775c0.465-0.464,1.228-1.071,2.335-1.481
							c1.097-0.421,2.507-0.671,4.066-0.612c1.566,0.054,3.273,0.398,5.088,0.693c1.812,0.305,3.607,0.441,5.21,0.216
							c1.603-0.206,2.995-0.667,4.099-1.17c1.107-0.505,1.927-1.058,2.465-1.466c0.54-0.409,0.797-0.684,0.781-0.703
							c-0.055-0.079-1.184,0.932-3.381,1.859c-1.096,0.453-2.46,0.868-4.017,1.043c-1.557,0.194-3.281,0.051-5.082-0.251
							c-1.8-0.292-3.534-0.63-5.15-0.661c-1.618-0.036-3.077,0.259-4.206,0.739c-1.139,0.469-1.909,1.15-2.346,1.669
							c-0.211,0.27-0.364,0.486-0.442,0.648C55.059,424.577,55.021,424.663,55.036,424.671z"/>
					</g>
				</g>
			</g>
			<g>
				<g>
					<g>
						<path style="fill:#F5F5F5;" d="M78.379,431.794c0.011-0.022-0.26-0.205-0.806-0.419c-0.544-0.215-1.375-0.436-2.423-0.52
							c-1.047-0.083-2.302-0.016-3.664,0.21c-1.364,0.221-2.825,0.598-4.361,0.923c-1.534,0.323-3.014,0.541-4.354,0.492
							c-1.34-0.047-2.532-0.34-3.457-0.748c-1.882-0.826-2.552-2.028-2.622-1.952c-0.018,0.011,0.114,0.312,0.495,0.763
							c0.377,0.45,1.035,1.025,1.985,1.494c0.949,0.467,2.185,0.808,3.58,0.881c1.398,0.076,2.92-0.137,4.472-0.464
							c1.552-0.33,3.003-0.717,4.337-0.957c1.333-0.245,2.551-0.344,3.57-0.306C77.183,431.261,78.349,431.881,78.379,431.794z"/>
					</g>
				</g>
			</g>
			<g>
				<g>
					<g>
						<path style="fill:#F5F5F5;" d="M57.619,441.813c0.014,0.077,1.044-0.651,2.839-0.286c0.88,0.159,1.864,0.605,2.97,1.107
							c1.102,0.514,2.43,0.954,3.855,1.063c2.873,0.276,5.428-0.652,6.995-1.621c0.803-0.476,1.362-0.988,1.741-1.339
							c0.356-0.379,0.538-0.597,0.515-0.619c-0.064-0.07-0.832,0.794-2.425,1.666c-1.566,0.867-4.032,1.703-6.783,1.438
							c-2.768-0.158-4.893-1.809-6.812-2.027c-0.936-0.14-1.718-0.006-2.205,0.191C57.814,441.578,57.605,441.796,57.619,441.813z"
							/>
					</g>
				</g>
			</g>
			<g>
				<g>
					<g>
						<path style="fill:#F5F5F5;" d="M59.248,455.679c0,0.055,0.981,0.048,2.438-0.484c1.47-0.491,3.289-1.618,5.414-2.462
							c1.066-0.406,2.135-0.656,3.107-0.651c0.973,0.005,1.841,0.242,2.498,0.57c1.343,0.669,1.732,1.619,1.806,1.559
							c0.021-0.009-0.038-0.248-0.277-0.616c-0.236-0.367-0.684-0.846-1.37-1.24c-0.684-0.391-1.604-0.682-2.65-0.712
							c-1.049-0.03-2.179,0.224-3.283,0.645c-2.202,0.878-3.963,2.037-5.367,2.594C60.176,455.479,59.237,455.603,59.248,455.679z"
							/>
					</g>
				</g>
			</g>
			<g>
				<g>
					<g>
						<path style="fill:#F5F5F5;" d="M60.681,462.13c-0.016,0.06,0.685,0.312,1.851,0.601c1.166,0.29,2.801,0.599,4.628,0.78
							c1.827,0.178,3.492,0.193,4.692,0.136c1.201-0.057,1.937-0.167,1.933-0.229c-0.007-0.144-2.963-0.018-6.578-0.382
							C63.592,462.69,60.717,461.99,60.681,462.13z"/>
					</g>
				</g>
			</g>
		</g>
	</g>
</g>
<g id="Background_Simple" style="display:none;">
	<path style="display:inline;fill:#EBEBEB;" d="M227.435,142.079c-18.279-31.582-59.098-46.963-94.606-38.555
		c-35.508,8.408-64.153,38.246-74.623,73.202s-3.806,73.889,14.481,105.466s47.436,56.06,80.113,72.302
		c86.025,42.76,205.352,41.421,274.106-25.673c14.668-14.314,36.176-31.332,40.245-58.929c4.487-30.429-7.856-50.669-26.731-68.624
		c-24.572-23.374-61.616-15.848-88.833-8.499c-27.217,7.349-52.86,21.324-76.039,5.277"/>
</g>
<g id="Floor">
	<g>
		<g>
			<path style="fill:#263238;" d="M471.269,473.564c0,0.144-99.515,0.26-222.245,0.26c-122.772,0-222.266-0.117-222.266-0.26
				c0-0.144,99.494-0.26,222.266-0.26C371.753,473.304,471.269,473.42,471.269,473.564z"/>
		</g>
	</g>
</g>
<g id="Character">
	<g>
		<g>
			<path style="fill:#FFBE9D;" d="M152.355,160.964c0,0,2.723-16.31,3.371-17.551c0.648-1.241,8.168-8.866,9.055-9.024
				c0.887-0.158,12.737-3.878,12.082-2.029c-0.656,1.849-8.969,4.343-8.969,4.343l-0.789,0.993c0,0,7.103-2.312,8.869-2.253
				c1.626,0.054,1.915,1.742,0.645,2.229c-1.27,0.487-7.533,2.312-7.765,2.703c-0.232,0.392,6.971-1.666,7.876-1.628
				c1.217,0.052,2.101,1.594,0.857,2.117c-0.733,0.308-7.697,1.907-7.697,1.907s5.813-0.68,6.468-0.503
				c1.072,0.29,0.98,1.589-0.197,1.902c-0.808,0.214-5.063,0.397-6.145,0.686c0,0-0.803,0.688-0.774,2.841
				c0.029,2.154-2.77,7.894-2.77,7.894L152.355,160.964z"/>
			<g>
				<path style="fill:#EB996E;" d="M176.854,132.397c0.046,0.046-0.551,0.705-1.744,1.515c-0.596,0.402-1.343,0.833-2.219,1.217
					c-0.883,0.331-1.86,0.667-2.886,1.024c-0.76,0.258-1.493,0.506-2.187,0.741l0.118-0.072c-2.259,2.254-3.953,3.832-4.045,3.752
					c-0.092-0.08,1.448-1.798,3.662-4.103l0.045-0.046l0.074-0.026c0.685-0.24,1.408-0.493,2.159-0.757
					c1.004-0.34,1.961-0.664,2.872-0.973c0.854-0.344,1.594-0.727,2.2-1.077C176.114,132.886,176.798,132.334,176.854,132.397z"/>
			</g>
		</g>
		<g>
			<path style="fill:#00594c;" d="M334.737,340.122l-161.421-16.629c-4.937-0.509-8.527-4.923-8.019-9.861L193.254,42.25
				c0.723-7.013,6.993-12.112,14.006-11.39l153.904,15.855c7.013,0.722,12.112,6.993,11.39,14.006l-27.957,271.383
				C344.09,337.04,339.675,340.631,334.737,340.122z"/>
			<path style="opacity:0.4;" d="M334.737,340.122l-161.421-16.629c-4.937-0.509-8.527-4.923-8.019-9.861L193.254,42.25
				c0.723-7.013,6.993-12.112,14.006-11.39l153.904,15.855c7.013,0.722,12.112,6.993,11.39,14.006l-27.957,271.383
				C344.09,337.04,339.675,340.631,334.737,340.122z"/>
			<g>
				<g>
					<path style="fill:#00594c;" d="M318.45,338.444l-161.421-16.629c-4.937-0.509-8.527-4.923-8.019-9.861l27.957-271.383
						c0.722-7.013,6.993-12.113,14.006-11.39l153.904,15.855c7.013,0.722,12.112,6.993,11.39,14.006L328.31,330.425
						C327.802,335.363,323.387,338.953,318.45,338.444z"/>
				</g>
				<g>
					<path style="fill:#00594c;" d="M233.61,291.295l-55.661-5.734c-1.33-0.137-2.296-1.326-2.159-2.655l2.256-21.903
						c0.137-1.329,1.326-2.296,2.655-2.159l55.661,5.734c1.33,0.137,2.296,1.326,2.159,2.655l-2.256,21.903
						C236.128,290.465,234.939,291.432,233.61,291.295z"/>
				</g>
				<g style="opacity:0.4;">
					<path d="M233.61,291.295l-55.661-5.734c-1.33-0.137-2.296-1.326-2.159-2.655l2.256-21.903c0.137-1.329,1.326-2.296,2.655-2.159
						l55.661,5.734c1.33,0.137,2.296,1.326,2.159,2.655l-2.256,21.903C236.128,290.465,234.939,291.432,233.61,291.295z"/>
				</g>
				<g>
					<g>
						
							<rect x="231.533" y="20.43" transform="matrix(0.1025 -0.9947 0.9947 0.1025 137.9662 347.8721)" style="fill:#FAFAFA;" width="60.45" height="154.104"/>
					</g>
					<g>
						<g>
							<path style="fill:#263238;" d="M335.307,135.443c0,0,0.026-0.37,0.092-1.073c0.069-0.712,0.169-1.751,0.301-3.113
								c0.272-2.739,0.671-6.761,1.186-11.948c1.045-10.368,2.558-25.382,4.436-44.016l0.161,0.198
								c-38.58-3.954-93.02-9.534-153.29-15.712l-0.01-0.001l0.286-0.232c-2.17,21.03-4.267,41.349-6.205,60.13l-0.223-0.274
								c44.357,4.617,82.642,8.602,109.851,11.434c13.613,1.432,24.453,2.573,31.902,3.356c3.719,0.397,6.589,0.703,8.542,0.912
								c0.966,0.106,1.703,0.188,2.212,0.243C335.046,135.406,335.307,135.443,335.307,135.443s-0.243-0.014-0.732-0.06
								c-0.502-0.048-1.23-0.118-2.185-0.21c-1.943-0.193-4.798-0.476-8.497-0.843c-7.439-0.75-18.265-1.842-31.86-3.212
								c-27.257-2.779-65.608-6.688-110.044-11.218l-0.248-0.025l0.026-0.249c1.932-18.782,4.021-39.101,6.184-60.132l0.027-0.259
								l0.259,0.027l0.01,0.001c60.264,6.24,114.698,11.876,153.274,15.87l0.18,0.019l-0.019,0.18
								c-1.965,18.672-3.549,33.716-4.642,44.105c-0.552,5.166-0.979,9.171-1.271,11.899c-0.147,1.345-0.259,2.372-0.336,3.076
								C335.355,135.1,335.307,135.443,335.307,135.443z"/>
						</g>
					</g>
				</g>
				<g>
					<g>
						<path style="fill:#00594c;" d="M209.413,173.038l-21.914-2.258c-1.144-0.118-1.975-1.14-1.857-2.284l2.258-21.914
							c0.118-1.144,1.14-1.975,2.284-1.858l21.914,2.258c1.144,0.118,1.975,1.14,1.858,2.284l-2.258,21.914
							C211.58,172.324,210.557,173.156,209.413,173.038z"/>
					</g>
					<g style="opacity:0.4;">
						<path d="M209.413,173.038l-21.914-2.258c-1.144-0.118-1.975-1.14-1.857-2.284l2.258-21.914
							c0.118-1.144,1.14-1.975,2.284-1.858l21.914,2.258c1.144,0.118,1.975,1.14,1.858,2.284l-2.258,21.914
							C211.58,172.324,210.557,173.156,209.413,173.038z"/>
					</g>
					<g>
						<path style="fill:#263238;" d="M205.39,172.624l-21.914-2.257c-1.144-0.118-1.975-1.141-1.857-2.284l2.258-21.914
							c0.118-1.144,1.14-1.975,2.284-1.857l21.914,2.258c1.144,0.118,1.975,1.14,1.857,2.284l-2.258,21.914
							C207.556,171.91,206.534,172.742,205.39,172.624z"/>
					</g>
					<g>
						<path style="fill:#FFFFFF;" d="M198.184,153.107l-1.119,10.859l-2.513-0.259l0.911-8.842l-2.172-0.224l0.208-2.017
							L198.184,153.107z"/>
					</g>
				</g>
				<g>
					<g>
						<path style="fill:#00594c;" d="M245.747,176.781l-21.914-2.258c-1.144-0.118-1.975-1.141-1.857-2.284l2.258-21.914
							c0.118-1.144,1.14-1.975,2.284-1.857l21.914,2.257c1.144,0.118,1.975,1.14,1.857,2.284l-2.258,21.914
							C247.913,176.067,246.89,176.899,245.747,176.781z"/>
					</g>
					<g style="opacity:0.4;">
						<path d="M245.747,176.781l-21.914-2.258c-1.144-0.118-1.975-1.141-1.857-2.284l2.258-21.914
							c0.118-1.144,1.14-1.975,2.284-1.857l21.914,2.257c1.144,0.118,1.975,1.14,1.857,2.284l-2.258,21.914
							C247.913,176.067,246.89,176.899,245.747,176.781z"/>
					</g>
					<g>
						<path style="fill:#263238;" d="M241.723,176.367l-21.914-2.257c-1.144-0.118-1.975-1.14-1.857-2.284l2.257-21.914
							c0.118-1.144,1.141-1.975,2.284-1.857l21.914,2.258c1.144,0.118,1.975,1.14,1.857,2.284l-2.257,21.914
							C243.889,175.653,242.867,176.485,241.723,176.367z"/>
					</g>
					<g>
						<path style="fill:#FFFFFF;" d="M237.535,166.066l-0.211,2.048l-8.206-0.845l0.168-1.629l4.597-3.525
							c1.055-0.816,1.283-1.357,1.337-1.884c0.088-0.854-0.45-1.411-1.597-1.529c-0.931-0.096-1.76,0.18-2.362,0.855l-1.708-1.368
							c0.963-1.139,2.565-1.774,4.52-1.572c2.419,0.249,3.905,1.657,3.702,3.627c-0.108,1.055-0.503,1.986-2.168,3.241l-2.741,2.101
							L237.535,166.066z"/>
					</g>
				</g>
				<g>
					<g>
						<path style="fill:#00594c;" d="M283.413,180.661l-21.914-2.258c-1.144-0.118-1.975-1.14-1.857-2.284l2.258-21.914
							c0.118-1.144,1.14-1.975,2.284-1.857l21.914,2.257c1.144,0.118,1.975,1.141,1.857,2.284l-2.258,21.914
							C285.579,179.948,284.556,180.779,283.413,180.661z"/>
					</g>
					<g style="opacity:0.4;">
						<path d="M283.413,180.661l-21.914-2.258c-1.144-0.118-1.975-1.14-1.857-2.284l2.258-21.914
							c0.118-1.144,1.14-1.975,2.284-1.857l21.914,2.257c1.144,0.118,1.975,1.141,1.857,2.284l-2.258,21.914
							C285.579,179.948,284.556,180.779,283.413,180.661z"/>
					</g>
					<g>
						<path style="fill:#263238;" d="M279.389,180.247l-21.914-2.258c-1.144-0.118-1.975-1.14-1.857-2.284l2.258-21.915
							c0.118-1.144,1.141-1.975,2.284-1.857l21.914,2.258c1.144,0.118,1.975,1.14,1.857,2.284l-2.257,21.914
							C281.556,179.533,280.533,180.365,279.389,180.247z"/>
					</g>
					<g>
						<path style="fill:#FFFFFF;" d="M275.239,168.664c-0.189,1.831-1.772,3.36-4.858,3.042c-1.521-0.157-3.045-0.737-4.023-1.59
							l1.176-1.823c0.758,0.705,1.869,1.18,3.002,1.297c1.256,0.129,2.085-0.302,2.176-1.187c0.085-0.822-0.468-1.396-1.895-1.543
							l-1.148-0.118l0.171-1.66l2.495-2.298l-4.623-0.476l0.208-2.017l7.602,0.783l-0.168,1.629l-2.739,2.54
							C274.537,165.755,275.404,167.067,275.239,168.664z"/>
					</g>
				</g>
				<g>
					<g>
						<path style="fill:#00594c;" d="M321.079,184.542l-21.914-2.258c-1.144-0.118-1.975-1.14-1.857-2.284l2.257-21.914
							c0.118-1.144,1.14-1.975,2.284-1.857l21.914,2.258c1.144,0.118,1.975,1.14,1.857,2.284l-2.258,21.914
							C323.245,183.828,322.222,184.66,321.079,184.542z"/>
					</g>
					<g style="opacity:0.4;">
						<path d="M321.079,184.542l-21.914-2.258c-1.144-0.118-1.975-1.14-1.857-2.284l2.257-21.914
							c0.118-1.144,1.14-1.975,2.284-1.857l21.914,2.258c1.144,0.118,1.975,1.14,1.857,2.284l-2.258,21.914
							C323.245,183.828,322.222,184.66,321.079,184.542z"/>
					</g>
					<g>
						<path style="fill:#263238;" d="M317.147,184.127l-21.914-2.257c-1.144-0.118-1.975-1.141-1.857-2.284l2.258-21.914
							c0.118-1.144,1.14-1.975,2.284-1.857l21.914,2.258c1.144,0.118,1.975,1.14,1.857,2.284l-2.258,21.914
							C319.313,183.413,318.29,184.245,317.147,184.127z"/>
					</g>
					<g>
						<g>
							
								<rect x="306.917" y="163.692" transform="matrix(0.1025 -0.9947 0.9947 0.1025 107.2639 457.9641)" style="fill:#FFFFFF;" width="1" height="11.696"/>
						</g>
						<g>
							<path style="fill:#FFFFFF;" d="M309.826,164.662c-0.107,1.042-1.039,1.799-2.08,1.692c-1.042-0.107-1.799-1.039-1.692-2.08
								c0.107-1.042,1.039-1.799,2.08-1.692C309.176,162.689,309.934,163.62,309.826,164.662z"/>
						</g>
						<g>
							<path style="fill:#FFFFFF;" d="M308.781,174.808c-0.107,1.042-1.039,1.799-2.08,1.692c-1.042-0.107-1.799-1.039-1.692-2.08
								c0.107-1.042,1.039-1.799,2.081-1.692C308.131,172.835,308.888,173.766,308.781,174.808z"/>
						</g>
					</g>
				</g>
				<g>
					<g>
						<path style="fill:#00594c;" d="M205.481,211.207l-21.914-2.257c-1.144-0.118-1.975-1.141-1.857-2.284l2.258-21.914
							c0.118-1.144,1.14-1.975,2.284-1.857l21.914,2.258c1.144,0.118,1.975,1.14,1.857,2.284l-2.257,21.914
							C207.647,210.494,206.625,211.325,205.481,211.207z"/>
					</g>
					<g style="opacity:0.4;">
						<path d="M205.481,211.207l-21.914-2.257c-1.144-0.118-1.975-1.141-1.857-2.284l2.258-21.914
							c0.118-1.144,1.14-1.975,2.284-1.857l21.914,2.258c1.144,0.118,1.975,1.14,1.857,2.284l-2.257,21.914
							C207.647,210.494,206.625,211.325,205.481,211.207z"/>
					</g>
					<g>
						<path style="fill:#263238;" d="M201.458,210.793l-21.914-2.257c-1.144-0.118-1.975-1.14-1.857-2.284l2.257-21.914
							c0.118-1.144,1.14-1.975,2.284-1.857l21.914,2.257c1.144,0.118,1.975,1.141,1.857,2.284l-2.257,21.914
							C203.624,210.079,202.601,210.911,201.458,210.793z"/>
					</g>
					<g>
						<path style="fill:#FFFFFF;" d="M196.539,200.182l-1.77-0.182l-0.235,2.28l-2.45-0.252l0.235-2.28l-5.849-0.603l0.174-1.691
							l5.83-6.36l2.636,0.272l-5.419,6.041l2.916,0.3l0.209-2.032l2.373,0.245l-0.209,2.032l1.77,0.182L196.539,200.182z"/>
					</g>
				</g>
				<g>
					<g>
						<path style="fill:#00594c;" d="M241.814,214.95l-21.914-2.258c-1.144-0.118-1.975-1.14-1.857-2.284l2.258-21.914
							c0.118-1.144,1.14-1.975,2.284-1.857l21.914,2.257c1.144,0.118,1.975,1.141,1.857,2.284l-2.258,21.914
							C243.981,214.237,242.958,215.068,241.814,214.95z"/>
					</g>
					<g style="opacity:0.4;">
						<path d="M241.814,214.95l-21.914-2.258c-1.144-0.118-1.975-1.14-1.857-2.284l2.258-21.914c0.118-1.144,1.14-1.975,2.284-1.857
							l21.914,2.257c1.144,0.118,1.975,1.141,1.857,2.284l-2.258,21.914C243.981,214.237,242.958,215.068,241.814,214.95z"/>
					</g>
					<g>
						<path style="fill:#263238;" d="M237.791,214.536l-21.914-2.258c-1.144-0.118-1.975-1.14-1.858-2.284l2.258-21.914
							c0.118-1.144,1.14-1.975,2.284-1.857l21.914,2.258c1.144,0.118,1.975,1.14,1.857,2.284l-2.258,21.914
							C239.957,213.822,238.935,214.654,237.791,214.536z"/>
					</g>
					<g>
						<path style="fill:#FFFFFF;" d="M232.544,202.746c-0.198,1.923-1.782,3.453-4.885,3.134c-1.505-0.155-3.043-0.737-4.021-1.59
							l1.191-1.821c0.757,0.706,1.853,1.179,2.985,1.295c1.257,0.13,2.087-0.318,2.178-1.203c0.088-0.853-0.413-1.469-2.383-1.672
							l-2.776-0.286l1.188-6.054l6.624,0.682l-0.208,2.017l-4.53-0.466l-0.383,2.044l0.885,0.091
							C231.619,199.249,232.741,200.823,232.544,202.746z"/>
					</g>
				</g>
				<g>
					<g>
						<path style="fill:#00594c;" d="M279.481,218.831l-21.914-2.258c-1.144-0.118-1.975-1.14-1.857-2.284l2.258-21.914
							c0.118-1.144,1.14-1.975,2.284-1.857l21.914,2.258c1.144,0.118,1.975,1.14,1.857,2.284l-2.258,21.915
							C281.647,218.117,280.624,218.948,279.481,218.831z"/>
					</g>
					<g style="opacity:0.4;">
						<path d="M279.481,218.831l-21.914-2.258c-1.144-0.118-1.975-1.14-1.857-2.284l2.258-21.914
							c0.118-1.144,1.14-1.975,2.284-1.857l21.914,2.258c1.144,0.118,1.975,1.14,1.857,2.284l-2.258,21.915
							C281.647,218.117,280.624,218.948,279.481,218.831z"/>
					</g>
					<g>
						<path style="fill:#263238;" d="M275.457,218.416l-21.914-2.258c-1.144-0.118-1.975-1.141-1.857-2.284l2.258-21.914
							c0.118-1.144,1.14-1.975,2.284-1.857l21.914,2.258c1.144,0.118,1.975,1.14,1.857,2.284l-2.258,21.914
							C277.624,217.702,276.601,218.534,275.457,218.416z"/>
					</g>
					<g>
						<path style="fill:#FFFFFF;" d="M270.972,206.689c-0.228,2.218-2.188,3.427-4.483,3.191c-2.993-0.309-4.661-2.377-4.3-5.883
							c0.387-3.754,2.866-5.615,6.141-5.278c1.147,0.118,2.236,0.497,2.947,1.057l-1.121,1.75c-0.563-0.466-1.247-0.678-1.977-0.753
							c-1.814-0.187-3.089,0.764-3.379,2.834c0.7-0.571,1.649-0.802,2.781-0.686C269.676,203.138,271.183,204.641,270.972,206.689z
							 M268.524,206.562c0.103-0.993-0.562-1.704-1.679-1.819c-1.101-0.113-1.947,0.489-2.045,1.436
							c-0.096,0.931,0.533,1.685,1.742,1.81C267.613,208.099,268.422,207.555,268.524,206.562z"/>
					</g>
				</g>
				<g>
					<g>
						<path style="fill:#00594c;" d="M317.147,222.711l-21.914-2.258c-1.144-0.118-1.975-1.14-1.857-2.284l2.258-21.914
							c0.118-1.144,1.14-1.975,2.284-1.857l21.914,2.258c1.144,0.118,1.975,1.14,1.857,2.284l-2.258,21.914
							C319.313,221.997,318.29,222.829,317.147,222.711z"/>
					</g>
					<g style="opacity:0.4;">
						<path d="M317.147,222.711l-21.914-2.258c-1.144-0.118-1.975-1.14-1.857-2.284l2.258-21.914
							c0.118-1.144,1.14-1.975,2.284-1.857l21.914,2.258c1.144,0.118,1.975,1.14,1.857,2.284l-2.258,21.914
							C319.313,221.997,318.29,222.829,317.147,222.711z"/>
					</g>
					<g>
						<path style="fill:#263238;" d="M313.123,222.296l-21.914-2.257c-1.144-0.118-1.975-1.14-1.858-2.284l2.258-21.914
							c0.118-1.144,1.14-1.975,2.284-1.857l21.914,2.258c1.144,0.118,1.975,1.141,1.857,2.284l-2.258,21.914
							C315.29,221.583,314.267,222.414,313.123,222.296z"/>
					</g>
					<g>
						<g>
							
								<rect x="297.66" y="207.64" transform="matrix(0.7852 -0.6192 0.6192 0.7852 -63.696 232.6414)" style="fill:#FFFFFF;" width="11.697" height="1"/>
						</g>
						<g>
							
								<rect x="303.009" y="202.291" transform="matrix(0.7758 -0.631 0.631 0.7758 -63.2838 238.1871)" style="fill:#FFFFFF;" width="1" height="11.697"/>
						</g>
					</g>
				</g>
				<g>
					<g>
						<path style="fill:#00594c;" d="M201.581,249.066l-21.914-2.258c-1.144-0.118-1.975-1.14-1.857-2.284l2.258-21.914
							c0.118-1.144,1.14-1.975,2.284-1.858l21.914,2.258c1.144,0.118,1.975,1.14,1.857,2.284l-2.257,21.914
							C203.747,248.352,202.725,249.184,201.581,249.066z"/>
					</g>
					<g style="opacity:0.4;">
						<path d="M201.581,249.066l-21.914-2.258c-1.144-0.118-1.975-1.14-1.857-2.284l2.258-21.914
							c0.118-1.144,1.14-1.975,2.284-1.858l21.914,2.258c1.144,0.118,1.975,1.14,1.857,2.284l-2.257,21.914
							C203.747,248.352,202.725,249.184,201.581,249.066z"/>
					</g>
					<g>
						<path style="fill:#263238;" d="M197.558,248.652l-21.914-2.257c-1.144-0.118-1.975-1.14-1.857-2.284l2.257-21.914
							c0.118-1.144,1.141-1.975,2.284-1.857l21.914,2.258c1.144,0.118,1.975,1.141,1.857,2.284l-2.258,21.914
							C199.724,247.938,198.701,248.77,197.558,248.652z"/>
					</g>
					<g>
						<path style="fill:#FFFFFF;" d="M192.08,229.313l-0.168,1.629l-4.985,8.814l-2.73-0.281l4.801-8.41l-3.598-0.371l-0.182,1.768
							l-2.234-0.23l0.393-3.816L192.08,229.313z"/>
					</g>
				</g>
				<g>
					<g>
						<path style="fill:#00594c;" d="M237.914,252.809L216,250.551c-1.144-0.118-1.975-1.14-1.857-2.284l2.258-21.914
							c0.118-1.144,1.14-1.975,2.284-1.857l21.914,2.257c1.144,0.118,1.975,1.141,1.857,2.284l-2.257,21.914
							C240.081,252.095,239.058,252.927,237.914,252.809z"/>
					</g>
					<g style="opacity:0.4;">
						<path d="M237.914,252.809L216,250.551c-1.144-0.118-1.975-1.14-1.857-2.284l2.258-21.914c0.118-1.144,1.14-1.975,2.284-1.857
							l21.914,2.257c1.144,0.118,1.975,1.141,1.857,2.284l-2.257,21.914C240.081,252.095,239.058,252.927,237.914,252.809z"/>
					</g>
					<g>
						<path style="fill:#263238;" d="M233.891,252.395l-21.914-2.258c-1.144-0.118-1.975-1.14-1.858-2.284l2.258-21.914
							c0.118-1.144,1.14-1.975,2.284-1.857l21.914,2.257c1.144,0.118,1.975,1.141,1.857,2.284l-2.258,21.914
							C236.057,251.681,235.035,252.512,233.891,252.395z"/>
					</g>
					<g>
						<path style="fill:#FFFFFF;" d="M229.5,240.959c-0.211,2.047-2.174,3.146-4.934,2.862c-2.746-0.283-4.428-1.758-4.217-3.805
							c0.12-1.164,0.814-1.97,1.908-2.391c-0.756-0.58-1.128-1.386-1.027-2.363c0.196-1.908,2.027-2.927,4.493-2.673
							c2.498,0.257,4.081,1.628,3.884,3.536c-0.101,0.977-0.645,1.689-1.502,2.102C229.106,238.865,229.62,239.795,229.5,240.959z
							 M226.965,240.62c0.099-0.962-0.631-1.633-1.888-1.763c-1.241-0.128-2.077,0.382-2.176,1.344
							c-0.099,0.961,0.614,1.647,1.855,1.775C226.012,242.105,226.866,241.581,226.965,240.62z M223.716,235.629
							c-0.085,0.822,0.515,1.401,1.538,1.507c1.04,0.107,1.759-0.336,1.843-1.158c0.088-0.853-0.541-1.436-1.565-1.541
							C224.525,234.332,223.804,234.776,223.716,235.629z"/>
					</g>
				</g>
				<g>
					<g>
						<path style="fill:#00594c;" d="M275.581,256.689l-21.914-2.258c-1.144-0.118-1.975-1.14-1.858-2.284l2.258-21.914
							c0.118-1.144,1.14-1.975,2.284-1.857l21.914,2.258c1.144,0.118,1.975,1.14,1.857,2.284l-2.258,21.914
							C277.747,255.975,276.724,256.807,275.581,256.689z"/>
					</g>
					<g style="opacity:0.4;">
						<path d="M275.581,256.689l-21.914-2.258c-1.144-0.118-1.975-1.14-1.858-2.284l2.258-21.914
							c0.118-1.144,1.14-1.975,2.284-1.857l21.914,2.258c1.144,0.118,1.975,1.14,1.857,2.284l-2.258,21.914
							C277.747,255.975,276.724,256.807,275.581,256.689z"/>
					</g>
					<g>
						<path style="fill:#263238;" d="M271.557,256.275l-21.914-2.258c-1.144-0.118-1.975-1.141-1.857-2.284l2.258-21.914
							c0.118-1.144,1.14-1.975,2.284-1.857l21.914,2.258c1.144,0.118,1.975,1.14,1.857,2.284l-2.258,21.914
							C273.723,255.561,272.701,256.393,271.557,256.275z"/>
					</g>
					<g>
						<path style="fill:#FFFFFF;" d="M267.007,242.283c-0.387,3.754-2.851,5.616-6.14,5.277c-1.147-0.118-2.223-0.496-2.933-1.054
							l1.121-1.75c0.547,0.463,1.231,0.676,1.976,0.752c1.799,0.185,3.089-0.764,3.381-2.851c-0.7,0.571-1.666,0.816-2.799,0.699
							c-2.095-0.216-3.602-1.719-3.391-3.767c0.228-2.218,2.188-3.428,4.483-3.191C265.716,236.71,267.369,238.778,267.007,242.283z
							 M264.395,240.101c0.096-0.93-0.532-1.685-1.727-1.808c-1.07-0.11-1.879,0.433-1.981,1.426
							c-0.103,0.993,0.562,1.705,1.679,1.82C263.467,241.652,264.297,241.048,264.395,240.101z"/>
					</g>
				</g>
				<g>
					<g>
						<path style="fill:#00594c;" d="M313.247,260.569l-21.914-2.257c-1.144-0.118-1.975-1.141-1.858-2.284l2.258-21.914
							c0.118-1.144,1.14-1.975,2.284-1.857l21.914,2.258c1.144,0.118,1.975,1.14,1.857,2.284l-2.258,21.914
							C315.413,259.856,314.39,260.687,313.247,260.569z"/>
					</g>
					<g style="opacity:0.4;">
						<path d="M313.247,260.569l-21.914-2.257c-1.144-0.118-1.975-1.141-1.858-2.284l2.258-21.914
							c0.118-1.144,1.14-1.975,2.284-1.857l21.914,2.258c1.144,0.118,1.975,1.14,1.857,2.284l-2.258,21.914
							C315.413,259.856,314.39,260.687,313.247,260.569z"/>
					</g>
					<g>
						<path style="fill:#263238;" d="M309.223,260.155l-21.914-2.258c-1.144-0.118-1.975-1.14-1.858-2.284l2.258-21.914
							c0.118-1.144,1.14-1.975,2.284-1.857l21.914,2.258c1.144,0.118,1.975,1.14,1.857,2.284l-2.258,21.914
							C311.389,259.441,310.367,260.273,309.223,260.155z"/>
					</g>
					<g>
						<g>
							
								<rect x="299.108" y="240.15" transform="matrix(0.1024 -0.9947 0.9947 0.1024 24.2224 518.8412)" style="fill:#FFFFFF;" width="1" height="11.696"/>
						</g>
					</g>
				</g>
				<g>
					<g>
						<path style="fill:#00594c;" d="M271.646,294.879l-21.914-2.258c-1.144-0.118-1.975-1.14-1.857-2.284l2.258-21.914
							c0.118-1.144,1.141-1.975,2.284-1.857l21.914,2.258c1.144,0.118,1.975,1.141,1.857,2.284l-2.258,21.914
							C273.813,294.165,272.79,294.996,271.646,294.879z"/>
					</g>
					<g style="opacity:0.4;">
						<path d="M271.646,294.879l-21.914-2.258c-1.144-0.118-1.975-1.14-1.857-2.284l2.258-21.914
							c0.118-1.144,1.141-1.975,2.284-1.857l21.914,2.258c1.144,0.118,1.975,1.141,1.857,2.284l-2.258,21.914
							C273.813,294.165,272.79,294.996,271.646,294.879z"/>
					</g>
					<g>
						<path style="fill:#263238;" d="M267.623,294.464l-21.914-2.258c-1.144-0.118-1.975-1.14-1.857-2.284l2.258-21.914
							c0.118-1.144,1.14-1.975,2.284-1.858l21.914,2.258c1.144,0.118,1.975,1.14,1.858,2.284l-2.258,21.915
							C269.789,293.75,268.767,294.582,267.623,294.464z"/>
					</g>
				</g>
				<g>
					<g>
						<path style="fill:#00594c;" d="M309.313,298.759l-21.914-2.258c-1.144-0.118-1.975-1.14-1.857-2.284l2.258-21.914
							c0.118-1.144,1.141-1.975,2.284-1.857l21.914,2.258c1.144,0.118,1.975,1.14,1.857,2.284l-2.258,21.914
							C311.479,298.045,310.456,298.877,309.313,298.759z"/>
					</g>
					<g style="opacity:0.4;">
						<path d="M309.313,298.759l-21.914-2.258c-1.144-0.118-1.975-1.14-1.857-2.284l2.258-21.914
							c0.118-1.144,1.141-1.975,2.284-1.857l21.914,2.258c1.144,0.118,1.975,1.14,1.857,2.284l-2.258,21.914
							C311.479,298.045,310.456,298.877,309.313,298.759z"/>
					</g>
					<g>
						<path style="fill:#455A64;" d="M305.289,298.344l-21.914-2.257c-1.144-0.118-1.975-1.141-1.857-2.284l2.258-21.914
							c0.118-1.144,1.14-1.975,2.284-1.857l21.914,2.258c1.144,0.118,1.975,1.14,1.857,2.284l-2.258,21.914
							C307.455,297.631,306.433,298.462,305.289,298.344z"/>
					</g>
					<g>
						<g>
							<g>
								
									<rect x="295.322" y="276.904" transform="matrix(0.1024 -0.9947 0.9947 0.1024 -15.7274 548.0756)" style="fill:#FFFFFF;" width="0.999" height="11.696"/>
							</g>
						</g>
						<g>
							<g>
								
									<rect x="294.866" y="281.333" transform="matrix(0.1024 -0.9947 0.9947 0.1024 -20.542 551.5976)" style="fill:#FFFFFF;" width="0.999" height="11.696"/>
							</g>
						</g>
					</g>
				</g>
				<g>
					<path style="fill:#263238;" d="M228.643,290.783l-57.919-5.967c-1.374-0.142-2.372-1.37-2.231-2.743l2.24-21.743
						c0.141-1.374,1.37-2.372,2.743-2.231l57.919,5.967c1.374,0.142,2.373,1.37,2.231,2.743l-2.24,21.743
						C231.245,289.926,230.017,290.925,228.643,290.783z"/>
				</g>
				<g>
					<path style="fill:#FFFFFF;" d="M198.723,273.678c0.369-3.584,2.565-5.412,5.232-5.137c2.685,0.276,4.445,2.512,4.076,6.095
						c-0.369,3.583-2.548,5.413-5.232,5.136C200.132,279.497,198.354,277.26,198.723,273.678z M205.503,274.376
						c0.254-2.467-0.509-3.58-1.766-3.71c-1.24-0.127-2.214,0.807-2.468,3.273c-0.254,2.466,0.509,3.58,1.749,3.707
						C204.274,277.777,205.249,276.842,205.503,274.376z"/>
				</g>
				<g>
					<g>
						
							<rect x="252.16" y="279.808" transform="matrix(0.1172 -0.9931 0.9931 0.1172 -50.6083 503.6835)" style="fill:#FFFFFF;" width="11.697" height="0.999"/>
					</g>
					<g>
						
							<rect x="257.508" y="274.46" transform="matrix(0.1024 -0.9947 0.9947 0.1024 -47.2549 508.2459)" style="fill:#FFFFFF;" width="0.999" height="11.697"/>
					</g>
				</g>
				<g>
					<path style="fill:#263238;" d="M246.799,96.236l-1.673,16.235l-0.766-0.079l1.599-15.516l-4.082-0.42l0.074-0.719
						L246.799,96.236z"/>
					<path style="fill:#263238;" d="M260.135,113.29l-0.074,0.719l-10.993-1.132l0.058-0.557l7.68-6.287
						c2.2-1.789,2.739-2.929,2.875-4.251c0.223-2.157-1.142-3.705-3.971-3.996c-2.157-0.223-3.799,0.242-5.072,1.446l-0.48-0.564
						c1.35-1.268,3.261-1.845,5.649-1.599c3.108,0.32,4.914,2.124,4.644,4.744c-0.157,1.531-0.782,2.826-3.136,4.74l-6.989,5.726
						L260.135,113.29z"/>
					<path style="fill:#263238;" d="M273.002,110.795c-0.277,2.691-2.376,4.396-5.946,4.029c-2.436-0.251-4.497-1.401-5.404-2.831
						l0.475-0.514c0.829,1.281,2.66,2.384,4.98,2.623c3.107,0.32,4.889-1.044,5.13-3.386c0.243-2.366-1.178-4.036-4.611-4.389
						l-0.904-0.093l0.058-0.557l5.735-6.066l-8.953-0.922l0.074-0.719l9.973,1.027l-0.058,0.557l-5.759,6.087
						C271.593,106.033,273.281,108.081,273.002,110.795z"/>
					<path style="fill:#263238;" d="M288.975,112.253l-3.525-0.363l-0.482,4.685l-0.766-0.079l0.482-4.685l-9.324-0.96l0.058-0.557
						l10.109-10.068l0.904,0.093l-9.978,9.941l8.303,0.855l0.425-4.128l0.766,0.079l-0.425,4.129l3.525,0.363L288.975,112.253z"/>
					<path style="fill:#263238;" d="M292.367,116.634c-0.031,0.301-0.121,0.479-0.228,0.843l-1.156,3.022l-0.603-0.062l1.05-3.127
						c-0.388-0.11-0.636-0.44-0.595-0.834c0.043-0.418,0.403-0.732,0.844-0.687C292.144,115.838,292.405,116.263,292.367,116.634z"
						/>
					<path style="fill:#263238;" d="M308.455,114.26l-3.525-0.363l-0.482,4.685l-0.766-0.079l0.482-4.685l-9.323-0.961l0.058-0.557
						l10.108-10.068l0.904,0.093l-9.978,9.941l8.303,0.855l0.425-4.128l0.766,0.079l-0.425,4.128l3.525,0.363L308.455,114.26z"/>
					<path style="fill:#263238;" d="M320.505,115.595c-0.272,2.644-2.315,4.496-6.003,4.116c-2.389-0.246-4.474-1.399-5.381-2.828
						l0.498-0.511c0.807,1.279,2.661,2.384,4.957,2.621c3.177,0.327,4.903-1.183,5.141-3.479c0.258-2.505-1.074-4.143-5.713-4.62
						l-3.154-0.325l1.647-7.565l8.372,0.863l-0.074,0.719l-7.723-0.796l-1.337,6.144l2.505,0.258
						C319.204,110.703,320.801,112.719,320.505,115.595z"/>
				</g>
			</g>
		</g>
		<g>
			<g>
				<g>
					<g>
						<g>
							<g>
								<g>
									<g>
										<g>
											<polygon style="fill:#00594c;" points="143.123,448.17 136.765,471.678 157.429,473.564 161.772,451.184 											"/>
										</g>
									</g>
								</g>
								<g>
									<g>
										<g>
											<g>
												<path style="fill:#263238;" d="M158.029,471.649c-0.007,0.077-1.164,0.049-3.026-0.102
													c-1.862-0.149-4.427-0.434-7.25-0.797c-2.72-0.365-5.181-0.695-7.222-0.97c-1.846-0.258-2.988-0.434-2.98-0.516
													c0.007-0.077,1.164-0.044,3.025,0.111c1.862,0.154,4.426,0.44,7.25,0.803c2.72,0.362,5.18,0.69,7.221,0.963
													C156.894,471.397,158.037,471.567,158.029,471.649z"/>
											</g>
										</g>
									</g>
								</g>
								<g style="opacity:0.6;">
									<g>
										<g>
											<polyline style="fill:#FFFFFF;" points="136.765,471.678 157.429,473.564 157.763,471.841 137.363,469.248 
												136.787,471.445 											"/>
										</g>
									</g>
								</g>
							</g>
						</g>
						<g>
							<g>
								<g>
									<path style="fill:#263238;" d="M147.031,470.632c-0.13-0.032,0.749-4.065,1.965-9.007c1.215-4.943,2.306-8.924,2.436-8.892
										c0.13,0.032-0.749,4.064-1.965,9.007C148.252,466.683,147.161,470.664,147.031,470.632z"/>
								</g>
							</g>
						</g>
						<g>
							<g>
								<g>
									<path style="fill:#263238;" d="M156.887,471.496c-0.126-0.005,0.659-1.687,0.047-4.37c-0.315-1.308-1.002-2.83-2.261-4.091
										c-1.241-1.269-3.1-2.153-5.143-2.362c-2.046-0.197-4.039,0.297-5.534,1.258c-1.514,0.948-2.555,2.243-3.218,3.418
										c-1.315,2.41-1.187,4.223-1.304,4.193c-0.017,0-0.027-0.107-0.03-0.312c-0.011-0.205,0.007-0.507,0.048-0.895
										c0.087-0.773,0.347-1.893,0.984-3.148c0.647-1.237,1.701-2.614,3.28-3.634c1.564-1.035,3.669-1.572,5.822-1.363
										c2.15,0.219,4.115,1.169,5.413,2.531c1.313,1.352,1.994,2.962,2.278,4.331c0.272,1.385,0.177,2.54,0.007,3.3
										c-0.089,0.381-0.173,0.672-0.254,0.861C156.948,471.405,156.902,471.502,156.887,471.496z"/>
								</g>
							</g>
						</g>
					</g>
					<g>
						<g>
							<g>
								<g>
									<path style="fill:#00594c;" d="M228.365,445.493l-1.226,18.513c0,0,18.426,6.115,18.532,9.558l-36.001,0.261l0.727-28.924
										L228.365,445.493z"/>
								</g>
							</g>
							<g style="opacity:0.6;">
								<g>
									<g>
										<path style="fill:#FFFFFF;" d="M216.06,462.11c-0.702,0.169-1.207,0.938-1.067,1.646c0.14,0.708,0.917,1.229,1.622,1.072
											c0.705-0.157,1.339-1.061,1.12-1.749c-0.218-0.688-1.164-1.249-1.811-0.928"/>
									</g>
								</g>
							</g>
							<g style="opacity:0.6;">
								<g>
									<path style="fill:#FFFFFF;" d="M209.67,473.825l0.187-2.913l34.658,0.957c0,0,1.156,0.499,1.34,1.956L209.67,473.825z"/>
								</g>
							</g>
							<g>
								<g>
									<g>
										<path style="fill:#263238;" d="M227.728,463.841c-0.011,0.176-0.892,0.229-1.774,0.767
											c-0.896,0.516-1.365,1.263-1.524,1.189c-0.161-0.039,0.133-1.081,1.212-1.715
											C226.715,463.439,227.771,463.681,227.728,463.841z"/>
									</g>
								</g>
							</g>
							<g>
								<g>
									<g>
										<path style="fill:#263238;" d="M231.454,465.516c0.035,0.171-0.735,0.447-1.354,1.172
											c-0.641,0.707-0.815,1.506-0.99,1.493c-0.166,0.023-0.257-1.01,0.531-1.897
											C230.42,465.39,231.456,465.348,231.454,465.516z"/>
									</g>
								</g>
							</g>
							<g>
								<g>
									<g>
										<path style="fill:#263238;" d="M233.461,470.097c-0.161,0.033-0.379-0.853,0.102-1.801
											c0.474-0.952,1.313-1.307,1.383-1.158c0.095,0.147-0.454,0.648-0.837,1.432
											C233.709,469.346,233.636,470.085,233.461,470.097z"/>
									</g>
								</g>
							</g>
							<g>
								<g>
									<g>
										<path style="fill:#263238;" d="M227.539,459.591c-0.078,0.158-0.877-0.109-1.872-0.072
											c-0.996,0.017-1.779,0.327-1.866,0.174c-0.098-0.13,0.676-0.758,1.849-0.785
											C226.822,458.871,227.63,459.455,227.539,459.591z"/>
									</g>
								</g>
							</g>
						</g>
						<g style="opacity:0.3;">
							<g>
								<polygon points="228.118,449.159 227.904,452.459 210.225,451.763 210.292,448.786 								"/>
							</g>
						</g>
						<g>
							<g>
								<g>
									<path style="fill:#263238;" d="M227.718,455.851c0,0.073-0.698,0.16-1.802-0.064c-0.549-0.112-1.194-0.313-1.868-0.636
										c-0.336-0.162-0.679-0.354-1.018-0.58c-0.163-0.112-0.356-0.225-0.531-0.44c-0.189-0.189-0.286-0.659-0.052-0.937
										c0.193-0.271,0.522-0.38,0.782-0.378c0.266-0.001,0.479,0.059,0.673,0.114c0.398,0.109,0.769,0.254,1.109,0.418
										c0.678,0.333,1.225,0.746,1.629,1.141c0.811,0.798,1.077,1.463,1.015,1.495c-0.081,0.056-0.471-0.507-1.301-1.171
										c-0.414-0.33-0.945-0.675-1.58-0.954c-0.318-0.138-0.661-0.259-1.025-0.35c-0.378-0.112-0.702-0.124-0.805,0.042
										c-0.037,0.064-0.043,0.089,0.033,0.203c0.079,0.105,0.231,0.211,0.391,0.322c0.312,0.217,0.627,0.407,0.936,0.573
										c0.618,0.33,1.212,0.561,1.722,0.72C227.047,455.687,227.724,455.756,227.718,455.851z"/>
								</g>
							</g>
						</g>
						<g>
							<g>
								<g>
									<path style="fill:#263238;" d="M227.481,456.096c-0.063,0.025-0.393-0.615-0.423-1.755
										c-0.013-0.565,0.066-1.247,0.305-1.965c0.121-0.358,0.283-0.723,0.492-1.08c0.222-0.349,0.493-0.817,1.177-0.875
										c0.356-0.003,0.644,0.284,0.737,0.525c0.112,0.247,0.129,0.457,0.165,0.666c0.054,0.422,0.033,0.834-0.036,1.214
										c-0.136,0.762-0.469,1.39-0.826,1.838c-0.732,0.911-1.471,1.099-1.484,1.039c-0.056-0.09,0.567-0.411,1.132-1.29
										c0.279-0.434,0.532-1.009,0.621-1.676c0.045-0.332,0.051-0.686-0.002-1.042c-0.045-0.384-0.179-0.697-0.323-0.662
										c-0.179-0.008-0.492,0.271-0.648,0.571c-0.194,0.317-0.351,0.642-0.476,0.963c-0.245,0.643-0.362,1.263-0.404,1.788
										C227.41,455.409,227.578,456.072,227.481,456.096z"/>
								</g>
							</g>
						</g>
					</g>
					<g>
						<path style="fill:#455A64;" d="M150.306,157.142c0,0-3.901,21.302-7.037,34.192c-2.435,10.009-8.741,28.772,2.669,34.223
							c11.41,5.451,26.755-16.543,26.755-16.543l6.511-50.133c-4.536,0.849-9.67,6.105-15.14,13.836l0.993-19.017L150.306,157.142z"
							/>
					</g>
					<g>
						<path style="fill:#FFBE9D;" d="M307.329,188.608l-6.004,2.862l-5.523-8.666l3.229-6.691c0.307-0.621,0.635-1.318,0.979-2.117
							c0.401-0.933,0.638-1.931,0.712-2.943c0.09-1.227,0.144-2.862-0.097-3.765c-0.298-1.117,0.883-2.031,1.687-1.38
							c0.803,0.652,1.698,3.707,1.103,7.393c-0.596,3.686,3.696-0.225,5.285-1.621c1.589-1.397,6.702-5.482,7.505-5.323
							c1.177,0.233,1.145,1.571-0.474,2.928c-1.638,1.374-6.194,5.775-5.439,6.596c0,0,0.013,0.001,0.036,0.004
							c1.918,0.2,3.493,1.621,3.916,3.502c0.409,1.816,0.739,4.322-0.282,5.149C312.039,186.095,307.329,188.608,307.329,188.608z"
							/>
					</g>
					<g>
						<g>
							<g>
								<path style="fill:#FFBE9D;" d="M190.985,107.785l-0.16,52.112l22.357,1.066l0.646-12.675c0,0,7.941,1.577,9.99-5.798
									c1.309-4.711,0.982-41.119,0.982-41.119L190.985,107.785z"/>
							</g>
							<g>
								<path style="fill:#263238;" d="M229.849,106.511c-1.506,3.114-8.677,8.812-8.677,8.812l-3.239,8.681
									c-2.814-2.203-6.592-2.077-7.307,2.868c-0.517,3.573,3.926,4.296,3.926,4.296c-2.586,4.401-4.34,7.961-8.106,12.147
									c-4.076,4.531-6.358,4.987-10.779,5.061h-4.874c0,0-9.973-8.334-8.002-30.284c1.971-21.95,21.704-15.546,26.414-21.03
									C216.876,88.131,234.875,96.116,229.849,106.511z"/>
							</g>
						</g>
						<g>
							<g>
								<path style="fill:#455A64;" d="M183.899,136.445c0,0,0.216-0.007,0.624,0c0.407-0.02,1.012-0.036,1.77-0.203
									c1.51-0.3,3.652-1.185,5.727-3.033c2.096-1.828,3.944-4.612,5.806-7.769c0.946-1.574,1.937-3.236,3.135-4.847
									c1.199-1.602,2.612-3.173,4.388-4.372c1.771-1.21,3.765-1.922,5.7-2.429c1.943-0.505,3.851-0.816,5.652-1.166
									c3.596-0.663,6.826-1.666,9.028-3.375c2.207-1.689,3.308-3.788,3.655-5.28c0.196-0.751,0.196-1.358,0.214-1.764
									c-0.021-0.407-0.022-0.623-0.022-0.623s0.029,0.213,0.064,0.622c-0.004,0.408,0.009,1.022-0.177,1.784
									c-0.326,1.514-1.42,3.653-3.644,5.378c-2.22,1.747-5.48,2.772-9.081,3.446c-1.804,0.356-3.708,0.671-5.638,1.175
									c-1.922,0.507-3.892,1.212-5.634,2.404c-1.748,1.181-3.149,2.733-4.341,4.322c-1.192,1.598-2.184,3.253-3.134,4.824
									c-1.872,3.152-3.743,5.948-5.873,7.78c-2.106,1.85-4.28,2.723-5.808,3.001c-0.766,0.156-1.377,0.159-1.785,0.166
									C184.113,136.466,183.899,136.445,183.899,136.445z"/>
							</g>
						</g>
						<g>
							<g>
								<path style="fill:#455A64;" d="M182.748,118.592c0,0,0.353-0.137,1.035-0.365c0.683-0.218,1.698-0.568,3.063-0.728
									c1.336-0.152,3.152-0.092,4.796,1.036c0.798,0.554,1.52,1.438,1.711,2.556c0.194,1.083-0.048,2.4-0.985,3.266
									c-0.462,0.428-1.099,0.671-1.752,0.704c-0.66,0.031-1.32-0.184-1.91-0.512c-1.174-0.677-2.119-1.846-2.556-3.236
									c-0.468-1.375-0.548-2.934-0.194-4.441c0.347-1.507,1.18-2.957,2.409-4.038c1.215-1.09,2.802-1.843,4.51-2.018
									c1.714-0.183,3.45,0.193,5.139,0.665c1.695,0.475,3.399,1.022,5.196,1.246c1.791,0.24,3.639,0.25,5.479,0.013
									c1.834-0.253,3.643-0.687,5.271-1.458c1.606-0.759,3.067-2.015,3.533-3.702c0.465-1.654,0.025-3.537-1.173-4.688
									c-1.195-1.172-3.096-1.328-4.516-0.668c-0.715,0.325-1.33,0.872-1.667,1.561c-0.359,0.681-0.449,1.468-0.358,2.209
									c0.196,1.493,1.088,2.821,2.275,3.58c1.195,0.776,2.591,1.069,3.908,1.099c1.326,0.035,2.593-0.206,3.751-0.563
									c2.329-0.717,4.187-2.021,5.549-3.38c1.382-1.358,2.277-2.796,2.868-4.02c0.608-1.225,0.856-2.264,1.049-2.953
									c0.136-0.705,0.218-1.075,0.218-1.075s-0.054,0.374-0.177,1.084c-0.181,0.695-0.417,1.742-1.017,2.979
									c-0.583,1.236-1.473,2.69-2.859,4.067c-1.365,1.378-3.234,2.704-5.587,3.439c-1.17,0.366-2.452,0.614-3.799,0.583
									c-1.337-0.026-2.766-0.319-3.998-1.115c-1.23-0.784-2.155-2.15-2.363-3.702c-0.096-0.771-0.004-1.598,0.373-2.318
									c0.355-0.729,1.006-1.308,1.754-1.65c1.484-0.691,3.467-0.535,4.734,0.699c1.259,1.21,1.714,3.162,1.232,4.887
									c-0.488,1.769-2.005,3.06-3.639,3.834c-1.66,0.785-3.481,1.222-5.335,1.478c-1.858,0.24-3.725,0.229-5.534-0.014
									c-1.816-0.227-3.537-0.781-5.223-1.254c-1.682-0.472-3.392-0.841-5.064-0.664c-1.663,0.168-3.215,0.901-4.403,1.964
									c-2.454,2.123-3.098,5.61-2.179,8.281c0.422,1.357,1.338,2.491,2.472,3.151c0.568,0.318,1.2,0.524,1.825,0.497
									c0.618-0.03,1.222-0.257,1.659-0.66c0.891-0.814,1.138-2.085,0.954-3.133c-0.179-1.077-0.87-1.936-1.648-2.484
									c-1.602-1.113-3.392-1.19-4.72-1.051c-1.356,0.146-2.372,0.482-3.059,0.687C183.11,118.481,182.748,118.592,182.748,118.592
									z"/>
							</g>
						</g>
					</g>
					<g>
						<g>
							<polygon style="fill:#263238;" points="168.011,260.452 138.248,455.926 162.967,459.064 197.845,295.105 206.627,460.165 
								233.418,459.697 228.977,260.91 							"/>
							<path style="fill:#263238;" d="M206.153,460.674l-0.026-0.482l-8.581-161.282L163.36,459.617l-25.683-3.26l29.904-196.409
								l61.884,0.466l4.463,199.774L206.153,460.674z M198.144,291.3l8.957,168.356l25.806-0.45l-4.419-197.8l-60.047-0.452
								l-29.62,194.54l23.753,3.016L198.144,291.3z"/>
						</g>
						<g>
							<g>
								<path style="fill:#455A64;" d="M225.457,459.384c-0.144,0-0.26-39.166-0.26-87.468c0-48.319,0.117-87.477,0.26-87.477
									c0.144,0,0.26,39.157,0.26,87.477C225.717,420.218,225.6,459.384,225.457,459.384z"/>
							</g>
						</g>
						<g>
							<g>
								<path style="fill:#455A64;" d="M157.529,458.672c-0.009-0.002,0.012-0.146,0.06-0.425c0.055-0.303,0.13-0.713,0.226-1.238
									c0.215-1.113,0.524-2.708,0.919-4.751c0.833-4.146,2.029-10.101,3.505-17.448c3.001-14.725,7.253-35.044,12.133-57.447
									c4.884-22.41,9.472-42.658,12.869-57.297c1.715-7.295,3.104-13.207,4.072-17.323c0.491-2.021,0.874-3.601,1.141-4.702
									c0.131-0.517,0.234-0.922,0.309-1.22c0.073-0.274,0.114-0.414,0.123-0.412c0.009,0.002-0.015,0.146-0.071,0.424
									c-0.063,0.301-0.149,0.709-0.259,1.232c-0.245,1.106-0.596,2.693-1.046,4.724c-0.929,4.125-2.264,10.049-3.91,17.36
									c-3.304,14.658-7.835,34.918-12.719,57.325c-4.88,22.401-9.188,42.706-12.281,57.411
									c-1.544,7.333-2.795,13.276-3.667,17.414c-0.436,2.034-0.777,3.623-1.014,4.731c-0.117,0.521-0.209,0.928-0.277,1.228
									C157.576,458.533,157.538,458.674,157.529,458.672z"/>
							</g>
						</g>
						<g>
							<g>
								<path style="fill:#455A64;" d="M206.627,294.932c0.002,0.036-0.401,0.087-1.13,0.15c-0.841,0.059-1.873,0.132-3.089,0.218
									c-2.608,0.174-6.214,0.353-10.175,0.741c-3.961,0.395-7.533,0.925-10.125,1.265c-1.21,0.154-2.236,0.284-3.072,0.391
									c-0.727,0.082-1.132,0.11-1.137,0.074c-0.006-0.036,0.389-0.132,1.106-0.275c0.717-0.144,1.759-0.333,3.048-0.554
									c2.578-0.433,6.148-1.022,10.129-1.419c3.98-0.389,7.596-0.51,10.209-0.59c1.307-0.035,2.365-0.054,3.097-0.053
									C206.22,294.879,206.626,294.896,206.627,294.932z"/>
							</g>
						</g>
						<g>
							<g>
								<path style="fill:#455A64;" d="M229.495,282.238c0.005,0.032-0.265,0.113-0.769,0.194c-0.503,0.082-1.243,0.14-2.157,0.096
									c-1.816-0.073-4.388-0.687-6.687-2.338c-2.299-1.654-3.7-3.896-4.349-5.594c-0.333-0.853-0.513-1.573-0.596-2.075
									c-0.084-0.503-0.093-0.785-0.061-0.79c0.092-0.02,0.263,1.096,0.997,2.722c0.717,1.615,2.112,3.731,4.314,5.314
									c2.202,1.581,4.651,2.229,6.411,2.394C228.372,282.338,229.484,282.145,229.495,282.238z"/>
							</g>
						</g>
					</g>
					<g>
						<g>
							<g>
								<g>
									<path style="fill:#455A64;" d="M162.922,264.287l68.473-0.221l-3.745-45.189c-0.415-10.34-0.352-11.574-0.608-21.12
										c0,0,9.721,11.753,17.365,19.995c4.619,4.981,11.942,6.372,18.083,3.468l40.007-27.91l-7.492-19.164L258.649,196.4
										c-1.665-1.035-15.821-21.225-25.603-31.084c-6.26-6.31-14.701-9.942-23.585-10.201c-6.724-0.196-14.84,0.115-22.086,0.886
										c-11.018,1.172-19.639,10.021-20.564,21.063c-0.708,8.45-0.139,18.259-0.139,34.931L162.922,264.287z"/>
								</g>
							</g>
							<g>
								<g>
									<path style="fill:#263238;" d="M166.141,181.633c0,0,0.011,0.182,0.011,0.528c-0.002,0.405-0.006,0.905-0.009,1.513
										c-0.019,1.314-0.018,3.215-0.004,5.563c0.026,4.698,0.216,11.185,0.418,18.352c0.203,7.169,0.241,13.666,0.061,18.364
										c-0.082,2.349-0.186,4.248-0.296,5.558c-0.05,0.606-0.09,1.104-0.124,1.508c-0.031,0.345-0.057,0.525-0.057,0.525
										s-0.002-0.182,0.015-0.528c0.023-0.404,0.051-0.903,0.085-1.51c0.085-1.31,0.167-3.21,0.23-5.557
										c0.142-4.695,0.081-11.186-0.122-18.354c-0.202-7.165-0.369-13.656-0.357-18.357c0.005-2.35,0.026-4.252,0.07-5.565
										c0.019-0.608,0.035-1.108,0.048-1.513C166.123,181.814,166.141,181.633,166.141,181.633z"/>
								</g>
							</g>
							<g>
								<g>
									<path style="fill:#263238;" d="M257.15,202.868c-0.028-0.005,0.029-0.364,0.144-0.942c0.115-0.577,0.289-1.372,0.493-2.247
										c0.204-0.876,0.401-1.665,0.553-2.234c0.152-0.568,0.26-0.916,0.288-0.908c0.028,0.008-0.03,0.369-0.145,0.946
										c-0.115,0.577-0.289,1.37-0.492,2.243c-0.204,0.873-0.4,1.66-0.552,2.229C257.287,202.524,257.178,202.874,257.15,202.868z
										"/>
								</g>
							</g>
							<g>
								<g>
									<path style="fill:#263238;" d="M260.795,203.429c-0.056,0.013-0.472-1.6-0.928-3.601c-0.457-2.002-0.781-3.635-0.725-3.648
										c0.056-0.013,0.472,1.599,0.928,3.601C260.527,201.783,260.852,203.416,260.795,203.429z"/>
								</g>
							</g>
							<g>
								<g>
									<path style="fill:#263238;" d="M228.731,199.452c0,0-0.134-0.113-0.375-0.343c-0.282-0.274-0.627-0.609-1.045-1.015
										c-0.902-0.887-2.205-2.173-3.758-3.82c-1.545-1.651-3.348-3.664-5.107-6.092c-1.752-2.424-3.459-5.284-4.645-8.542
										c-1.202-3.249-1.715-6.58-1.531-9.58c0.137-2.991,0.706-5.691,1.722-7.733c0.996-2.056,2.357-3.383,3.364-4.137
										c0.513-0.374,0.922-0.647,1.218-0.802c0.289-0.167,0.445-0.245,0.445-0.245c0.021,0.033-0.618,0.336-1.614,1.111
										c-0.985,0.77-2.314,2.097-3.281,4.137c-0.988,2.027-1.537,4.702-1.663,7.678c-0.171,2.976,0.342,6.272,1.535,9.499
										c1.177,3.236,2.868,6.081,4.605,8.501c1.743,2.424,3.53,4.442,5.059,6.104c1.536,1.657,2.823,2.959,3.707,3.863
										c0.407,0.417,0.743,0.761,1.017,1.042C228.617,199.318,228.731,199.452,228.731,199.452z"/>
								</g>
							</g>
						</g>
						<g>
							<g>
								<path style="fill:#FAFAFA;" d="M184.22,180.858c-0.113,0.089-1.165-1.05-2.35-2.544c-1.185-1.495-2.054-2.779-1.941-2.868
									c0.113-0.089,1.164,1.05,2.35,2.545C183.464,179.485,184.333,180.769,184.22,180.858z"/>
							</g>
						</g>
						<g>
							<g>
								<path style="fill:#FAFAFA;" d="M199.783,198.52c0.102,0.102-1.351,1.716-3.244,3.604c-1.893,1.889-3.51,3.338-3.612,3.236
									c-0.102-0.102,1.351-1.715,3.244-3.605C198.064,199.867,199.681,198.418,199.783,198.52z"/>
							</g>
						</g>
						<g>
							<g>
								<path style="fill:#FAFAFA;" d="M214.843,223.866c-0.147,0.045-0.696-1.501-1.712-3.223
									c-1.004-1.731-2.082-2.966-1.971-3.072c0.09-0.099,1.377,1.014,2.42,2.809C214.634,222.169,214.974,223.836,214.843,223.866
									z"/>
							</g>
						</g>
						<g>
							<g>
								<path style="fill:#FAFAFA;" d="M175.801,220.995c-0.121,0.053-1.106-2.122-1.605-5.005
									c-0.513-2.882-0.328-5.262-0.196-5.253c0.155,0.001,0.205,2.34,0.709,5.163
									C175.196,218.725,175.946,220.942,175.801,220.995z"/>
							</g>
						</g>
						<g>
							<g>
								<path style="fill:#FAFAFA;" d="M196.533,232.157c-0.121,0.053-0.922-1.784-1.132-4.22c-0.225-2.435,0.236-4.385,0.365-4.355
									c0.154,0.022-0.066,1.95,0.153,4.308C196.122,230.249,196.681,232.108,196.533,232.157z"/>
							</g>
						</g>
						<g>
							<g>
								<path style="fill:#FAFAFA;" d="M188.334,248.374c-0.076,0.122-2.182-1.057-4.703-2.633
									c-2.522-1.576-4.504-2.953-4.427-3.075c0.076-0.122,2.182,1.057,4.703,2.633
									C186.428,246.876,188.41,248.253,188.334,248.374z"/>
							</g>
						</g>
						<g>
							<g>
								<path style="fill:#FAFAFA;" d="M220.572,243.577c0.064,0.139-2.257,1.292-4.946,2.996c-2.697,1.694-4.736,3.292-4.834,3.174
									c-0.09-0.1,1.823-1.897,4.556-3.615C218.074,244.406,220.521,243.453,220.572,243.577z"/>
							</g>
						</g>
						<g>
							<g>
								<path style="fill:#FAFAFA;" d="M180.024,261.907c-0.028,0.141-2.287-0.191-5.044-0.741
									c-2.758-0.551-4.971-1.111-4.943-1.252c0.028-0.141,2.286,0.191,5.045,0.741
									C177.839,261.205,180.052,261.766,180.024,261.907z"/>
							</g>
						</g>
						<g>
							<g>
								<path style="fill:#FAFAFA;" d="M201.637,258.388c-0.101,0.09-1.339-1.207-2.38-3.139c-1.05-1.928-1.46-3.673-1.33-3.709
									c0.145-0.047,0.764,1.584,1.787,3.461C200.728,256.882,201.756,258.293,201.637,258.388z"/>
							</g>
						</g>
						<g>
							<g>
								<path style="fill:#FAFAFA;" d="M225.959,260.082c0.11,0.092-0.587,1.108-1.557,2.27c-0.97,1.161-1.846,2.028-1.957,1.936
									c-0.11-0.092,0.587-1.108,1.557-2.27C224.973,260.856,225.849,259.989,225.959,260.082z"/>
							</g>
						</g>
						<g>
							<g>
								<path style="fill:#FAFAFA;" d="M181.472,191.339c0.08,0.12-0.813,0.856-1.994,1.645c-1.181,0.789-2.204,1.331-2.284,1.212
									c-0.08-0.119,0.813-0.856,1.994-1.645C180.37,191.763,181.393,191.22,181.472,191.339z"/>
							</g>
						</g>
						<g>
							<g>
								<path style="fill:#FAFAFA;" d="M198.349,172.488c-0.132,0.045-1.022-2.234-1.8-5.144c-0.783-2.91-1.152-5.329-1.014-5.356
									c0.145-0.029,0.74,2.328,1.518,5.221C197.825,170.101,198.489,172.441,198.349,172.488z"/>
							</g>
						</g>
						<g>
							<g>
								<path style="fill:#FAFAFA;" d="M214.556,189.651c-0.062,0.14-1.522-0.421-3.397-0.773c-1.873-0.365-3.437-0.383-3.443-0.536
									c-0.014-0.134,1.595-0.354,3.541,0.024C213.204,188.734,214.618,189.532,214.556,189.651z"/>
							</g>
						</g>
						<g>
							<g>
								<path style="fill:#FAFAFA;" d="M225.696,175.071c0.023,0.132-1.702,0.457-3.816,0.125c-2.117-0.319-3.664-1.148-3.602-1.266
									c0.059-0.142,1.643,0.446,3.682,0.751C223.994,175.002,225.682,174.917,225.696,175.071z"/>
							</g>
						</g>
						<g>
							<g>
								<path style="fill:#FAFAFA;" d="M237.094,191.334c-0.135,0.001-0.219-2.491,0.277-5.514c0.484-3.026,1.35-5.364,1.478-5.32
									c0.146,0.044-0.487,2.42-0.964,5.403C237.396,188.884,237.247,191.338,237.094,191.334z"/>
							</g>
						</g>
						<g>
							<g>
								<path style="fill:#FAFAFA;" d="M250.486,210.485c-0.103,0.1-1.696-1.375-3.557-3.295c-1.861-1.92-3.286-3.558-3.183-3.658
									c0.103-0.1,1.695,1.375,3.557,3.295C249.164,208.748,250.589,210.385,250.486,210.485z"/>
							</g>
						</g>
						<g>
							<g>
								<path style="fill:#FAFAFA;" d="M261.632,209.015c0.121,0.078-0.684,1.541-1.797,3.268c-1.113,1.727-2.114,3.064-2.234,2.986
									c-0.121-0.078,0.683-1.541,1.797-3.268C260.511,210.274,261.511,208.937,261.632,209.015z"/>
							</g>
						</g>
						<g>
							<g>
								<path style="fill:#FAFAFA;" d="M274.556,202.715c-0.129,0.063-1.095-1.66-2.157-3.848c-1.062-2.188-1.818-4.013-1.688-4.076
									c0.129-0.063,1.095,1.66,2.157,3.848C273.93,200.827,274.686,202.652,274.556,202.715z"/>
							</g>
						</g>
						<g>
							<g>
								<path style="fill:#FAFAFA;" d="M292.161,195.432c-0.025,0.142-2.082-0.106-4.594-0.552
									c-2.513-0.447-4.528-0.924-4.503-1.065c0.025-0.141,2.082,0.106,4.594,0.553C290.17,194.814,292.186,195.29,292.161,195.432
									z"/>
							</g>
						</g>
						<g>
							<g>
								<path style="fill:#FAFAFA;" d="M152.355,214.157c-0.13-0.061,0.701-2.101,1.857-4.556c1.156-2.455,2.199-4.395,2.329-4.334
									c0.13,0.061-0.701,2.101-1.857,4.556C153.528,212.277,152.485,214.218,152.355,214.157z"/>
							</g>
						</g>
						<g>
							<g>
								<path style="fill:#FAFAFA;" d="M161.686,197.697c-0.107,0.096-1.463-1.239-3.029-2.98c-1.566-1.743-2.749-3.233-2.642-3.329
									c0.107-0.096,1.463,1.238,3.029,2.981C160.61,196.111,161.793,197.601,161.686,197.697z"/>
							</g>
						</g>
						<g>
							<g>
								<path style="fill:#FAFAFA;" d="M160.913,224.133c0.092,0.111-0.601,0.838-1.547,1.625c-0.947,0.787-1.788,1.335-1.88,1.224
									c-0.092-0.111,0.601-0.838,1.548-1.625C159.979,224.571,160.821,224.023,160.913,224.133z"/>
							</g>
						</g>
						<g>
							<g>
								<path style="fill:#FAFAFA;" d="M164.064,180.207c0.112,0.09-0.308,0.801-0.938,1.589c-0.63,0.788-1.232,1.354-1.345,1.264
									c-0.112-0.09,0.308-0.801,0.938-1.589C163.349,180.683,163.951,180.117,164.064,180.207z"/>
							</g>
						</g>
						<g style="opacity:0.3;">
							<g>
								<path d="M216.327,184.754c4.229,13.289,7.494,27.239,11.723,40.528l-1.008-27.526
									C223.121,194.138,219.555,189.793,216.327,184.754z"/>
							</g>
						</g>
					</g>
					<g>
						<g>
							<path style="fill:#263238;" d="M147.519,202.143c-0.007-0.003,0.038-0.116,0.129-0.327c0.118-0.268,0.252-0.571,0.407-0.921
								c0.355-0.799,0.89-1.947,1.568-3.356c1.355-2.819,3.321-6.671,5.673-10.826c2.356-4.154,4.65-7.821,6.372-10.432
								c0.86-1.306,1.57-2.355,2.073-3.07c0.221-0.313,0.412-0.584,0.581-0.823c0.135-0.187,0.208-0.283,0.214-0.279
								c0.006,0.004-0.056,0.108-0.18,0.302c-0.159,0.245-0.34,0.523-0.548,0.844c-0.531,0.818-1.208,1.86-2.016,3.105
								c-1.689,2.63-3.961,6.305-6.314,10.455c-2.349,4.15-4.333,7.987-5.721,10.788c-0.652,1.334-1.198,2.449-1.627,3.326
								c-0.168,0.344-0.314,0.642-0.442,0.905C147.583,202.039,147.525,202.145,147.519,202.143z"/>
						</g>
					</g>
					<g>
						<g>
							<path style="fill:#263238;" d="M154.265,189.415c0.01,0.033-0.422,0.173-1.092,0.46c-0.67,0.286-1.571,0.742-2.483,1.375
								c-0.911,0.636-1.651,1.322-2.153,1.851c-0.503,0.528-0.784,0.884-0.811,0.864c-0.011-0.009,0.047-0.106,0.164-0.276
								c0.115-0.171,0.298-0.407,0.538-0.687c0.479-0.56,1.217-1.276,2.143-1.922c0.928-0.644,1.856-1.086,2.547-1.34
								c0.346-0.128,0.631-0.218,0.831-0.266C154.149,189.422,154.261,189.401,154.265,189.415z"/>
						</g>
					</g>
				</g>
			</g>
			<g>
				<g>
					<path style="fill:#FAFAFA;" d="M155.206,168.902c0.117,0.084-1.245,2.165-3.04,4.648c-1.796,2.483-3.346,4.428-3.463,4.343
						c-0.117-0.084,1.245-2.165,3.041-4.648C153.539,170.763,155.09,168.818,155.206,168.902z"/>
				</g>
			</g>
		</g>
		<g>
			<path style="fill:#FFBE9D;" d="M162.427,152.635c0.958,0.305,1.982-0.363,2.54-1.2c0.559-0.836,0.817-1.837,1.314-2.712
				c1.486-2.615,4.866-3.752,6.225-6.435c0.189-0.374,0.306-0.895-0.019-1.159c-0.301-0.245-0.747-0.079-1.095,0.095
				c-2.969,1.487-5.939,2.974-8.908,4.461"/>
			<g>
				<path style="fill:#EB996E;" d="M162.486,145.684c-0.018-0.035,0.309-0.24,0.914-0.581c0.605-0.341,1.489-0.818,2.586-1.396
					c1.146-0.594,2.448-1.269,3.869-2.005c0.367-0.187,0.741-0.378,1.122-0.572c0.37-0.154,0.783-0.52,1.452-0.348
					c0.329,0.102,0.545,0.471,0.543,0.77c0.012,0.301-0.07,0.557-0.178,0.796c-0.228,0.441-0.484,0.852-0.803,1.23
					c-1.27,1.517-2.867,2.437-4.039,3.534c-0.594,0.539-1.098,1.108-1.453,1.712c-0.356,0.603-0.59,1.243-0.867,1.81
					c-0.504,1.171-1.397,1.925-2.111,2.089c-0.727,0.185-1.115-0.074-1.094-0.085c0.008-0.057,0.398,0.105,1.026-0.125
					c0.63-0.223,1.371-0.905,1.813-2.046c0.245-0.557,0.456-1.21,0.823-1.877c0.367-0.667,0.896-1.29,1.505-1.862
					c1.205-1.158,2.786-2.102,3.956-3.51c0.294-0.345,0.532-0.733,0.73-1.109c0.181-0.372,0.175-0.757-0.043-0.805
					c-0.229-0.088-0.639,0.116-1.019,0.311c-0.384,0.189-0.761,0.374-1.13,0.555c-1.441,0.697-2.761,1.335-3.923,1.896
					c-1.12,0.532-2.032,0.954-2.667,1.235C162.863,145.581,162.503,145.719,162.486,145.684z"/>
			</g>
		</g>
	</g>
</g>
<g id="Plant">
	<g>
		<g>
			<g>
				<rect x="378.308" y="420.386" style="fill:#263238;" width="63.295" height="8.697"/>
			</g>
			<g>
				<path style="fill:#263238;" d="M441.711,429.191H378.2v-8.914h63.511V429.191z M378.416,428.974h63.078v-8.481h-63.078V428.974z
					"/>
			</g>
		</g>
		<g>
			<g>
				<polygon style="fill:#263238;" points="384.176,426.188 393.287,471.134 426.997,471.134 435.804,429.083 				"/>
			</g>
		</g>
		<g>
			<g>
				<polygon style="fill:#455A64;" points="384.176,466.883 389.036,473.564 430.01,473.564 435.804,466.883 				"/>
			</g>
		</g>
		<g>
			<g>
				<g>
					<path style="fill:#263238;" d="M407.578,427.501c-0.124,0-0.284-20.822-0.356-46.503c-0.072-25.689-0.03-46.508,0.095-46.508
						c0.124,0,0.284,20.818,0.356,46.507C407.745,406.677,407.703,427.5,407.578,427.501z"/>
				</g>
			</g>
		</g>
		<g>
			<g>
				<g>
					<path style="fill:#263238;" d="M421.678,375.392c0.014,0.007-0.045,0.174-0.17,0.484c-0.148,0.353-0.335,0.799-0.565,1.348
						c-0.126,0.297-0.264,0.62-0.413,0.97c-0.131,0.367-0.271,0.761-0.422,1.182c-0.153,0.426-0.316,0.878-0.488,1.356
						c-0.169,0.481-0.302,1.005-0.468,1.546c-0.691,2.158-1.241,4.805-1.77,7.75c-0.461,2.959-0.806,6.237-0.98,9.691
						c-0.308,6.915,0.083,13.186,0.5,17.703c0.204,2.26,0.409,4.086,0.559,5.347c0.065,0.591,0.118,1.073,0.16,1.454
						c0.032,0.333,0.041,0.509,0.025,0.512c-0.015,0.002-0.055-0.169-0.115-0.499c-0.064-0.379-0.145-0.856-0.244-1.443
						c-0.204-1.255-0.458-3.078-0.702-5.339c-0.5-4.518-0.943-10.808-0.634-17.756c0.175-3.47,0.535-6.765,1.021-9.738
						c0.555-2.959,1.141-5.615,1.875-7.775c0.177-0.542,0.321-1.065,0.502-1.545c0.184-0.476,0.359-0.927,0.523-1.352
						c0.163-0.418,0.316-0.81,0.458-1.174c0.156-0.354,0.315-0.671,0.451-0.959c0.262-0.535,0.475-0.971,0.644-1.317
						C421.578,375.538,421.664,375.385,421.678,375.392z"/>
				</g>
			</g>
		</g>
		<g>
			<g>
				<g>
					<path style="fill:#263238;" d="M420.06,358.551c0.014,0.006-0.055,0.242-0.201,0.687c-0.164,0.482-0.383,1.126-0.659,1.936
						c-0.147,0.423-0.308,0.889-0.484,1.395c-0.157,0.52-0.327,1.081-0.509,1.682c-0.37,1.205-0.799,2.574-1.181,4.115
						c-0.203,0.768-0.414,1.571-0.635,2.407c-0.19,0.845-0.388,1.724-0.593,2.633c-0.442,1.812-0.761,3.781-1.169,5.838
						c-0.697,4.136-1.312,8.708-1.736,13.53c-0.4,4.826-0.574,9.438-0.635,13.634c-0.013,4.196,0.041,7.976,0.213,11.146
						c0.056,1.586,0.158,3.019,0.239,4.277c0.073,1.259,0.152,2.342,0.232,3.227c0.065,0.853,0.117,1.532,0.155,2.039
						c0.031,0.467,0.039,0.713,0.024,0.715c-0.015,0.002-0.054-0.241-0.114-0.705c-0.06-0.506-0.139-1.182-0.239-2.033
						c-0.107-0.883-0.212-1.965-0.309-3.224c-0.106-1.258-0.23-2.691-0.306-4.28c-0.213-3.173-0.3-6.96-0.31-11.166
						c0.038-4.205,0.201-8.829,0.601-13.669c0.425-4.836,1.054-9.42,1.776-13.565c0.421-2.061,0.754-4.033,1.214-5.848
						c0.214-0.91,0.421-1.789,0.62-2.635c0.231-0.836,0.453-1.639,0.665-2.407c0.402-1.539,0.854-2.906,1.248-4.107
						c0.195-0.598,0.377-1.157,0.546-1.674c0.189-0.503,0.364-0.965,0.522-1.385c0.309-0.799,0.556-1.435,0.739-1.91
						C419.947,358.771,420.045,358.546,420.06,358.551z"/>
				</g>
			</g>
		</g>
		<g>
			<g>
				<g>
					<path style="fill:#263238;" d="M403.575,431.184c-0.008,0-0.02-0.082-0.036-0.243c-0.016-0.187-0.035-0.423-0.06-0.716
						c-0.045-0.663-0.107-1.586-0.186-2.757c-0.152-2.429-0.368-5.886-0.635-10.143c-0.549-8.562-1.344-20.392-2.785-33.4
						c-0.736-6.504-1.59-12.681-2.478-18.282c-0.472-2.795-0.9-5.456-1.385-7.93c-0.445-2.482-0.925-4.781-1.367-6.879
						c-0.416-2.104-0.88-3.988-1.253-5.65c-0.367-1.664-0.721-3.088-1.018-4.25c-0.279-1.14-0.499-2.038-0.657-2.683
						c-0.065-0.287-0.118-0.518-0.16-0.701c-0.034-0.159-0.047-0.241-0.04-0.243c0.008-0.002,0.036,0.076,0.084,0.231
						c0.053,0.18,0.12,0.407,0.203,0.69c0.178,0.641,0.425,1.532,0.74,2.663c0.323,1.156,0.703,2.575,1.093,4.235
						c0.397,1.658,0.883,3.539,1.319,5.641c0.462,2.096,0.961,4.395,1.422,6.877c0.502,2.475,0.945,5.136,1.428,7.933
						c0.911,5.604,1.779,11.787,2.516,18.298c1.442,13.022,2.187,24.863,2.655,33.432c0.233,4.285,0.394,7.754,0.492,10.152
						c0.043,1.173,0.077,2.097,0.102,2.762c0.006,0.295,0.011,0.531,0.015,0.719C403.586,431.101,403.583,431.184,403.575,431.184z"
						/>
				</g>
			</g>
		</g>
		<g>
			<g>
				<path style="fill:#00594c;" d="M407.062,344.5c-0.275-2.95-3.256-5.175-6.219-5.206c-2.963-0.031-5.724,1.746-7.536,4.09
					c-1.812,2.344-2.811,5.206-3.629,8.054c-1.995,6.95-3.086,14.251-2.233,21.432c0.853,7.18,3.766,14.249,8.919,19.322
					c0.838,0.825,1.923,1.65,3.072,1.404c0.629-0.134,1.144-0.571,1.621-1.002c10.121-9.143,15.966-22.837,15.565-36.471
					c-0.08-2.73-0.439-5.572-1.951-7.846C413.161,346.002,409.636,343.586,407.062,344.5"/>
			</g>
		</g>
		<g>
			<g>
				<g>
					<path style="fill:#00594c;" d="M384.94,320.872c-1.391,2.519-2.782,5.038-4.173,7.557c-0.097,0.176-0.226,0.374-0.427,0.39
						c-0.219,0.018-0.383-0.189-0.503-0.373c-3.677-5.644-7.354-11.287-11.032-16.931l2.542-1.44L384.94,320.872z"/>
				</g>
			</g>
			<g style="opacity:0.2;">
				<g>
					<g>
						<path d="M384.94,320.872c-1.391,2.519-2.782,5.038-4.173,7.557c-0.097,0.176-0.226,0.374-0.427,0.39
							c-0.219,0.018-0.383-0.189-0.503-0.373c-3.677-5.644-7.354-11.287-11.032-16.931l2.542-1.44L384.94,320.872z"/>
					</g>
				</g>
			</g>
			<g>
				<g>
					<path style="fill:#00594c;" d="M407.317,334.489c-12.544-7.402-25.087-14.804-37.631-22.206
						c-0.384-0.227-0.8-0.494-0.916-0.924c-0.15-0.557,0.268-1.094,0.669-1.508c5.176-5.339,12.693-8.435,20.11-7.901
						c7.417,0.534,14.549,4.818,18.181,11.307C411.362,319.747,411.482,328.329,407.317,334.489"/>
				</g>
			</g>
			<g>
				<g>
					<g>
						<path style="fill:#263238;" d="M375.109,305.195c-0.001-0.016,0.169-0.036,0.493-0.061c0.324-0.016,0.804-0.075,1.422-0.068
							c1.236-0.03,3.034,0.051,5.221,0.415c2.186,0.359,4.754,1.063,7.436,2.259c2.681,1.19,5.455,2.914,7.982,5.179
							c2.506,2.289,4.498,4.878,5.95,7.428c1.458,2.55,2.413,5.035,2.989,7.174c0.58,2.14,0.84,3.921,0.933,5.154
							c0.068,0.615,0.041,0.773,0.057,1.097c0.007,0.325-0.275,0.82-0.29,0.821c-0.04,0.002,0.208-0.68,0.058-1.9
							c-0.146-1.22-0.452-2.978-1.065-5.085c-1.19-4.191-3.952-9.841-8.935-14.355c-4.986-4.506-10.883-6.692-15.172-7.458
							c-2.157-0.4-3.937-0.529-5.166-0.553C375.794,305.214,375.111,305.235,375.109,305.195z"/>
					</g>
				</g>
			</g>
			<g>
				<g>
					<g>
						<path style="fill:#263238;" d="M402.223,319.163c0.021,0.057-0.703,0.392-1.902,0.865c-1.199,0.473-2.874,1.077-4.748,1.672
							c-1.875,0.595-3.592,1.069-4.844,1.374c-1.252,0.306-2.037,0.45-2.053,0.391c-0.016-0.062,0.74-0.315,1.967-0.698
							c1.387-0.433,3.005-0.939,4.793-1.497c1.782-0.575,3.395-1.096,4.777-1.542C401.437,319.332,402.201,319.103,402.223,319.163z
							"/>
					</g>
				</g>
			</g>
			<g>
				<g>
					<g>
						<path style="fill:#263238;" d="M396.298,303.245c0.121-0.011,0.388,1.865,0.445,4.198c0.061,2.333-0.111,4.22-0.232,4.215
							c-0.127-0.005-0.158-1.887-0.219-4.204C396.235,305.138,396.171,303.256,396.298,303.245z"/>
					</g>
				</g>
			</g>
			<g>
				<g>
					<g>
						<path style="fill:#263238;" d="M369.357,311.862c-0.018-0.057,1.024-0.435,2.734-0.962c1.71-0.527,4.091-1.194,6.745-1.834
							c2.655-0.639,5.079-1.129,6.841-1.439c1.762-0.31,2.861-0.448,2.872-0.388c0.012,0.063-1.066,0.312-2.809,0.701
							c-1.743,0.389-4.15,0.927-6.798,1.564c-2.647,0.638-5.035,1.255-6.763,1.703C370.449,311.655,369.376,311.924,369.357,311.862
							z"/>
					</g>
				</g>
			</g>
		</g>
		<g>
			<g>
				<g>
					<path style="fill:#00594c;" d="M391.443,338.099c-3.236-2.454-6.659-2.938-10.717-2.777c-4.059,0.161-8.009,1.397-11.73,3.027
						c-6.345,2.779-12.31,6.875-16.101,12.673c-3.792,5.798-5.111,13.473-2.272,19.792c0.283,0.629,0.651,1.288,1.285,1.559
						c0.668,0.286,1.433,0.063,2.124-0.163c7.217-2.354,14.485-4.731,21.121-8.418c6.636-3.687,12.676-8.812,16.237-15.516
						c0.854-1.609,1.569-3.333,1.709-5.149C393.238,341.312,392.737,339.382,391.443,338.099"/>
				</g>
			</g>
			<g>
				<g>
					<g>
						<path style="fill:#263238;" d="M391.508,337.338c0.004,0.015-0.175,0.087-0.519,0.211c-0.39,0.134-0.892,0.307-1.512,0.52
							c-0.334,0.111-0.699,0.233-1.095,0.365c-0.397,0.143-0.82,0.321-1.279,0.498c-0.913,0.37-1.973,0.738-3.089,1.28
							c-0.565,0.257-1.156,0.526-1.77,0.806c-0.614,0.283-1.226,0.632-1.875,0.962c-1.308,0.643-2.632,1.464-4.041,2.296
							c-2.767,1.749-5.695,3.855-8.545,6.337c-2.826,2.512-5.288,5.148-7.376,7.67c-1.005,1.292-1.988,2.501-2.792,3.716
							c-0.41,0.601-0.834,1.164-1.193,1.737c-0.356,0.574-0.698,1.125-1.025,1.653c-0.68,1.038-1.18,2.043-1.663,2.901
							c-0.235,0.433-0.465,0.83-0.657,1.205c-0.181,0.376-0.349,0.722-0.502,1.04c-0.291,0.588-0.525,1.063-0.708,1.433
							c-0.167,0.326-0.261,0.494-0.275,0.488c-0.014-0.006,0.052-0.187,0.192-0.525c0.163-0.38,0.373-0.868,0.633-1.472
							c0.143-0.323,0.299-0.677,0.468-1.06c0.181-0.383,0.402-0.787,0.626-1.227c0.464-0.873,0.948-1.893,1.613-2.948
							c0.321-0.535,0.657-1.095,1.006-1.677c0.354-0.581,0.772-1.152,1.179-1.762c0.796-1.232,1.774-2.457,2.777-3.765
							c2.084-2.553,4.555-5.218,7.401-7.747c2.87-2.5,5.828-4.611,8.625-6.352c1.425-0.828,2.764-1.642,4.087-2.274
							c0.656-0.325,1.276-0.668,1.898-0.945c0.622-0.272,1.219-0.534,1.791-0.784c1.13-0.526,2.204-0.876,3.129-1.224
							c0.465-0.167,0.894-0.334,1.297-0.465c0.402-0.119,0.772-0.229,1.111-0.329c0.632-0.181,1.143-0.327,1.541-0.44
							C391.316,337.366,391.503,337.323,391.508,337.338z"/>
					</g>
				</g>
			</g>
			<g>
				<g>
					<g>
						<path style="fill:#263238;" d="M366.223,351.028c0.035,0.12-3.49,1.255-7.873,2.537c-4.384,1.282-7.965,2.224-8,2.104
							c-0.035-0.12,3.489-1.255,7.873-2.537C362.606,351.851,366.188,350.909,366.223,351.028z"/>
					</g>
				</g>
			</g>
			<g>
				<g>
					<g>
						<path style="fill:#263238;" d="M365.899,368.401c-0.061,0.001-0.132-0.936-0.173-2.453c-0.042-1.516-0.048-3.613,0.016-5.927
							c0.065-2.315,0.189-4.408,0.315-5.92c0.126-1.512,0.249-2.443,0.31-2.439c0.064,0.004,0.053,0.943,0.008,2.457
							c-0.051,1.662-0.114,3.681-0.183,5.914c-0.056,2.233-0.106,4.252-0.148,5.914
							C366.004,367.463,365.962,368.401,365.899,368.401z"/>
					</g>
				</g>
			</g>
			<g>
				<g>
					<g>
						<path style="fill:#263238;" d="M380.781,360.82c-0.124,0.009-0.52-4.251-0.884-9.513c-0.364-5.264-0.558-9.537-0.434-9.546
							c0.124-0.009,0.52,4.25,0.884,9.514C380.711,356.537,380.905,360.811,380.781,360.82z"/>
					</g>
				</g>
			</g>
			<g>
				<g>
					<g>
						<path style="fill:#263238;" d="M362.256,341.347c0.003-0.062,0.967-0.087,2.524-0.076c1.556,0.011,3.704,0.056,6.075,0.135
							c2.372,0.078,4.518,0.175,6.072,0.267c1.553,0.092,2.514,0.18,2.513,0.243c-0.001,0.062-0.964,0.087-2.52,0.076
							c-1.556-0.011-3.706-0.057-6.08-0.135c-2.373-0.079-4.521-0.175-6.074-0.267C363.212,341.497,362.253,341.409,362.256,341.347
							z"/>
					</g>
				</g>
			</g>
		</g>
		<g>
			<g>
				<g>
					<path style="fill:#263238;" d="M397.979,393.181c-0.016,0-0.034-0.173-0.054-0.504c-0.017-0.379-0.039-0.858-0.066-1.448
						c-0.057-1.257-0.07-3.079-0.021-5.329c0.041-2.251,0.194-4.928,0.464-7.894c0.293-2.963,0.717-6.212,1.325-9.596
						c0.624-3.383,1.372-6.576,2.142-9.456c0.792-2.875,1.593-5.44,2.348-7.566c0.748-2.128,1.403-3.833,1.899-4.994
						c0.233-0.544,0.423-0.986,0.573-1.336c0.136-0.303,0.214-0.46,0.228-0.454c0.014,0.006-0.035,0.173-0.144,0.487
						c-0.129,0.357-0.292,0.809-0.493,1.365c-0.446,1.178-1.053,2.896-1.761,5.031c-0.715,2.133-1.482,4.699-2.249,7.57
						c-0.745,2.876-1.478,6.06-2.1,9.431c-0.605,3.372-1.04,6.607-1.355,9.558c-0.293,2.953-0.478,5.621-0.559,7.864
						c-0.089,2.243-0.125,4.061-0.122,5.317c-0.007,0.589-0.013,1.069-0.018,1.448C398.007,393.006,397.994,393.181,397.979,393.181
						z"/>
				</g>
			</g>
		</g>
		<g>
			<g>
				<g>
					<path style="fill:#263238;" d="M399.964,368.543c0.042,0.044-0.527,0.677-1.501,1.648c-0.974,0.971-2.356,2.274-3.933,3.657
						c-1.578,1.383-3.051,2.583-4.141,3.421c-1.09,0.839-1.792,1.32-1.83,1.272c-0.04-0.05,0.592-0.619,1.628-1.519
						c1.156-1.004,2.529-2.196,4.046-3.513c1.504-1.331,2.865-2.536,4.012-3.551C399.272,369.048,399.919,368.497,399.964,368.543z"
						/>
				</g>
			</g>
		</g>
		<g>
			<g>
				<g>
					<path style="fill:#263238;" d="M411.875,378.137c-0.054,0.034-0.651-0.822-1.599-2.215c-1.029-1.501-2.306-3.365-3.719-5.427
						c-1.442-2.042-2.746-3.888-3.796-5.374c-0.976-1.372-1.571-2.23-1.52-2.269c0.048-0.037,0.732,0.752,1.776,2.078
						c1.044,1.326,2.44,3.193,3.911,5.307c1.47,2.114,2.736,4.072,3.616,5.511C411.425,377.189,411.926,378.105,411.875,378.137z"/>
				</g>
			</g>
		</g>
		<g>
			<g>
				<g>
					<path style="fill:#263238;" d="M405.635,347.962c0.067,0.105-3.889,2.769-8.836,5.949c-4.949,3.181-9.014,5.675-9.081,5.57
						c-0.067-0.105,3.888-2.768,8.837-5.949C401.502,350.351,405.568,347.857,405.635,347.962z"/>
				</g>
			</g>
		</g>
		<g>
			<g>
				<g>
					<path style="fill:#263238;" d="M416.792,360.004c-0.087,0.089-2.767-2.387-5.985-5.53c-3.219-3.144-5.757-5.764-5.67-5.853
						c0.087-0.089,2.766,2.387,5.985,5.531C414.34,357.294,416.879,359.915,416.792,360.004z"/>
				</g>
			</g>
		</g>
		<g>
			<g>
				<g>
					<path style="fill:#00594c;" d="M419.598,359.762l3.397-0.281c2.41-0.2,4.751-0.913,6.859-2.1
						c1.042-0.586,2.089-1.161,3.197-1.606c4.199-1.686,8.885-1.384,13.404-1.611c7.376-0.37,14.675-2.236,21.324-5.453
						c0.384-0.186,0.724-0.469,0.929-0.843c0.698-1.271-0.598-2.403-1.714-3.09c-5.722-3.526-11.547-7.097-18.036-8.847
						c-6.49-1.75-13.856-1.454-19.393,2.356C423.064,342.761,420.696,351.949,419.598,359.762"/>
				</g>
			</g>
			<g>
				<g>
					<g>
						<path style="fill:#263238;" d="M468.784,347.452c-0.008,0.014-0.206-0.079-0.576-0.268c-0.407-0.213-0.942-0.493-1.61-0.843
							c-1.396-0.734-3.406-1.818-5.946-3.036c-2.542-1.205-5.621-2.565-9.204-3.547c-3.568-0.991-7.685-1.51-11.93-0.967
							c-4.227,0.557-8.12,2.202-10.875,4.67c-2.773,2.46-4.467,5.43-5.663,7.954c-1.193,2.546-1.929,4.712-2.464,6.193
							c-0.251,0.71-0.452,1.28-0.605,1.713c-0.141,0.391-0.223,0.594-0.238,0.589s0.038-0.217,0.151-0.617
							c0.133-0.44,0.307-1.019,0.525-1.741c0.485-1.501,1.175-3.688,2.341-6.271c1.169-2.56,2.854-5.595,5.677-8.132
							c2.807-2.546,6.79-4.241,11.092-4.806c4.317-0.554,8.501-0.011,12.099,1.013c3.615,1.015,6.7,2.415,9.233,3.661
							c2.531,1.259,4.52,2.387,5.891,3.169c0.651,0.38,1.173,0.685,1.57,0.917C468.608,347.319,468.791,347.438,468.784,347.452z"/>
					</g>
				</g>
			</g>
			<g>
				<g>
					<g>
						<path style="fill:#263238;" d="M460.626,351.834c-0.07,0.103-4.512-2.771-9.921-6.418c-5.411-3.649-9.74-6.689-9.67-6.793
							c0.07-0.103,4.511,2.77,9.922,6.419C456.366,348.69,460.696,351.731,460.626,351.834z"/>
					</g>
				</g>
			</g>
			<g>
				<g>
					<g>
						<path style="fill:#263238;" d="M455.888,338.39c0.022,0.099-1.416,0.434-3.234,0.582c-1.819,0.152-3.3,0.058-3.298-0.043
							c0-0.107,1.464-0.182,3.26-0.333C454.411,338.45,455.866,338.285,455.888,338.39z"/>
					</g>
				</g>
			</g>
			<g>
				<g>
					<g>
						<path style="fill:#263238;" d="M436.441,335.856c0.107,0.049-0.545,1.069-1.457,2.276c-0.912,1.208-1.739,2.147-1.846,2.098
							c-0.107-0.049,0.545-1.068,1.458-2.277C435.508,336.746,436.334,335.806,436.441,335.856z"/>
					</g>
				</g>
			</g>
			<g>
				<g>
					<g>
						<path style="fill:#263238;" d="M440.422,354.451c-0.031,0.051-0.854-0.38-2.138-1.159c-1.283-0.779-3.017-1.92-4.87-3.265
							c-1.853-1.346-3.487-2.618-4.661-3.55c-1.173-0.933-1.882-1.531-1.845-1.582c0.037-0.05,0.814,0.459,2.036,1.327
							c1.333,0.968,2.948,2.142,4.734,3.44c1.847,1.341,3.544,2.518,4.779,3.363C439.692,353.869,440.456,354.395,440.422,354.451z"
							/>
					</g>
				</g>
			</g>
		</g>
		<g>
			<g>
				<g>
					<path style="fill:#00594c;" d="M424.599,374.193c-3.24-0.856-7.102,2.296-7.769,5.579c-0.668,3.284,0.564,6.642,2.006,9.667
						c3.191,6.696,7.596,12.906,13.397,17.529c5.801,4.623,13.067,7.579,20.485,7.541c-1.37-6.362,0.363-13.008-0.401-19.47
						c-0.667-5.641-3.297-11.03-7.333-15.026c-4.036-3.996-9.451-6.572-15.098-7.182
						C427.817,372.608,425.424,372.283,424.599,374.193"/>
				</g>
			</g>
			<g>
				<g>
					<g>
						<path style="fill:#263238;" d="M452.717,414.509c-0.007,0.014-0.165-0.06-0.461-0.215c-0.292-0.159-0.715-0.417-1.212-0.814
							c-1.017-0.772-2.182-2.26-3.199-4.278c-0.517-1.003-1.094-2.092-1.658-3.298c-0.547-1.21-1.13-2.499-1.743-3.853
							c-0.618-1.35-1.298-2.751-2.142-4.118c-0.84-1.369-1.84-2.707-2.948-4.009c-2.218-2.606-4.598-4.859-6.661-7.013
							c-2.074-2.145-3.818-4.211-5.079-6.093c-1.273-1.875-2.044-3.555-2.482-4.74c-0.209-0.598-0.359-1.065-0.433-1.39
							c-0.082-0.323-0.117-0.493-0.102-0.497c0.042-0.012,0.226,0.662,0.699,1.823c0.484,1.155,1.288,2.791,2.581,4.623
							c1.281,1.84,3.033,3.865,5.114,5.985c2.072,2.13,4.465,4.378,6.707,7.01c1.119,1.315,2.131,2.674,2.98,4.07
							c0.854,1.395,1.533,2.816,2.143,4.177c0.599,1.359,1.169,2.653,1.704,3.868c0.544,1.2,1.106,2.3,1.602,3.309
							c0.976,2.023,2.065,3.489,3.028,4.29C452.104,414.163,452.744,414.466,452.717,414.509z"/>
					</g>
				</g>
			</g>
			<g>
				<g>
					<g>
						<path style="fill:#263238;" d="M435.964,409.223c-0.059-0.012,0.043-0.847,0.297-2.181c0.254-1.334,0.67-3.165,1.231-5.161
							c0.563-1.996,1.164-3.775,1.644-5.046c0.48-1.271,0.829-2.036,0.885-2.015c0.061,0.022-0.182,0.826-0.583,2.119
							c-0.401,1.293-0.951,3.078-1.512,5.065c-0.559,1.986-1.022,3.796-1.354,5.108C436.24,408.423,436.028,409.236,435.964,409.223
							z"/>
					</g>
				</g>
			</g>
			<g>
				<g>
					<g>
						<path style="fill:#263238;" d="M452.103,393.607c-0.02,0.062-0.887-0.159-2.282-0.525c-1.396-0.365-3.324-0.863-5.468-1.347
							c-2.145-0.482-4.101-0.858-5.519-1.127c-1.418-0.268-2.296-0.44-2.287-0.504c0.008-0.059,0.902,0.001,2.337,0.189
							c1.435,0.189,3.41,0.517,5.567,1.002c2.156,0.486,4.081,1.037,5.458,1.481C451.288,393.222,452.121,393.551,452.103,393.607z"
							/>
					</g>
				</g>
			</g>
			<g>
				<g>
					<g>
						<path style="fill:#263238;" d="M423.942,398.144c-0.059-0.011,0.066-0.977,0.35-2.524c0.285-1.546,0.738-3.673,1.344-5.996
							c0.607-2.323,1.251-4.4,1.758-5.889c0.508-1.489,0.871-2.392,0.928-2.373c0.061,0.02-0.195,0.958-0.623,2.468
							c-0.428,1.51-1.021,3.593-1.626,5.908c-0.603,2.314-1.104,4.421-1.468,5.948C424.241,397.213,424.005,398.157,423.942,398.144
							z"/>
					</g>
				</g>
			</g>
			<g>
				<g>
					<g>
						<path style="fill:#263238;" d="M444.671,379.999c-0.013,0.124-4.058-0.204-9.032-0.731c-4.977-0.528-8.999-1.056-8.986-1.179
							c0.013-0.124,4.057,0.203,9.033,0.731C440.661,379.347,444.684,379.875,444.671,379.999z"/>
					</g>
				</g>
			</g>
		</g>
		<g>
			<g>
				<g>
					<path style="fill:#455A64;" d="M441.708,429.046c0,0.125-14.217,0.226-31.751,0.226c-17.54,0-31.754-0.101-31.754-0.226
						c0-0.124,14.214-0.225,31.754-0.225C427.491,428.821,441.708,428.922,441.708,429.046z"/>
				</g>
			</g>
		</g>
		<g>
			<g>
				<g>
					<path style="fill:#455A64;" d="M431.817,447.342c0,0.125-9.579,0.226-21.393,0.226c-11.818,0-21.395-0.101-21.395-0.226
						c0-0.124,9.577-0.225,21.395-0.225C422.237,447.116,431.817,447.217,431.817,447.342z"/>
				</g>
			</g>
		</g>
		<g>
			<g>
				<g>
					<path style="fill:#455A64;" d="M431.445,449.957c0,0.125-9.412,0.225-21.02,0.225c-11.612,0-21.022-0.101-21.022-0.225
						c0-0.124,9.41-0.225,21.022-0.225C422.033,449.732,431.445,449.833,431.445,449.957z"/>
				</g>
			</g>
		</g>
		<g>
			<g>
				<g>
					<path style="fill:#455A64;" d="M432.19,445.185c0,0.125-9.908,0.226-22.128,0.226c-12.224,0-22.13-0.101-22.13-0.226
						c0-0.124,9.906-0.225,22.13-0.225C422.282,444.96,432.19,445.061,432.19,445.185z"/>
				</g>
			</g>
		</g>
	</g>
</g>
<g id="Numerical_Signs">
	<g>
		<g>
			<g>
				<path style="fill:#263238;" d="M427.953,59.875c-0.001,0.144-6.713,0.225-14.99,0.181c-8.28-0.044-14.99-0.196-14.989-0.34
					c0.001-0.144,6.712-0.225,14.992-0.181C421.242,59.579,427.953,59.731,427.953,59.875z"/>
			</g>
		</g>
		<g>
			<g>
				<path style="fill:#263238;" d="M413.115,74.784c-0.144,0.001-0.328-6.709-0.412-14.986c-0.084-8.28-0.035-14.991,0.109-14.993
					c0.144-0.001,0.328,6.707,0.412,14.987C413.307,68.07,413.258,74.783,413.115,74.784z"/>
			</g>
		</g>
	</g>
	<g>
		<g>
			<g>
				<path style="fill:#263238;" d="M443.763,283.685c-0.065,0.128-4.185-1.846-9.201-4.408c-5.017-2.563-9.03-4.744-8.965-4.873
					c0.065-0.128,4.185,1.845,9.202,4.409C439.815,281.375,443.828,283.557,443.763,283.685z"/>
			</g>
		</g>
		<g>
			<g>
				<path style="fill:#263238;" d="M430.18,288.198c-0.129-0.063,1.781-4.213,4.266-9.268c2.486-5.056,4.605-9.103,4.734-9.039
					c0.129,0.063-1.781,4.212-4.266,9.269C432.429,284.214,430.309,288.262,430.18,288.198z"/>
			</g>
		</g>
	</g>
	<g>
		<g>
			<g>
				<path style="fill:#263238;" d="M84.797,213.271c0.053,0.134-4.732,2.167-10.688,4.541c-5.957,2.375-10.829,4.191-10.882,4.057
					c-0.053-0.133,4.732-2.166,10.689-4.541C79.872,214.954,84.744,213.138,84.797,213.271z"/>
			</g>
		</g>
		<g>
			<g>
				<path style="fill:#263238;" d="M73.76,206.772c-0.043,0.019-0.171-0.293-0.532-0.751c-0.356-0.45-1.011-1.046-2.007-1.301
					c-0.971-0.267-2.308-0.091-3.299,0.815c-0.996,0.867-1.499,2.496-0.914,3.927c0.559,1.442,2.046,2.278,3.365,2.222
					c1.343-0.024,2.435-0.816,2.955-1.678c0.547-0.87,0.612-1.753,0.561-2.324C73.838,207.102,73.716,206.788,73.76,206.772
					c0.021-0.011,0.211,0.278,0.331,0.884c0.116,0.593,0.113,1.555-0.447,2.541c-0.531,0.975-1.728,1.912-3.256,1.968
					c-1.498,0.094-3.221-0.85-3.864-2.509c-0.674-1.646-0.073-3.516,1.079-4.478c1.147-1.01,2.661-1.154,3.717-0.811
					c1.084,0.33,1.748,1.026,2.072,1.537C73.722,206.424,73.783,206.765,73.76,206.772z"/>
			</g>
		</g>
		<g>
			<g>
				<path style="fill:#263238;" d="M81.258,225.581c-0.044,0.019-0.171-0.293-0.532-0.751c-0.356-0.449-1.011-1.046-2.007-1.301
					c-0.971-0.267-2.308-0.091-3.299,0.815c-0.996,0.867-1.499,2.496-0.914,3.927c0.56,1.442,2.046,2.278,3.365,2.222
					c1.343-0.024,2.435-0.816,2.955-1.678c0.547-0.87,0.612-1.753,0.561-2.324C81.335,225.911,81.213,225.597,81.258,225.581
					c0.021-0.011,0.211,0.279,0.331,0.884c0.116,0.593,0.113,1.555-0.447,2.54c-0.531,0.975-1.728,1.912-3.256,1.968
					c-1.498,0.094-3.221-0.85-3.864-2.509c-0.674-1.646-0.073-3.516,1.079-4.478c1.147-1.01,2.661-1.154,3.717-0.812
					c1.084,0.33,1.748,1.027,2.072,1.537C81.219,225.234,81.28,225.574,81.258,225.581z"/>
			</g>
		</g>
	</g>
</g>
<g id="Speech_Bubble">
	<g>
		<g>
			<g>
				<path style="fill:#263238;" d="M140.711,109.322c0,0,0.113,0.268,0.304,0.789c0.194,0.539,0.47,1.309,0.829,2.31
					c0.721,2.046,1.773,5.032,3.127,8.874l0.065,0.185l-0.195-0.026c-3.543-0.482-7.892-1.073-12.88-1.751l0.124-0.033
					c-3.932,3.089-9.187,5.759-15.41,6.727c-1.549,0.251-3.152,0.395-4.79,0.411c-0.819,0.022-1.645-0.063-2.481-0.09
					c-0.418-0.021-0.837-0.041-1.259-0.062c-0.42-0.037-0.838-0.119-1.26-0.177c-3.389-0.395-6.821-1.453-10.104-3.044
					c-3.284-1.591-6.423-3.765-9.171-6.495c-2.729-2.745-5.045-6.045-6.734-9.732c-3.399-7.354-4.107-16.361-1.352-24.629
					c2.381-7.383,7.456-13.514,13.501-17.528c3.025-2.039,6.382-3.414,9.75-4.333l1.269-0.325l0.632-0.161l0.643-0.098
					c0.856-0.13,1.708-0.259,2.555-0.388c0.853-0.071,1.705-0.093,2.55-0.141c0.845-0.075,1.685-0.024,2.52,0.026
					c0.833,0.067,1.67,0.032,2.483,0.183c0.816,0.125,1.627,0.25,2.432,0.374c0.804,0.13,1.576,0.385,2.358,0.57l1.163,0.301
					c0.379,0.123,0.749,0.27,1.121,0.404c3.022,0.975,5.713,2.533,8.175,4.178c4.839,3.454,8.488,7.829,10.704,12.367
					c2.273,4.518,3.279,9.066,3.514,13.054c0.312,4.003-0.241,7.461-0.916,10.186c-0.693,2.733-1.564,4.753-2.201,6.087
					c-0.325,0.666-0.586,1.167-0.773,1.49C140.82,109.152,140.711,109.322,140.711,109.322s0.073-0.173,0.244-0.514
					c0.176-0.342,0.421-0.848,0.729-1.519c0.604-1.344,1.441-3.367,2.099-6.091c0.64-2.716,1.159-6.152,0.822-10.119
					c-0.26-3.952-1.282-8.448-3.551-12.906c-2.212-4.477-5.837-8.785-10.623-12.18c-2.436-1.616-5.094-3.147-8.078-4.1
					c-0.368-0.131-0.733-0.275-1.107-0.396l-1.147-0.293c-0.771-0.18-1.533-0.431-2.326-0.557c-0.794-0.12-1.594-0.241-2.398-0.363
					c-0.802-0.148-1.628-0.11-2.449-0.175c-0.823-0.048-1.651-0.097-2.485-0.021c-0.832,0.049-1.673,0.072-2.513,0.143
					c-0.834,0.128-1.673,0.257-2.517,0.386l-0.633,0.097l-0.622,0.16l-1.25,0.322c-3.317,0.91-6.622,2.267-9.598,4.279
					c-5.949,3.96-10.944,9.997-13.286,17.266c-2.712,8.139-2.02,17.009,1.319,24.253c1.659,3.633,3.935,6.887,6.62,9.597
					c2.704,2.694,5.793,4.843,9.028,6.419c3.233,1.576,6.615,2.629,9.958,3.028c0.416,0.058,0.828,0.141,1.243,0.179
					c0.416,0.022,0.83,0.043,1.243,0.064c0.825,0.029,1.64,0.116,2.449,0.097c1.618-0.01,3.202-0.147,4.732-0.389
					c6.15-0.933,11.358-3.547,15.269-6.583l0.056-0.043l0.069,0.01c4.983,0.713,9.328,1.334,12.867,1.841l-0.13,0.158
					c-1.31-3.876-2.328-6.887-3.026-8.95c-0.333-1.004-0.589-1.776-0.768-2.317C140.781,109.587,140.711,109.322,140.711,109.322z"
					/>
			</g>
		</g>
		<g>
			<g>
				<g>
					<g>
						<path style="fill:#00594c;" d="M113.163,85.42c0.449,0.216,0.758,0.675,0.759,1.206l-0.001,6.66
							c0,0.419-0.196,0.814-0.53,1.066c-0.334,0.253-0.767,0.335-1.17,0.221c-1.057-0.298-2.246-0.117-3.26,0.5
							c-0.934,0.567-1.582,1.432-1.777,2.376c-0.196,0.94,0.052,2,0.68,2.91c0.672,0.973,1.697,1.654,2.748,1.821
							c2.146,0.341,4.545-1.21,5.238-3.388c0.224-0.704,0.976-1.092,1.68-0.868c0.715,0.23,1.093,0.977,0.869,1.68
							c-1.09,3.423-4.772,5.764-8.208,5.218c-1.781-0.283-3.434-1.356-4.528-2.943c-1.041-1.508-1.441-3.32-1.098-4.973
							c0.346-1.667,1.442-3.168,3.008-4.118c1.132-0.687,2.411-1.037,3.674-1.027l-0.001-5.133c0-0.739,0.599-1.337,1.338-1.337
							C112.792,85.289,112.988,85.336,113.163,85.42z"/>
					</g>
				</g>
			</g>
			<g>
				<g>
					<g>
						<path style="fill:#00594c;" d="M111.321,82.62c-0.015-0.604,0.462-1.106,1.066-1.122c0.604-0.015,1.106,0.462,1.121,1.066
							c0.015,0.604-0.462,1.106-1.066,1.122C111.839,83.701,111.337,83.224,111.321,82.62z"/>
					</g>
				</g>
			</g>
		</g>
	</g>
</g>
</svg>
