<?xml version="1.0" encoding="utf-8"?>
<!-- Generator: Adobe Illustrator 27.5.0, SVG Export Plug-In . SVG Version: 6.00 Build 0)  -->
<svg version="1.1" xmlns="http://www.w3.org/2000/svg" xmlns:xlink="http://www.w3.org/1999/xlink" x="0px" y="0px"
	 viewBox="0 0 500 500" style="enable-background:new 0 0 500 500;" xml:space="preserve">
<g id="Background_Complete">
	<g>
		<rect y="382.398" style="fill:#EBEBEB;" width="500" height="0.25"/>
		<rect x="332.111" y="389.208" style="fill:#EBEBEB;" width="97.597" height="0.25"/>
		<rect x="289" y="394.986" style="fill:#EBEBEB;" width="46.667" height="0.25"/>
		<rect x="430.709" y="398.494" style="fill:#EBEBEB;" width="19.192" height="0.25"/>
		<rect x="126.473" y="395.111" style="fill:#EBEBEB;" width="92.527" height="0.25"/>
		<rect x="97.667" y="395.111" style="fill:#EBEBEB;" width="19.903" height="0.25"/>
		<rect x="57.792" y="390.888" style="fill:#EBEBEB;" width="32.862" height="0.25"/>
		<path style="fill:#EBEBEB;" d="M237.014,337.8H43.915c-3.147,0-5.708-2.561-5.708-5.708V60.66c0-3.147,2.561-5.708,5.708-5.708
			h193.099c3.146,0,5.707,2.561,5.707,5.708v271.432C242.721,335.239,240.16,337.8,237.014,337.8z M43.915,55.203
			c-3.01,0-5.458,2.448-5.458,5.458v271.432c0,3.01,2.448,5.458,5.458,5.458h193.099c3.009,0,5.457-2.448,5.457-5.458V60.66
			c0-3.009-2.448-5.458-5.457-5.458H43.915z"/>
		<path style="fill:#EBEBEB;" d="M453.31,337.8H260.212c-3.147,0-5.707-2.561-5.707-5.708V60.66c0-3.147,2.561-5.708,5.707-5.708
			H453.31c3.148,0,5.708,2.561,5.708,5.708v271.432C459.019,335.239,456.458,337.8,453.31,337.8z M260.212,55.203
			c-3.009,0-5.457,2.448-5.457,5.458v271.432c0,3.01,2.448,5.458,5.457,5.458H453.31c3.01,0,5.458-2.448,5.458-5.458V60.66
			c0-3.009-2.448-5.458-5.458-5.458H260.212z"/>
	</g>
	<g>
		<g>
			<polygon style="fill:#F0F0F0;" points="391.073,373.195 89.034,373.195 71.023,168.31 373.062,168.31 			"/>
			<polygon style="fill:#E0E0E0;" points="83.697,379.721 89.034,373.195 71.023,168.31 65.695,174.937 			"/>
			<path style="fill:#FAFAFA;" d="M93.025,365.416L76.434,176.685c-0.175-1.989,1.392-3.7,3.389-3.7h285.859
				c1.763,0,3.234,1.347,3.389,3.104l16.591,188.731c0.175,1.989-1.392,3.7-3.389,3.7H96.414
				C94.651,368.52,93.18,367.172,93.025,365.416z"/>
			<polygon style="fill:#E0E0E0;" points="131.486,373.195 85.979,373.195 82.761,382.398 128.268,382.398 			"/>
			<polygon style="fill:#F5F5F5;" points="131.486,373.195 430.709,373.195 427.49,382.398 128.268,382.398 			"/>
			<polygon style="fill:#E0E0E0;" points="254.702,373.195 312.06,373.195 311.443,379.221 254.085,379.221 			"/>
		</g>
		<g>
			<path style="fill:#E0E0E0;" d="M341.617,154.864h72.47c6.005,39.756-21.767,72.47-61.523,72.47
				c-12.72,0-25.725-3.349-37.701-9.709L341.617,154.864z"/>
			<path style="fill:#EBEBEB;" d="M341.617,154.864l38.197-55.515c9.134,6.802,16.936,15.298,22.856,24.888
				c5.921,9.59,9.818,20.045,11.416,30.627H341.617z"/>
			<path style="fill:#E6E6E6;" d="M341.617,154.864l-10.947-72.47c8.454,0,17.066,1.479,25.446,4.37
				c8.381,2.891,16.401,7.15,23.697,12.584L341.617,154.864z"/>
			<path style="fill:#F0F0F0;" d="M341.617,154.864l-26.755,62.76c-24.347-12.929-41.809-36.902-45.715-62.76
				c-6.005-39.756,21.767-72.47,61.523-72.47L341.617,154.864z"/>
		</g>
		<g>
			<path style="fill:#EBEBEB;" d="M252.155,284.19h64.285c0.849,5.618,0.957,11.212,0.323,16.638
				c-0.634,5.426-2.006,10.639-4.08,15.504L252.155,284.19z"/>
			<path style="fill:#E0E0E0;" d="M252.155,284.19l1.6-63.308c15.277,2.624,29.942,10.412,41.403,21.987
				c11.461,11.575,18.999,26.212,21.282,41.322H252.155z"/>
			<path style="fill:#F0F0F0;" d="M252.155,284.19l-57.087,21.987c-3.629-7.047-6.065-14.488-7.198-21.987
				c-5.327-35.266,19.309-64.285,54.575-64.285c3.742,0,7.527,0.327,11.311,0.977L252.155,284.19z"/>
			<path style="fill:#FFFFFF;" d="M252.155,284.19l60.528,32.143c-8.469,19.865-27.879,32.142-50.817,32.142
				c-26.962,0-53.749-16.962-66.797-42.298L252.155,284.19z"/>
		</g>
	</g>
</g>
<g id="Background_Simple" style="display:none;">
	<g style="display:inline;">
		<path style="fill:#00594c;" d="M268.27,162.183c-44.6-34.325-119.542-113.329-165.326-42.13
			c-45.448,70.677,41.665,158.452,96.546,182.391c55.48,24.201,204.703,23.951,191.798-65.53
			C382.409,175.348,317.533,200.097,268.27,162.183z"/>
		<path style="opacity:0.9;fill:#FFFFFF;" d="M268.27,162.183c-44.6-34.325-119.542-113.329-165.326-42.13
			c-45.448,70.677,41.665,158.452,96.546,182.391c55.48,24.201,204.703,23.951,191.798-65.53
			C382.409,175.348,317.533,200.097,268.27,162.183z"/>
	</g>
</g>
<g id="Shadow_1_">
	<ellipse id="_x3C_Path_x3E__297_" style="fill:#F5F5F5;" cx="250" cy="416.238" rx="193.889" ry="11.323"/>
</g>
<g id="Setup_analytics">
	<g>
		<g>
			<g>
				<path style="fill:#FFFFFF;" d="M240.585,239.387H150.51c-5.716,0-10.774-4.677-11.24-10.393l-4.509-55.386
					c-0.465-5.716,3.831-10.393,9.547-10.393h90.075c5.716,0,10.774,4.677,11.239,10.393l4.509,55.386
					C250.598,234.71,246.301,239.387,240.585,239.387z"/>
				<path style="fill:#00594c;" d="M240.585,239.819H150.51c-5.951,0-11.187-4.84-11.671-10.79l-4.509-55.386
					c-0.235-2.894,0.681-5.621,2.58-7.682c1.891-2.051,4.519-3.18,7.399-3.18h90.075c5.951,0,11.186,4.841,11.671,10.791
					l4.509,55.386c0.235,2.893-0.681,5.62-2.58,7.681C246.093,238.69,243.466,239.819,240.585,239.819z M144.309,163.648
					c-2.636,0-5.038,1.031-6.762,2.901c-1.733,1.881-2.569,4.375-2.354,7.024l4.509,55.386c0.449,5.511,5.297,9.995,10.808,9.995
					h90.075c2.636,0,5.038-1.031,6.762-2.901c1.733-1.881,2.569-4.375,2.354-7.023l-4.509-55.386
					c-0.449-5.512-5.297-9.996-10.808-9.996H144.309z"/>
			</g>
			<g>
				<path style="fill:#E0E0E0;" d="M216.14,223.216c-3.532,3.846-8.097,6.608-13.24,8.02l-1.491-4.27
					c11.09-3.031,18.598-13.373,17.597-25.663c-0.597-7.336-4.109-13.979-9.307-18.786l2.872-3.127
					C225.573,191.413,227.183,211.195,216.14,223.216z"/>
				<path style="fill:#263238;" d="M212.572,179.391l-2.872,3.127c-5.198-4.807-12.083-7.778-19.419-7.778
					c-7.336,0-13.736,2.979-18.143,7.786l-3.391-3.135c5.339-5.812,12.963-9.077,21.174-9.077
					C198.14,170.314,206.288,173.579,212.572,179.391z"/>
				<path style="fill:#00594c;" d="M202.901,231.236c-10.447,2.858-22.129-0.208-30.586-8.02
					c-12.992-12.022-14.602-31.803-3.568-43.825l3.391,3.135c-4.416,4.807-6.846,11.441-6.249,18.777
					c1.194,14.663,14.053,26.555,28.717,26.555c2.373,0,4.66-0.312,6.804-0.892L202.901,231.236z"/>
			</g>
		</g>
		<g>
			<rect x="110.666" y="73.688" style="fill:#00594c;" width="7.222" height="0.865"/>
			<rect x="87.222" y="73.688" style="fill:#00594c;" width="16.444" height="0.865"/>
			<g>
				<path style="fill:#FFFFFF;" d="M180.144,153.294H90.069c-5.716,0-10.774-4.677-11.24-10.393L74.32,87.515
					c-0.465-5.716,3.831-10.393,9.547-10.393h90.075c5.716,0,10.774,4.677,11.239,10.393l4.509,55.386
					C190.156,148.617,185.86,153.294,180.144,153.294z"/>
				<path style="fill:#00594c;" d="M180.144,153.727H90.068c-5.951,0-11.187-4.841-11.671-10.791L73.889,87.55
					c-0.236-2.893,0.68-5.621,2.58-7.681c1.891-2.052,4.519-3.181,7.399-3.181h90.075c5.951,0,11.187,4.841,11.671,10.791
					l4.509,55.386c0.235,2.894-0.681,5.621-2.58,7.682C185.652,152.598,183.024,153.727,180.144,153.727z M83.867,77.554
					c-2.636,0-5.037,1.031-6.762,2.902c-1.733,1.88-2.569,4.374-2.353,7.023l4.509,55.386c0.449,5.512,5.297,9.996,10.808,9.996
					h90.076c2.635,0,5.037-1.03,6.762-2.901c1.733-1.881,2.569-4.375,2.353-7.025l-4.509-55.386
					c-0.449-5.512-5.298-9.996-10.808-9.996H83.867z"/>
			</g>
			<g>
				<polygon style="fill:#E0E0E0;" points="82.467,93.014 130.199,93.014 129.815,88.299 82.083,88.299 				"/>
				<polygon style="fill:#00594c;" points="177.931,93.014 130.199,93.014 129.815,88.299 177.547,88.299 				"/>
				<polygon style="fill:#E0E0E0;" points="83.466,105.29 97.083,105.29 96.699,100.574 83.082,100.574 				"/>
				<polygon style="fill:#00594c;" points="178.93,105.29 97.083,105.29 96.699,100.574 178.546,100.574 				"/>
				<polygon style="fill:#E0E0E0;" points="84.465,117.565 126.953,117.565 126.569,112.85 84.081,112.85 				"/>
				<polygon style="fill:#00594c;" points="179.93,117.565 126.953,117.565 126.569,112.85 179.546,112.85 				"/>
				<polygon style="fill:#E0E0E0;" points="85.465,129.841 157.977,129.841 157.593,125.125 85.081,125.125 				"/>
				<polygon style="fill:#00594c;" points="180.929,129.841 157.977,129.841 157.593,125.125 180.545,125.125 				"/>
				<polygon style="fill:#E0E0E0;" points="86.464,142.116 120.002,142.116 119.618,137.401 86.08,137.401 				"/>
				<polygon style="fill:#00594c;" points="181.928,142.116 120.002,142.116 119.618,137.401 181.544,137.401 				"/>
			</g>
		</g>
		<g>
			<g>
				<path style="fill:#FFFFFF;" d="M303.281,153.294h-90.075c-5.716,0-10.774-4.677-11.239-10.393l-4.509-55.386
					c-0.465-5.716,3.831-10.393,9.547-10.393h90.075c5.716,0,10.774,4.677,11.24,10.393l4.509,55.386
					C313.294,148.617,308.997,153.294,303.281,153.294z"/>
				<path style="fill:#00594c;" d="M303.281,153.727h-90.075c-5.951,0-11.187-4.841-11.671-10.791l-4.509-55.386
					c-0.235-2.893,0.681-5.621,2.58-7.682c1.891-2.051,4.518-3.18,7.398-3.18h90.076c5.951,0,11.186,4.841,11.671,10.791
					l4.509,55.386c0.236,2.893-0.68,5.621-2.58,7.681C308.79,152.598,306.162,153.727,303.281,153.727z M207.004,77.554
					c-2.635,0-5.037,1.03-6.762,2.901c-1.733,1.881-2.569,4.375-2.354,7.024l4.509,55.386c0.449,5.512,5.298,9.996,10.808,9.996
					h90.075c2.636,0,5.037-1.031,6.762-2.902c1.733-1.88,2.569-4.374,2.353-7.023l-4.509-55.386
					c-0.449-5.512-5.297-9.996-10.808-9.996H207.004z"/>
			</g>
			<g>
				<polygon style="fill:#E0E0E0;" points="258.129,142.116 256.539,142.116 252.157,88.299 253.747,88.299 				"/>
				<polygon style="fill:#00594c;" points="260.529,119.753 250.497,119.753 248.785,98.726 258.817,98.726 				"/>
				<polygon style="fill:#E0E0E0;" points="238.385,142.116 236.795,142.116 232.414,88.299 234.004,88.299 				"/>
				<polygon style="fill:#00594c;" points="241.166,124.423 231.134,124.423 229.633,105.992 239.665,105.992 				"/>
				<polygon style="fill:#E0E0E0;" points="218.642,142.116 217.052,142.116 212.671,88.299 214.26,88.299 				"/>
				<polygon style="fill:#263238;" points="220.188,109.259 210.156,109.259 209.126,96.605 219.158,96.605 				"/>
				<polygon style="fill:#E0E0E0;" points="277.872,142.116 276.282,142.116 271.901,88.299 273.491,88.299 				"/>
				<polygon style="fill:#263238;" points="281.244,131.689 271.212,131.689 268.529,98.726 278.56,98.726 				"/>
				<polygon style="fill:#E0E0E0;" points="297.615,142.116 296.025,142.116 291.644,88.299 293.234,88.299 				"/>
				<polygon style="fill:#00594c;" points="301.309,135.639 291.277,135.639 289.128,109.24 299.16,109.24 				"/>
			</g>
		</g>
		<g>
			<g>
				<path style="fill:#FFFFFF;" d="M206.889,324.772h-90.075c-5.716,0-10.774-4.677-11.239-10.393l-4.509-55.386
					c-0.465-5.716,3.831-10.393,9.547-10.393h90.075c5.716,0,10.774,4.677,11.239,10.393l4.509,55.386
					C216.902,320.095,212.605,324.772,206.889,324.772z"/>
				<path style="fill:#00594c;" d="M206.889,325.204h-90.075c-5.951,0-11.187-4.84-11.671-10.79l-4.509-55.386
					c-0.235-2.893,0.681-5.621,2.58-7.682c1.891-2.051,4.519-3.18,7.399-3.18h90.075c5.951,0,11.186,4.841,11.671,10.791
					l4.509,55.386c0.236,2.892-0.68,5.62-2.579,7.681C212.398,324.075,209.77,325.204,206.889,325.204z M110.613,249.032
					c-2.636,0-5.038,1.031-6.762,2.901c-1.733,1.881-2.569,4.375-2.354,7.024l4.509,55.386c0.449,5.511,5.298,9.995,10.808,9.995
					h90.075c2.636,0,5.038-1.031,6.762-2.902c1.733-1.88,2.569-4.374,2.353-7.022l-4.509-55.386
					c-0.449-5.512-5.297-9.996-10.808-9.996H110.613z"/>
			</g>
			<g>
				<polygon style="fill:#00594c;" points="122.799,285.364 142.213,307.794 164.476,273.453 178.244,291.199 181.603,286.017 
					204.107,312.989 117.675,312.956 				"/>
				<polygon style="fill:#E0E0E0;" points="187.609,286.756 178.586,306.077 149.807,260.383 136.255,289.401 131.913,282.506 
					117.677,312.988 204.104,312.945 				"/>
			</g>
		</g>
	</g>
</g>
<g id="Character_1_">
	<g>
		<path style="fill:#00594c;" d="M372.88,159.06c2.409,4.521,4.479,8.989,6.428,13.643c1.9,4.656,3.657,9.386,5.03,14.384
			c0.35,1.24,0.654,2.519,0.944,3.804c0.115,0.436,0.398,1.828,0.396,2.712c0.046,0.982-0.03,1.867-0.152,2.713
			c-0.542,3.325-1.706,5.873-2.974,8.281c-2.591,4.767-5.715,8.717-9.348,12.448c-1.09,1.119-2.881,1.143-4,0.053
			c-0.914-0.89-1.097-2.247-0.54-3.324l0.071-0.135c2.144-4.139,4.267-8.506,5.701-12.65c0.69-2.053,1.238-4.154,1.235-5.701
			c-0.012-0.369-0.023-0.709-0.079-0.945c-0.023-0.123-0.046-0.234-0.085-0.295l-0.185-0.588c-0.334-1.077-0.676-2.155-1.076-3.241
			c-1.514-4.342-3.387-8.702-5.332-13.027c-1.938-4.312-4.022-8.697-6.083-12.865l-0.042-0.085c-1.388-2.808-0.237-6.21,2.571-7.599
			C368.113,155.281,371.442,156.37,372.88,159.06z"/>
		<path style="fill:#7F3E3B;" d="M369.751,213.213l-4.772,1.503l5.617,6.577c0,0,2.168-1.908,2.949-4.67
			c0.264-0.932-0.122-1.929-0.907-2.496l-0.796-0.576C371.238,213.114,370.462,212.989,369.751,213.213z"/>
		<polygon style="fill:#7F3E3B;" points="358.404,218.77 364.423,223.546 370.596,221.292 364.979,214.716 		"/>
		<path style="fill:#263238;" d="M337.85,125.613c-0.12,0.592-0.531,1.007-0.918,0.929c-0.387-0.079-0.603-0.622-0.482-1.214
			c0.12-0.592,0.531-1.007,0.918-0.929C337.755,124.479,337.971,125.022,337.85,125.613z"/>
		<path style="fill:#630F0F;" d="M337.374,126.632c0,0-2.039,3.14-3.855,4.486c0.848,1.19,2.718,1.105,2.718,1.105L337.374,126.632z
			"/>
		<path style="fill:#263238;" d="M340.684,122.768c0.086,0,0.173-0.031,0.241-0.094c0.144-0.133,0.153-0.357,0.019-0.501
			c-1.331-1.441-2.947-1.185-3.016-1.173c-0.193,0.033-0.323,0.216-0.29,0.409c0.033,0.193,0.218,0.321,0.408,0.29l0,0
			c0.053-0.008,1.316-0.194,2.378,0.955C340.494,122.73,340.589,122.768,340.684,122.768z"/>
		<path style="fill:#7F3E3B;" d="M354.28,136.381c-1.074,5.476-1.721,13.062,2.109,16.716c0,0-1.497,5.554-11.672,5.554
			c-11.188,0-5.382-4.875-5.382-4.875c4.65-1.443,4.61-6.741,3.546-10.995L354.28,136.381z"/>
		<path style="fill:#00594c;" d="M337.374,152.921c0,0,1.631-3.866,3.298-4.532c1.667-0.667,12.278-2.411,14.722-0.872
			c2.444,1.539,4.095,6.484,4.095,6.484L337.374,152.921z"/>
		<path style="fill:#00594c;" d="M348.588,408.979c-0.961,0-1.888-0.132-2.199-0.564c-0.109-0.151-0.194-0.408,0.015-0.775
			c0.117-0.206,0.306-0.345,0.562-0.415c1.246-0.339,3.861,1.152,3.972,1.216c0.064,0.037,0.099,0.11,0.087,0.182
			c-0.012,0.073-0.068,0.131-0.14,0.145C350.407,408.864,349.483,408.979,348.588,408.979z M347.401,407.527
			c-0.125,0-0.24,0.013-0.343,0.041c-0.164,0.044-0.277,0.126-0.347,0.248c-0.125,0.22-0.08,0.329-0.034,0.392
			c0.348,0.484,2.24,0.495,3.632,0.298C349.615,408.15,348.276,407.527,347.401,407.527z"/>
		<path style="fill:#00594c;" d="M350.849,408.772c-0.025,0-0.049-0.005-0.073-0.016c-0.904-0.405-2.693-2.024-2.556-2.87
			c0.032-0.199,0.173-0.446,0.66-0.496c0.364-0.037,0.693,0.066,0.983,0.304c0.952,0.782,1.154,2.798,1.162,2.884
			c0.006,0.063-0.022,0.124-0.073,0.161C350.922,408.761,350.886,408.772,350.849,408.772z M349.023,405.738
			c-0.035,0-0.071,0.002-0.106,0.005c-0.319,0.032-0.339,0.158-0.346,0.199c-0.082,0.508,1.134,1.78,2.056,2.334
			c-0.096-0.589-0.363-1.795-0.988-2.308C349.451,405.813,349.248,405.738,349.023,405.738z"/>
		<polygon style="fill:#7F3E3B;" points="359.08,408.595 351.595,408.595 350.849,391.261 358.334,391.261 		"/>
		<path style="fill:#263238;" d="M351.644,407.728h8.174c0.306,0,0.571,0.212,0.637,0.511l1.479,6.653
			c0.153,0.69-0.371,1.343-1.077,1.331c-2.949-0.05-7.209-0.223-10.915-0.223c-4.333,0-4.858,0.236-9.939,0.236
			c-3.073,0-3.926-3.107-2.639-3.388c5.855-1.281,7.418-1.418,12.478-4.538C350.391,407.972,350.998,407.728,351.644,407.728z"/>
		<path style="fill:#263238;" d="M369.791,153.123c7.015,1.608,11.644,20.54,11.644,20.54l-11.713,8.799
			c0,0-6.39-3.959-8.691-12.917C358.62,160.158,362.619,151.479,369.791,153.123z"/>
		<path style="opacity:0.2;" d="M363.779,166.293c3.81,3.77,6.273,9.721,6.568,15.691l-0.621,0.479c0,0-6.395-3.965-8.698-12.92
			c-0.143-0.56-0.265-1.121-0.367-1.671L363.779,166.293z"/>
		<g>
			<g>
				
					<rect x="344.443" y="191.02" transform="matrix(0.9286 -0.3711 0.3711 0.9286 -52.5517 154.4456)" style="fill:#00594c;" width="61.195" height="45.511"/>
				
					<rect x="344.476" y="191.187" transform="matrix(0.9286 -0.3711 0.3711 0.9286 -52.6435 154.3021)" style="opacity:0.5;fill:#FFFFFF;" width="60.296" height="45.511"/>
			</g>
			<g style="opacity:0.5;">
				
					<rect x="343.688" y="205.153" transform="matrix(0.9286 -0.3711 0.3711 0.9286 -52.1378 143.3971)" style="fill:#00594c;" width="5.709" height="4.046"/>
				
					<rect x="352.441" y="201.655" transform="matrix(0.9286 -0.3711 0.3711 0.9286 -50.2146 146.3956)" style="fill:#00594c;" width="5.709" height="4.046"/>
				
					<rect x="361.194" y="198.157" transform="matrix(0.9286 -0.3711 0.3711 0.9286 -48.2914 149.3941)" style="fill:#00594c;" width="5.709" height="4.046"/>
				
					<rect x="369.947" y="194.659" transform="matrix(0.9286 -0.3711 0.3711 0.9286 -46.3682 152.3926)" style="fill:#00594c;" width="5.709" height="4.046"/>
				
					<rect x="378.7" y="191.161" transform="matrix(0.9286 -0.3711 0.3711 0.9286 -44.445 155.3911)" style="fill:#00594c;" width="5.709" height="4.046"/>
				
					<rect x="387.453" y="187.662" transform="matrix(0.9286 -0.3711 0.3711 0.9286 -42.5223 158.3966)" style="fill:#00594c;" width="5.709" height="4.046"/>
				
					<rect x="346.167" y="211.357" transform="matrix(0.9286 -0.3711 0.3711 0.9286 -54.2628 144.7578)" style="fill:#00594c;" width="5.709" height="4.047"/>
				
					<rect x="354.92" y="207.859" transform="matrix(0.9286 -0.3711 0.3711 0.9286 -52.34 147.7589)" style="fill:#00594c;" width="5.709" height="4.047"/>
				
					<rect x="363.673" y="204.361" transform="matrix(0.9286 -0.3711 0.3711 0.9286 -50.4168 150.7573)" style="fill:#00594c;" width="5.709" height="4.047"/>
				
					<rect x="372.426" y="200.863" transform="matrix(0.9286 -0.3711 0.3711 0.9286 -48.4936 153.7558)" style="fill:#00594c;" width="5.709" height="4.046"/>
				
					<rect x="381.179" y="197.365" transform="matrix(0.9286 -0.3711 0.3711 0.9286 -46.5704 156.7543)" style="fill:#00594c;" width="5.709" height="4.047"/>
				
					<rect x="389.932" y="193.867" transform="matrix(0.9286 -0.3711 0.3711 0.9286 -44.6473 159.7528)" style="fill:#00594c;" width="5.709" height="4.046"/>
				
					<rect x="348.647" y="217.562" transform="matrix(0.9286 -0.3711 0.3711 0.9286 -56.3887 146.1236)" style="fill:#00594c;" width="5.709" height="4.046"/>
				
					<rect x="357.4" y="214.064" transform="matrix(0.9286 -0.3711 0.3711 0.9286 -54.465 149.1194)" style="fill:#00594c;" width="5.709" height="4.046"/>
				
					<rect x="366.153" y="210.566" transform="matrix(0.9286 -0.3711 0.3711 0.9286 -52.5423 152.1206)" style="fill:#00594c;" width="5.709" height="4.046"/>
				
					<rect x="374.906" y="207.068" transform="matrix(0.9286 -0.3711 0.3711 0.9286 -50.6191 155.119)" style="fill:#00594c;" width="5.709" height="4.046"/>
				
					<rect x="383.659" y="203.569" transform="matrix(0.9286 -0.3711 0.3711 0.9286 -48.6966 158.1246)" style="fill:#00594c;" width="5.709" height="4.046"/>
				
					<rect x="392.412" y="200.071" transform="matrix(0.9286 -0.3711 0.3711 0.9286 -46.7733 161.1232)" style="fill:#00594c;" width="5.709" height="4.047"/>
				
					<rect x="351.126" y="223.766" transform="matrix(0.9286 -0.3711 0.3711 0.9286 -58.5141 147.4868)" style="fill:#00594c;" width="5.709" height="4.047"/>
				
					<rect x="359.879" y="220.268" transform="matrix(0.9286 -0.3711 0.3711 0.9286 -56.5909 150.4853)" style="fill:#00594c;" width="5.709" height="4.047"/>
				
					<rect x="368.632" y="216.77" transform="matrix(0.9286 -0.3711 0.3711 0.9286 -54.6673 153.481)" style="fill:#00594c;" width="5.709" height="4.046"/>
				
					<rect x="377.385" y="213.272" transform="matrix(0.9286 -0.3711 0.3711 0.9286 -52.7445 156.4823)" style="fill:#00594c;" width="5.709" height="4.047"/>
				
					<rect x="386.138" y="209.774" transform="matrix(0.9286 -0.3711 0.3711 0.9286 -50.8213 159.4808)" style="fill:#00594c;" width="5.709" height="4.046"/>
				
					<rect x="394.891" y="206.276" transform="matrix(0.9286 -0.3711 0.3711 0.9286 -48.8981 162.4793)" style="fill:#00594c;" width="5.709" height="4.046"/>
				
					<rect x="353.606" y="229.971" transform="matrix(0.9286 -0.3711 0.3711 0.9286 -60.639 148.8473)" style="fill:#00594c;" width="5.709" height="4.046"/>
				
					<rect x="362.359" y="226.473" transform="matrix(0.9286 -0.3711 0.3711 0.9286 -58.7163 151.8485)" style="fill:#00594c;" width="5.709" height="4.046"/>
				
					<rect x="371.112" y="222.975" transform="matrix(0.9286 -0.3711 0.3711 0.9286 -56.7931 154.847)" style="fill:#00594c;" width="5.709" height="4.046"/>
				
					<rect x="379.865" y="219.476" transform="matrix(0.9286 -0.3711 0.3711 0.9286 -54.8706 157.8498)" style="fill:#00594c;" width="5.709" height="4.046"/>
				
					<rect x="388.618" y="215.978" transform="matrix(0.9286 -0.3711 0.3711 0.9286 -52.9477 160.8512)" style="fill:#00594c;" width="5.709" height="4.047"/>
				
					<rect x="397.371" y="212.48" transform="matrix(0.9286 -0.3711 0.3711 0.9286 -51.0236 163.8425)" style="fill:#00594c;" width="5.709" height="4.047"/>
				
					<rect x="356.085" y="236.175" transform="matrix(0.9286 -0.3711 0.3711 0.9286 -62.765 150.2133)" style="fill:#00594c;" width="5.709" height="4.047"/>
				
					<rect x="364.838" y="232.677" transform="matrix(0.9286 -0.3711 0.3711 0.9286 -60.8418 153.2118)" style="fill:#00594c;" width="5.709" height="4.047"/>
				
					<rect x="373.591" y="229.179" transform="matrix(0.9286 -0.3711 0.3711 0.9286 -58.9186 156.2103)" style="fill:#00594c;" width="5.709" height="4.047"/>
				
					<rect x="382.344" y="225.681" transform="matrix(0.9286 -0.3711 0.3711 0.9286 -56.9954 159.2087)" style="fill:#00594c;" width="5.709" height="4.046"/>
				
					<rect x="391.097" y="222.183" transform="matrix(0.9286 -0.3711 0.3711 0.9286 -55.0718 162.2043)" style="fill:#00594c;" width="5.709" height="4.046"/>
				
					<rect x="399.851" y="218.685" transform="matrix(0.9286 -0.3711 0.3711 0.9286 -53.149 165.2057)" style="fill:#00594c;" width="5.709" height="4.046"/>
			</g>
			<g>
				<path style="fill:#FFFFFF;" d="M390.31,194.701c-0.325-0.813,0.071-1.736,0.884-2.061c0.813-0.325,1.736,0.071,2.061,0.884
					c0.325,0.813-0.071,1.736-0.884,2.061C391.558,195.91,390.635,195.515,390.31,194.701z"/>
				<path style="fill:#FFFFFF;" d="M388.995,216.813c-0.325-0.813,0.071-1.736,0.884-2.061c0.813-0.325,1.736,0.071,2.061,0.884
					c0.325,0.813-0.071,1.736-0.884,2.061C390.243,218.022,389.32,217.626,388.995,216.813z"/>
				<path style="fill:#FFFFFF;" d="M369.01,217.604c-0.325-0.813,0.071-1.736,0.884-2.061c0.813-0.325,1.736,0.071,2.061,0.884
					c0.325,0.813-0.071,1.736-0.884,2.061C370.258,218.814,369.335,218.418,369.01,217.604z"/>
				<path style="fill:#FFFFFF;" d="M356.463,237.01c-0.325-0.813,0.071-1.736,0.884-2.061c0.813-0.325,1.736,0.071,2.061,0.884
					c0.325,0.813-0.071,1.736-0.884,2.061C357.711,238.219,356.788,237.823,356.463,237.01z"/>
				<path style="fill:#FFFFFF;" d="M357.935,237.009c-0.109,0-0.22-0.03-0.319-0.095c-0.273-0.176-0.351-0.54-0.174-0.813
					l12.547-19.405c0.104-0.16,0.279-0.261,0.47-0.268l19.454-0.771l1.282-21.58c0.02-0.323,0.306-0.565,0.622-0.552
					c0.324,0.02,0.571,0.298,0.552,0.622l-1.314,22.111c-0.018,0.302-0.262,0.54-0.564,0.552l-19.681,0.78l-12.381,19.149
					C358.317,236.914,358.128,237.009,357.935,237.009z"/>
			</g>
		</g>
		<path style="fill:#263238;" d="M325.461,160.628c-1.53,8.086-2.487,24.692,1.955,57.576h40.034
			c-0.723-5.703-3.586-36.124,2.342-65.081c0,0-6.862-1.377-13.402-1.692c-5.115-0.247-12.521-0.41-17.018,0.001
			c-1.877,0.171-3.72,0.442-5.361,0.733C329.681,152.93,326.278,156.308,325.461,160.628z"/>
		<path style="opacity:0.2;" d="M331.757,173.08l-7.52,0.6c-0.27,9.73,0.4,23.93,3.18,44.52h0.36
			C332.287,203.37,338.267,182.17,331.757,173.08z"/>
		<g>
			<polygon style="opacity:0.2;" points="350.851,391.266 351.234,400.2 358.722,400.2 358.339,391.266 			"/>
		</g>
		<path style="fill:#7F3E3B;" d="M357.838,128.37c-1.923,7.175-2.684,11.473-7.112,14.456c-6.66,4.488-14.953-0.663-15.212-8.268
			c-0.234-6.845,2.95-17.429,10.65-18.875C353.751,114.258,359.761,121.195,357.838,128.37z"/>
		<path style="fill:#263238;" d="M341.039,128.417l-3.889,1.011l3.619-9.386c-0.392-0.716-1.423-3.978-0.333-7.24
			c0.287-0.86,1.077-1.442,1.983-1.46c8.062-0.157,16.487,4.369,20.735,7.79c0.818,0.659,1.018,1.82,0.471,2.716
			c-0.93,1.522-2.134,2.687-3.651,4.231c-0.08,2.628-4.371,14.503-6.746,15.836c-2.375,1.333-6.917,0.792-8.125-1.375
			C343.894,138.375,339.81,135.5,341.039,128.417z"/>
		<path style="fill:#7F3E3B;" d="M344.638,128.566c-0.437,1.896-1.63,3.548-2.898,4.547c-1.908,1.502-3.401,0.116-3.322-2.092
			c0.071-1.987,1.148-5.162,3.28-5.808C343.798,124.576,345.138,126.398,344.638,128.566z"/>
		<path style="fill:#00594c;" d="M413.082,406.395c-0.006-0.961,0.12-1.889,0.55-2.203c0.15-0.11,0.407-0.197,0.775,0.01
			c0.207,0.116,0.347,0.304,0.418,0.559c0.347,1.244-1.127,3.869-1.19,3.98c-0.036,0.064-0.109,0.099-0.182,0.088
			c-0.073-0.011-0.131-0.067-0.146-0.139C413.208,408.213,413.088,407.29,413.082,406.395z M414.526,405.199
			c-0.001-0.125-0.014-0.24-0.043-0.342c-0.046-0.163-0.127-0.276-0.25-0.346c-0.221-0.124-0.33-0.077-0.392-0.032
			c-0.482,0.351-0.481,2.243-0.275,3.634C413.918,407.416,414.531,406.073,414.526,405.199z"/>
		<path style="fill:#00594c;" d="M413.303,408.655c0-0.025,0.005-0.049,0.015-0.073c0.4-0.906,2.007-2.706,2.854-2.574
			c0.199,0.031,0.447,0.17,0.5,0.657c0.039,0.363-0.061,0.693-0.298,0.985c-0.776,0.957-2.791,1.172-2.876,1.181
			c-0.063,0.006-0.124-0.021-0.161-0.072C413.315,408.727,413.303,408.691,413.303,408.655z M416.326,406.809
			c0-0.035-0.002-0.071-0.006-0.106c-0.034-0.319-0.16-0.338-0.202-0.345c-0.508-0.079-1.773,1.145-2.321,2.071
			c0.588-0.1,1.793-0.374,2.302-1.003C416.253,407.237,416.327,407.034,416.326,406.809z"/>
		<polygon style="fill:#7F3E3B;" points="413.416,408.704 406.112,409.221 402.009,391.749 409.313,391.232 		"/>
		<path style="fill:#263238;" d="M413.392,407.026l-8.142-0.721c-0.305-0.027-0.587,0.161-0.68,0.453l-2.059,6.497
			c-0.213,0.673,0.251,1.371,0.955,1.421c2.941,0.21,7.201,0.413,10.892,0.74c4.316,0.382,1.521,0.372,6.583,0.82
			c3.061,0.271,4.184-2.748,2.928-3.142c-5.72-1.792-6.755-3.03-8.732-5.329C414.715,407.276,414.035,407.083,413.392,407.026z"/>
		<g>
			<polygon style="opacity:0.2;" points="402.012,391.754 404.125,400.76 411.432,400.243 409.319,391.236 			"/>
		</g>
		<path style="fill:#00594c;" d="M341.617,218.203c0,0,17.217,57.493,23.75,78.834c7.153,23.371,34.372,100.904,34.372,100.904
			l13.197-2.901c0,0-18.644-66.615-26.375-99.207c-5.939-25.035-19.111-77.63-19.111-77.63H341.617z"/>
		<path style="fill:#263238;" d="M397.421,393.86c-0.06,0.007,1.298,5.155,1.298,5.155l15.874-1.705l-0.072-4.717L397.421,393.86z"
			/>
		<path style="opacity:0.3;" d="M351.154,244.849c9.526,1.256,13.32,34.457,14.747,53.941c-0.181-0.617-0.371-1.203-0.537-1.756
			c-3.565-11.652-10.316-34.106-15.714-52.079C350.097,244.807,350.606,244.775,351.154,244.849z"/>
		<path style="fill:#00594c;" d="M327.416,218.203c0,0,5.775,55.993,8.262,78.788c2.587,23.71,12.3,101.479,12.3,101.479h12.68
			c0,0-1.537-76.35-2.048-99.667c-0.557-25.419-4.878-80.6-4.878-80.6H327.416z"/>
		<path style="fill:#263238;" d="M346.005,393.42c-0.059,0,0.715,5.264,0.715,5.264h15.424l0.417-4.698L346.005,393.42z"/>
		<g>
			<path style="fill:#263238;" d="M273.266,270.884c6.608,10.482,20.466,13.621,30.948,7.013
				c10.482-6.609,13.623-20.464,7.014-30.946s-20.465-13.625-30.947-7.017C269.799,246.542,266.658,260.401,273.266,270.884z
				 M308.225,248.844c5.562,8.823,2.919,20.486-5.904,26.049c-8.825,5.564-20.489,2.92-26.051-5.903
				c-5.564-8.826-2.92-20.489,5.905-26.053C290.998,237.375,302.661,240.018,308.225,248.844z"/>
			<path style="opacity:0.2;fill:#00594c;" d="M309.127,262.743c-2.113,9.322-11.384,15.166-20.705,13.053
				c-9.324-2.113-15.169-11.384-13.056-20.706c2.113-9.324,11.384-15.169,20.708-13.056
				C305.396,244.148,311.241,253.419,309.127,262.743z"/>
			<path style="fill:#263238;" d="M311.845,244.229l2.104,3.337c0.319,0.507,0.168,1.177-0.339,1.496l0,0
				c-0.507,0.319-1.177,0.168-1.496-0.339l-2.103-3.337c-0.32-0.507-0.168-1.177,0.339-1.496l0,0
				C310.855,243.57,311.525,243.722,311.845,244.229z"/>
			<path style="fill:#263238;" d="M325.453,234.745c-2.432,1.66-4.844,3.351-7.228,5.088c-2.382,1.739-4.744,3.511-7.036,5.392
				c-0.514,0.422-0.699,1.154-0.405,1.785c0.349,0.746,1.237,1.067,1.983,0.718c2.686-1.257,5.302-2.624,7.898-4.023
				c2.595-1.402,5.16-2.85,7.707-4.328c2.167-1.26,4.316-2.548,6.454-3.853c0.616-0.376,0.804-1.186,0.419-1.796l-1.733-2.748
				c-0.385-0.61-1.196-0.789-1.801-0.396C329.613,231.949,327.525,233.333,325.453,234.745z"/>
		</g>
		<path style="fill:#00594c;" d="M336.603,163.429c-1.223,6.003-2.537,11.985-3.901,17.953l-4.147,17.855
			c-1.341,5.82-2.491,11.724-3.543,17.71l-3.147,18.005l-0.007,0.041c-0.269,1.536-1.731,2.563-3.267,2.295
			c-1.339-0.234-2.291-1.377-2.335-2.683c-0.216-6.25-0.12-12.431,0.23-18.652c0.372-6.201,0.946-12.459,1.968-18.682
			c0.974-6.119,2.07-12.168,3.242-18.211c1.168-6.04,2.438-12.055,3.823-18.044c0.706-3.053,3.752-4.955,6.805-4.25
			C335.324,157.46,337.212,160.428,336.603,163.429z"/>
		<path style="fill:#7F3E3B;" d="M321.006,233.326c-0.506-0.535-1.267-0.758-1.984-0.587l-1.626,0.388
			c-0.833,0.199-1.457,0.891-1.568,1.74l-0.471,3.61c-0.135,1.034,0.086,2.084,0.625,2.977l2.232,3.694
			c0.588,0.778,1.573,1.145,2.526,0.943c0,0,2.328-0.494,2.328-0.494c1.459-0.31,2.329-1.814,1.87-3.233l-0.61-1.882
			C324.329,240.482,324.292,236.801,321.006,233.326z"/>
		<path style="fill:#263238;" d="M344.394,159.958c3.639,9.654-8.948,23.421-8.948,23.421l-15.927-5.268
			c0,0,1.219-13.172,6.747-20.598C333.095,148.34,341.624,152.61,344.394,159.958z"/>
	</g>
</g>
</svg>
