<svg version="1.2" xmlns="http://www.w3.org/2000/svg" viewBox="0 0 1000 1000" width="1000" height="1000"><style>.a{fill:#00594c}.b{opacity:.7;fill:#fff}.c{fill:#00594c;stroke:#263238;stroke-linecap:round;stroke-linejoin:round;stroke-width:2}.d{fill:#fff;stroke:#263238;stroke-linecap:round;stroke-linejoin:round;stroke-width:2}.e{opacity:.3;stroke:#263238;stroke-linecap:round;stroke-linejoin:round;stroke-width:2}.f{opacity:.2;stroke:#263238;stroke-linecap:round;stroke-linejoin:round;stroke-width:2}.g{fill:#263238;stroke:#263238;stroke-linecap:round;stroke-linejoin:round;stroke-width:2}.h{fill:none;stroke:#263238;stroke-linecap:round;stroke-linejoin:round;stroke-width:2}.i{opacity:.5;fill:#fff}.j{fill:#fff}.k{opacity:.6;fill:#fff;stroke:#263238;stroke-linecap:round;stroke-linejoin:round;stroke-width:2}</style><path class="a" d="m736.2 910.5c0 0 188.5-140.4 232.9-359.5 44.5-219-138.2-263.2-245.4-337.5-107.2-74.2-146.6-157.7-301.9-162.9-155.2-5.1-235.6 51.3-291.6 160.6-56.1 109.3-86 221.6-103.6 331.1-17.6 109.6-8.9 197.1 90.8 240.8 99.6 43.6 145.9 24.5 193.2 74.8 47.4 50.2 263.5 164 425.6 52.6z"/><path class="b" d="m736.2 910.5c0 0 188.5-140.4 232.9-359.5 44.5-219-138.2-263.2-245.4-337.5-107.2-74.2-146.6-157.7-301.9-162.9-155.2-5.1-235.6 51.3-291.6 160.6-56.1 109.3-86 221.6-103.6 331.1-17.6 109.6-8.9 197.1 90.8 240.8 99.6 43.6 145.9 24.5 193.2 74.8 47.4 50.2 263.5 164 425.6 52.6z"/><path class="c" d="m398.3 289.5l-153.7 89.8-10-17.2 153.7-89.7z"/><path class="d" d="m385.7 296.8l-128.5 75.1-10-17.1 128.5-75.1z"/><path class="c" d="m279.9 358.7l-22.7 13.2-10-17.1 22.7-13.3z"/><path class="e" d="m279.9 358.7l-22.7 13.2-10-17.1 22.7-13.3z"/><path class="c" d="m366.6 308l-90.3 52.8-10-17.1 90.3-52.8z"/><path class="f" d="m308.6 341.9l-32.3 18.9-10-17.1 32.3-18.9z"/><path class="c" d="m338.4 324.5l-33.9 19.8-10-17.1 33.9-19.8z"/><path class="c" d="m339.8 561.8l13.1 177.5-19.8 1.4-13-177.4z"/><path class="d" d="m340.9 576.3l10.9 148.5-19.8 1.4-10.9-148.5z"/><path class="c" d="m349.9 698.5l1.9 26.3-19.8 1.4-1.9-26.2z"/><path class="e" d="m349.9 698.5l1.9 26.3-19.8 1.4-1.9-26.2z"/><path class="c" d="m342.5 598.4l7.7 104.3-19.8 1.5-7.7-104.4z"/><path class="f" d="m347.4 665.4l2.8 37.3-19.8 1.5-2.7-37.4z"/><path class="c" d="m344.9 631l2.9 39.1-19.8 1.5-2.9-39.2z"/><path class="g" d="m808.2 581.5c-18.7 27.1-55.8 33.9-82.8 15.2-27.1-18.7-33.9-55.8-15.2-82.8 18.7-27.1 55.7-33.9 82.8-15.2 27.1 18.7 33.9 55.7 15.2 82.8z"/><path class="c" d="m810.8 577.7c-18.7 27.1-55.7 33.9-82.8 15.2-27.1-18.7-33.9-55.8-15.2-82.8 18.7-27.1 55.8-33.9 82.8-15.2 27.1 18.7 33.9 55.7 15.2 82.8z"/><path class="h" d="m810.8 577.7c-18.7 27.1-55.7 33.9-82.8 15.2-27.1-18.7-33.9-55.8-15.2-82.8 18.7-27.1 55.8-33.9 82.8-15.2 27.1 18.7 33.9 55.7 15.2 82.8z"/><path class="c" d="m803.4 572.6c-15.8 23-47.3 28.7-70.3 12.9-22.9-15.9-28.7-47.3-12.9-70.3 15.9-23 47.3-28.7 70.3-12.9 23 15.9 28.7 47.3 12.9 70.3z"/><path class="i" d="m803.4 572.6q-0.4 0.5-0.8 1.1c-28.3-35.6-61.5-50.4-83.6-56.6q0.6-1 1.2-1.9c3.8-5.5 8.5-10 13.7-13.4 16.7-11.1 39.1-11.6 56.6 0.5 17.2 11.9 24.8 32.5 20.8 51.8-1.3 6.4-3.9 12.7-7.9 18.5z"/><path class="j" d="m811.3 554.1c-26.2-31.5-56.1-45.8-77.4-52.3 16.7-11.1 39.1-11.6 56.6 0.5 17.2 11.9 24.8 32.5 20.8 51.8z"/><path class="g" d="m788.9 504.6c22.6 15.6 28.6 46.2 13.7 69.1q0.4-0.5 0.8-1.1c15.8-23 10.1-54.4-12.9-70.3-23-15.8-54.4-10.1-70.3 12.9q-0.4 0.6-0.7 1.2c16.1-22.1 46.9-27.4 69.4-11.8z"/><path class="g" d="m737.8 577.4l0.7-1.9 3.7-4.4q-6.4-4.9-7-11.2-0.6-6.2 4.9-14.6l11.5 3.4-0.7 1.9q-2.2 3.4-3.1 5.8-0.9 2.4-0.6 4 0.4 1.6 1.8 2.6 1.8 1.2 3.2 0.4 1.4-0.9 2.3-2.2 2.2-3.2 2.2-6.5 0.1-3.2-1-7.3l-1.9-7.1q-0.7-3-1-5.9-0.3-3 0.4-6 0.7-3.1 3-6.4 4.2-6.1 10.1-7.2 5.9-1 12.1 2.6l8.2-5.8-0.7 1.9-4.2 6.1q3.6 2.7 4.8 5.8 1.2 3.1 0.8 6-0.4 3-1.7 5.8-1.3 2.8-2.7 4.9l-10.8-5.6c0.2-0.3 0.6-1.7 0.8-2 0.8-1.2 1.2-1.2 1.7-2.3q1-1.9 1-3.3-0.1-1.4-1.6-2.3-1.6-1.1-3.3-0.3-1.7 0.8-2.6 2.2-2.1 3-1.9 6 0.3 3 1 6l1.7 6.8q0.9 3.5 1.1 7 0.3 3.5-0.5 7-0.8 3.5-3.3 7.1-2.3 3.4-5.7 5.2-3.4 1.9-7.2 1.8-3.9 0-7.8-2.2l-4.4 6.5z"/><path class="c" d="m738.5 575.5l4.4-6.4q-6.4-4.9-6.9-11.1-0.6-6.2 4.8-14.6l10.8 5.3q-2.2 3.4-3.1 5.8-0.9 2.4-0.5 4 0.3 1.6 1.7 2.5 1.8 1.3 3.2 0.4 1.4-0.8 2.3-2.2 2.3-3.2 2.3-6.4 0-3.3-1.1-7.3l-1.8-7.1q-0.8-3.1-1.1-6-0.3-2.9 0.4-6 0.7-3 3-6.4 4.2-6.1 10.1-7.1 5.9-1.1 12.1 2.6l4.2-6.1 3.3 2.2-4.2 6q3.6 2.8 4.8 5.9 1.2 3 0.8 6-0.4 3-1.7 5.8-1.3 2.7-2.7 4.9l-10.7-5.7q1.5-2.3 2.5-4.2 0.9-1.9 0.9-3.3 0-1.4-1.6-2.3-1.6-1.1-3.3-0.3-1.7 0.8-2.6 2.1-2.1 3.1-1.9 6.1 0.3 3 1 5.9l1.8 6.8q0.8 3.5 1.1 7 0.2 3.5-0.6 7-0.8 3.6-3.3 7.2-2.3 3.4-5.7 5.2-3.3 1.9-7.2 1.8-3.8 0-7.8-2.2l-4.4 6.4z"/><path class="g" d="m261.4 630.9c51.9 16.4 80.8 71.7 64.4 123.6-16.3 52-71.7 80.8-123.6 64.4-51.9-16.3-80.7-71.6-64.4-123.6 16.3-51.9 71.7-80.7 123.6-64.4z"/><path class="c" d="m254.1 628.6c52 16.4 80.8 71.7 64.5 123.6-16.4 52-71.7 80.8-123.7 64.5-51.9-16.4-80.7-71.7-64.4-123.7 16.4-51.9 71.7-80.7 123.6-64.4z"/><path class="h" d="m254.1 628.6c52 16.4 80.8 71.7 64.5 123.6-16.4 52-71.7 80.8-123.7 64.5-51.9-16.4-80.7-71.7-64.4-123.7 16.4-51.9 71.7-80.7 123.6-64.4z"/><path class="c" d="m249.7 642.8c44 13.9 68.5 60.9 54.6 105-13.8 44-60.8 68.5-104.9 54.6-44-13.9-68.5-60.8-54.6-104.9 13.8-44 60.8-68.5 104.9-54.7z"/><path class="i" d="m249.7 642.8c0.7 0.3 1.4 0.5 2.1 0.8-42.5 62.2-49.8 121.9-48.7 159.9q-1.9-0.5-3.7-1.1c-10.5-3.3-19.9-8.5-27.9-15-25.6-21.1-37.3-56.3-26.7-89.9 10.4-33 39.3-55 71.8-58.1 10.8-1.1 22 0 33.1 3.4z"/><path class="j" d="m216.6 639.4c-37.1 56.8-45.2 111.1-45.1 148-25.6-21.1-37.3-56.3-26.7-89.9 10.4-33 39.3-55 71.8-58.1z"/><path class="g" d="m149.1 698.9c13.6-43.4 59.3-67.7 102.7-55.3q-1.1-0.4-2.1-0.8c-44.1-13.8-91.1 10.7-104.9 54.7-13.9 44.1 10.6 91 54.6 104.9q1.1 0.4 2.2 0.7c-42.7-14.8-66.1-60.9-52.5-104.2z"/><path class="g" d="m289.3 744.3l-3.4-0.2-8.8-3.7q-4.6 12.5-14.2 16.5-9.6 3.9-25.5-0.5l-0.3-20 3.4 0.2q6.5 1.9 10.7 2.2 4.3 0.2 6.6-1.1 2.3-1.4 3.2-4.1 1-3.5-1-5.2-2-1.8-4.6-2.6-6.1-2-11.3-0.4-5.1 1.5-11 5.2l-10.3 6.4q-4.5 2.7-9 4.6-4.4 1.9-9.6 2.3-5.2 0.4-11.6-1.7-11.7-3.6-16.2-12.4-4.6-8.8-1.9-20.4l-13.1-10.2 3.4 0.2 11.6 3.6q2.6-7 6.8-10.4 4.3-3.4 9.2-4.2 4.9-0.8 9.9-0.1 5 0.7 9.1 1.8l-3.6 19.8c-0.5-0.1-3 0-3.4-0.2-2.4-0.6-2.6-1.3-4.6-1.6q-3.4-0.7-5.6 0.1-2.2 0.7-3 3.6-0.9 3 1.2 5.3 2.1 2.3 4.7 3.1 5.9 1.9 10.5 0 4.6-1.8 8.9-4.4l9.9-6.1q5.1-3 10.5-5.1 5.4-2.2 11.4-2.6 6-0.4 12.9 1.7 6.5 2.1 11 6.5 4.6 4.4 6.4 10.5 1.8 6.2 0.3 13.4l12.3 3.9z"/><path class="c" d="m285.9 744.1l-12.2-3.9q-4.6 12.5-14.2 16.5-9.6 3.9-25.5-0.5l3.1-19.8q6.4 1.9 10.7 2.2 4.2 0.2 6.6-1.1 2.3-1.4 3.1-4.1 1.1-3.5-0.9-5.2-2-1.8-4.6-2.6-6.1-2-11.3-0.4-5.1 1.5-11 5.2l-10.3 6.4q-4.5 2.6-9 4.6-4.4 1.9-9.6 2.3-5.2 0.4-11.6-1.7-11.7-3.6-16.3-12.4-4.5-8.8-1.8-20.5l-11.7-3.6 2-6.3 11.6 3.6q2.6-7 6.8-10.4 4.3-3.4 9.2-4.2 4.9-0.8 9.9-0.1 5 0.7 9.1 1.8l-3.6 19.8q-4.5-1.2-8-1.9-3.4-0.6-5.6 0.2-2.2 0.7-3 3.6-1 3 1.2 5.3 2.1 2.3 4.7 3.1 5.9 1.9 10.5 0 4.5-1.8 8.9-4.4l9.9-6.1q5.1-3 10.5-5.1 5.4-2.2 11.4-2.6 5.9-0.4 12.8 1.7 6.6 2.1 11.1 6.5 4.6 4.4 6.4 10.5 1.8 6.1 0.3 13.4l12.3 3.9z"/><path class="g" d="m687.2 508.1c-48.7-26.7-77.1-77.1-63.5-112.7 13.6-35.6 64.1-42.8 112.8-16.2 48.7 26.6 77.1 77.1 63.5 112.7-13.7 35.6-64.2 42.8-112.8 16.2z"/><path class="c" d="m694 498.9c-48.7-26.7-77.1-77.1-63.4-112.7 13.6-35.6 64.1-42.8 112.8-16.2 48.6 26.6 77 77.1 63.4 112.7-13.6 35.6-64.1 42.8-112.8 16.2z"/><path class="c" d="m697.8 489.1c-41.4-22.6-65.5-65.4-53.9-95.6 11.6-30.2 54.4-36.4 95.7-13.7 41.3 22.6 65.4 65.4 53.9 95.6-11.6 30.2-54.4 36.3-95.7 13.7z"/><path class="i" d="m789.4 483.3c-28.3-59.2-97.2-87-140.5-99 4.9-6.6 11.7-11.5 19.9-14.5 19-7 45.2-4.1 70.8 10 34.2 18.7 56.7 51.3 56.8 79.1 0 5.8-1 11.3-2.9 16.5-1.1 2.8-2.5 5.4-4.1 7.9z"/><path class="i" d="m796.4 458.9c-28.1-50.4-86.2-76.5-127.6-89.1 19-7 45.2-4.1 70.8 10 34.2 18.7 56.7 51.3 56.8 79.1z"/><path class="h" d="m697.8 489.1c-41.4-22.6-65.5-65.4-53.9-95.6 11.6-30.2 54.4-36.4 95.7-13.7 41.3 22.6 65.4 65.4 53.9 95.6-11.6 30.2-54.4 36.3-95.7 13.7z"/><path class="g" d="m737.2 384.2c41.3 22.6 65.4 65.4 53.8 95.6q-0.5 1.4-1.2 2.8 2.2-3.3 3.7-7.2c11.5-30.2-12.6-73-53.9-95.6-40-21.9-81.4-16.9-94.5 10.9 15.3-23.8 54.3-27.2 92.1-6.5z"/><path class="g" d="m661.2 401.4l3.5-2.2 7.9 8.4q3.9-8.4 12.6-8.8 8.8-0.5 23.7 7.3l1.2 12.2-3.5 2.1q-6-3.2-10-4.5-3.9-1.4-6-0.9-2.1 0.4-2.9 2.2-0.9 2.4 1.1 4.3 1.9 1.9 4.3 3.3 5.8 3.1 10.5 3.3 4.7 0.2 10.1-1l9.3-2.2q4.1-0.8 8.2-1.1 4.1-0.2 8.9 0.9 4.8 1.1 10.8 4.4 11 6 15.5 14 4.4 8 2.3 16.2l12.8 8.2-3.5 2.1-10.9-5.9q-2.2 4.7-6 6.1-3.9 1.5-8.4 0.8-4.6-0.7-9.2-2.6-4.7-1.9-8.5-3.9l2.8-14.2c0.6 0.3 3.5-2.2 3.5-2.2 0 0 2.2 5 3.9 5.8q3.2 1.4 5.3 1.4 2 0 2.6-2 0.8-2.1-1.2-4.4-2.1-2.4-4.5-3.7-5.5-3-9.7-2.8-4.2 0.2-8.2 1l-9 2q-4.6 0.9-9.6 1.1-5 0.2-10.5-1.1-5.5-1.3-12-4.8-6.1-3.4-10.4-8-4.4-4.6-6.3-9.8-1.8-5.2-0.7-10.4l-11.5-6.3z"/><path class="c" d="m664.7 399.2l11.4 6.3q3.9-8.4 12.7-8.9 8.7-0.4 23.6 7.3l-2.3 14.4q-6-3.2-9.9-4.5-4-1.4-6.1-1-2.1 0.5-2.8 2.3-0.9 2.4 1 4.3 1.9 1.9 4.3 3.2 5.8 3.2 10.5 3.4 4.8 0.2 10.1-1.1l9.4-2.1q4.1-0.8 8.1-1.1 4.1-0.3 8.9 0.8 4.8 1.1 10.8 4.4 11 6 15.5 14.1 4.5 8 2.3 16.2l11 6-1.7 4.3-10.8-6q-2.3 4.7-6.1 6.2-3.8 1.5-8.4 0.8-4.5-0.7-9.2-2.6-4.7-1.9-8.5-3.9l2.8-14.3q4.2 2.2 7.4 3.6 3.3 1.4 5.3 1.5 2 0 2.6-2 0.8-2.1-1.2-4.5-2-2.3-4.5-3.6-5.5-3.1-9.7-2.9-4.2 0.2-8.1 1.1l-9 2q-4.7 0.9-9.7 1.1-4.9 0.2-10.5-1.1-5.5-1.3-11.9-4.8-6.1-3.4-10.5-8-4.4-4.7-6.2-9.9-1.9-5.2-0.7-10.3l-11.6-6.4z"/><path class="g" d="m505.7 150.7c-43.2 25.1-95.3 23.5-116.4-3.5-21.2-27.1-3.3-69.4 39.9-94.6 43.2-25.1 95.4-23.5 116.5 3.5 21.1 27.1 3.2 69.4-40 94.6z"/><path class="c" d="m501.8 141.1c-43.2 25.1-95.3 23.6-116.5-3.5-21.1-27.1-3.2-69.4 40-94.5 43.2-25.2 95.4-23.6 116.5 3.5 21.1 27 3.2 69.4-40 94.5z"/><path class="c" d="m496 133.7c-36.7 21.3-80.9 20-98.8-3-17.9-23-2.7-58.9 33.9-80.2 36.7-21.3 80.9-20 98.8 3 18 22.9 2.8 58.9-33.9 80.2z"/><path class="i" d="m534.1 60.2c-58.8-5.6-112.3 34.6-141.7 62.4-2.8-6.9-3.4-14.4-1.9-22.2 3.4-17.8 17.9-36.7 40.6-49.9 30.4-17.7 66-19.8 87.5-6.9 4.4 2.6 8.3 5.9 11.4 9.9q2.5 3.2 4.1 6.7z"/><path class="i" d="m518.6 43.6c-52-1.9-99.1 30.8-128.1 56.8 3.4-17.8 17.9-36.7 40.6-49.9 30.4-17.7 66-19.8 87.5-6.9z"/><path class="h" d="m496 133.7c-36.7 21.3-80.9 20-98.8-3-17.9-23-2.7-58.9 33.9-80.2 36.7-21.3 80.9-20 98.8 3 18 22.9 2.8 58.9-33.9 80.2z"/><path class="g" d="m433.4 54.4c36.6-21.3 80.9-20 98.8 3q0.9 1.1 1.6 2.2-1.6-3.2-3.9-6.1c-17.9-23-62.1-24.3-98.8-3-35.5 20.6-50.8 54.9-35.5 78-11.3-22.9 4.3-54.6 37.8-74.1z"/><path class="g" d="m411.3 121.1v-3.7l10.1-2.2q-4.6-7-0.9-13.9 3.7-7 16.6-14.9l10 4.8v3.7q-5.2 3.1-8.1 5.6-2.9 2.4-3.6 4.2-0.6 1.8 0.5 3.2 1.4 1.8 3.8 1.3 2.3-0.6 4.5-1.9 5.1-3 7.5-6.5 2.3-3.6 3.9-8.3l2.7-8.2q1.2-3.5 2.9-6.8 1.7-3.3 4.8-6.5 3.1-3.2 8.4-6.3 9.7-5.6 18-5.4 8.3 0.3 13.6 5.8l12.3-6.1v3.7l-9.7 5.6q2.6 3.9 2 7.6-0.7 3.6-3.3 6.8-2.7 3.2-6.3 5.9-3.6 2.7-7 4.7l-9.7-8.8c0.5-0.3 0-3.7 0-3.7 0 0 4.9 0.6 6.3-0.3q2.6-1.9 3.5-3.4 1-1.5-0.3-3-1.2-1.6-4-1.1-2.7 0.5-4.9 1.7-4.9 2.9-6.7 6.2-1.8 3.4-3 6.8l-2.6 7.9q-1.5 4-3.7 7.9-2.1 3.9-5.7 7.6-3.5 3.6-9.3 7-5.4 3.1-11 4.3-5.6 1.3-10.5 0.3-4.9-1-8.3-4.3l-10.3 5.9z"/><path class="c" d="m411.3 117.4l10.1-5.9q-4.6-7-0.9-13.9 3.7-7 16.6-14.9l10 8.5q-5.2 3.1-8.1 5.5-2.9 2.5-3.6 4.3-0.6 1.8 0.5 3.2 1.4 1.8 3.8 1.3 2.3-0.6 4.5-1.9 5.1-3 7.5-6.5 2.3-3.6 3.9-8.3l2.7-8.2q1.2-3.5 2.9-6.8 1.7-3.3 4.8-6.5 3.1-3.2 8.4-6.3 9.7-5.7 18-5.4 8.3 0.3 13.6 5.8l9.7-5.7 2.6 3.3-9.7 5.6q2.6 3.9 2 7.6-0.7 3.6-3.3 6.8-2.7 3.2-6.3 5.9-3.6 2.7-7 4.7l-9.7-8.8q3.7-2.2 6.3-4 2.6-1.9 3.5-3.4 1-1.5-0.3-3-1.2-1.6-4-1.1-2.7 0.5-4.9 1.7-4.9 2.9-6.7 6.2-1.8 3.4-3 6.8l-2.6 7.9q-1.5 4-3.7 7.9-2.1 3.9-5.7 7.6-3.5 3.6-9.3 7-5.4 3.1-11 4.3-5.6 1.3-10.5 0.3-4.9-1-8.3-4.3l-10.3 5.9z"/><path class="c" d="m490.1 827.8c51.2 22.3 84.2 70.3 73.8 107.3-10.4 36.9-60.4 48.7-111.7 26.4-51.2-22.3-84.3-70.4-73.8-107.3 10.4-36.9 60.4-48.8 111.7-26.4z"/><path class="k" d="m563.9 935.1c-10.4 36.9-60.5 48.7-111.7 26.4-51.2-22.3-84.3-70.3-73.8-107.3 9.2-32.7 49.5-45.7 94.1-32.8q8.7 2.5 17.6 6.4 5 2.2 9.8 4.7c45.5 23.8 73.8 68 64 102.6z"/><path class="d" d="m499.9 832.5l-15 16.9-28.1-9.1 15.7-18.9q8.7 2.5 17.6 6.4 5 2.2 9.8 4.7z"/><path class="h" d="m417 819.8l-32.6 34.2"/><path class="h" d="m431.4 817.8l-31.5 32.2"/><path class="h" d="m450.4 817.8l-32.6 34.2"/><path class="h" d="m551.8 879.1l-32.6 34.2"/><path class="h" d="m560.2 894.6l-32.6 34.2"/><path class="h" d="m564.9 912.1l-32.6 34.2"/><path class="h" d="m472.5 821.9l-31.6 33.7"/><path class="h" d="m500.1 833l-32.6 34.1"/><path class="h" d="m490.1 827.8c51.2 22.3 84.2 70.3 73.8 107.3-10.4 36.9-60.4 48.7-111.7 26.4-51.2-22.3-84.3-70.4-73.8-107.3 10.4-36.9 60.4-48.8 111.7-26.4z"/><path class="c" d="m484 837.6c51.3 22.3 84.3 70.4 73.9 107.3-10.5 36.9-60.5 48.8-111.7 26.4-51.2-22.3-84.3-70.3-73.8-107.2 10.4-37 60.4-48.8 111.6-26.5z"/><path class="c" d="m481.2 847.7c43.4 19 71.5 59.7 62.6 91.1-8.8 31.3-51.3 41.4-94.7 22.4-43.5-18.9-71.6-59.7-62.7-91 8.9-31.4 51.3-41.4 94.8-22.5z"/><path class="f" d="m481.2 847.7c43.4 19 71.5 59.7 62.6 91.1-8.8 31.3-51.3 41.4-94.7 22.4-43.5-18.9-71.6-59.7-62.7-91 8.9-31.4 51.3-41.4 94.8-22.5z"/><path class="h" d="m481.2 847.7c43.4 19 71.5 59.7 62.6 91.1-8.8 31.3-51.3 41.4-94.7 22.4-43.5-18.9-71.6-59.7-62.7-91 8.9-31.4 51.3-41.4 94.8-22.5z"/><path class="g" d="m451.1 956.6c-43.4-19-71.5-59.7-62.6-91.1q0.4-1.5 0.9-2.9-1.8 3.5-3 7.6c-8.9 31.3 19.2 72.1 62.7 91 42 18.4 83.1 9.5 93.8-19.5-13.2 25.3-52 32.2-91.8 14.9z"/><path class="g" d="m525.8 932.5l-3.3 2.4-8.7-7.7q-3.2 8.8-11.9 10-8.8 1.3-24.4-5.1l-2.4-12.2 3.4-2.5q6.3 2.7 10.4 3.7 4.1 1 6.2 0.4 2.1-0.6 2.6-2.6 0.7-2.4-1.4-4.2-2.1-1.7-4.6-2.8-6.1-2.7-10.9-2.4-4.8 0.2-10 1.9l-9.2 3q-4 1.2-8.1 1.9-4.1 0.6-9-0.1-4.9-0.7-11.2-3.4-11.6-5-16.8-12.7-5.2-7.6-3.8-16l-13.6-7.1 3.4-2.4 11.4 4.9q1.8-4.9 5.5-6.7 3.7-1.8 8.3-1.5 4.7 0.3 9.5 1.7 4.8 1.5 8.9 3.2l-1.6 14.6c-0.6-0.3-3.3 2.4-3.3 2.4 0 0-2.6-4.8-4.4-5.4q-3.4-1.1-5.4-1-2 0.2-2.5 2.3-0.6 2.1 1.7 4.3 2.2 2.2 4.8 3.3 5.8 2.5 10 1.9 4.2-0.5 8.1-1.7l8.8-2.8q4.6-1.4 9.6-2 4.9-0.7 10.6 0.1 5.6 0.8 12.4 3.8 6.5 2.8 11.3 7 4.8 4.3 7.1 9.3 2.3 5.1 1.6 10.4l12.2 5.3z"/><path class="c" d="m522.5 934.9l-12.1-5.2q-3.1 8.7-11.9 10-8.7 1.2-24.4-5.2l1-14.6q6.4 2.7 10.5 3.7 4.1 0.9 6.1 0.3 2.1-0.6 2.7-2.5 0.7-2.5-1.4-4.2-2.1-1.8-4.7-2.9-6.1-2.6-10.8-2.4-4.8 0.2-10.1 2l-9.1 3q-4.1 1.2-8.1 1.8-4.1 0.6-9 0-5-0.7-11.3-3.5-11.5-5-16.7-12.6-5.2-7.7-3.8-16.1l-11.5-5 1.2-4.5 11.4 5q1.8-4.9 5.6-6.7 3.7-1.9 8.3-1.6 4.6 0.3 9.5 1.8 4.8 1.5 8.8 3.1l-1.5 14.6q-4.4-1.8-7.8-2.9-3.3-1.2-5.3-1-2.1 0.1-2.5 2.2-0.6 2.2 1.6 4.4 2.3 2.1 4.8 3.2 5.9 2.6 10 2 4.2-0.6 8.1-1.8l8.9-2.8q4.6-1.3 9.5-2 5-0.6 10.6 0.2 5.7 0.8 12.5 3.7 6.4 2.8 11.2 7.1 4.8 4.2 7.1 9.3 2.4 5 1.7 10.4l12.1 5.2z"/><path class="c" d="m747.8 132.7c31.5 45.7 34.2 103.5 6 129.2-28.1 25.7-76.5 9.5-108-36.2-31.5-45.7-34.2-103.5-6.1-129.2 28.2-25.7 76.6-9.5 108.1 36.2z"/><path class="k" d="m753.8 261.9c-28.1 25.7-76.5 9.5-108-36.2-31.5-45.7-34.2-103.5-6.1-129.2 25-22.7 65.8-12.6 96.6 21.7q6 6.6 11.5 14.5 3.1 4.5 5.8 9.2c25.9 43.9 26.6 96 0.2 120z"/><path class="d" d="m753.6 141.9l-21.5 6.4-19-22.4 23.2-7.7q6 6.6 11.5 14.5 3.1 4.5 5.8 9.2z"/><path class="h" d="m690.4 87.8l-45.5 11.7"/><path class="h" d="m703.5 93.6l-43.4 10.7"/><path class="h" d="m719.6 103.6l-45.5 11.7"/><path class="h" d="m773 208.4l-45.4 11.7"/><path class="h" d="m771.9 225.8l-45.4 11.8"/><path class="h" d="m766.8 243.1l-45.5 11.7"/><path class="h" d="m736 118.6l-44.3 11.8"/><path class="h" d="m753.6 142.4l-45.5 11.7"/><path class="h" d="m747.8 132.7c31.5 45.7 34.2 103.5 6 129.2-28.1 25.7-76.5 9.5-108-36.2-31.5-45.7-34.2-103.5-6.1-129.2 28.2-25.7 76.6-9.5 108.1 36.2z"/><path class="c" d="m737.5 137.9c31.5 45.6 34.3 103.5 6.1 129.1-28.2 25.7-76.5 9.5-108-36.2-31.6-45.6-34.3-103.5-6.1-129.2 28.2-25.6 76.5-9.4 108 36.3z"/><path class="c" d="m729.8 144.9c26.8 38.8 29.1 87.8 5.2 109.6-23.9 21.8-65 8.1-91.7-30.7-26.8-38.8-29.1-87.8-5.2-109.6 23.9-21.8 65-8.1 91.7 30.7z"/><path class="f" d="m729.8 144.9c26.8 38.8 29.1 87.8 5.2 109.6-23.9 21.8-65 8.1-91.7-30.7-26.8-38.8-29.1-87.8-5.2-109.6 23.9-21.8 65-8.1 91.7 30.7z"/><path class="h" d="m729.8 144.9c26.8 38.8 29.1 87.8 5.2 109.6-23.9 21.8-65 8.1-91.7-30.7-26.8-38.8-29.1-87.8-5.2-109.6 23.9-21.8 65-8.1 91.7 30.7z"/><path class="g" d="m647.4 221c-26.7-38.8-29-87.9-5.1-109.7q1.1-1 2.4-1.9-3.5 2-6.6 4.8c-23.9 21.8-21.6 70.8 5.2 109.6 25.8 37.5 65.1 51.6 89.3 32.7-24.3 14.4-60.7-0.1-85.2-35.5z"/><path class="g" d="m723.1 239.8l-4.1 0.3-3.3-11.1q-7.3 5.8-15.3 2.2-8-3.5-17.9-17.1l4.4-11.5 4.1-0.3q4 5.6 6.9 8.5 2.9 3 5 3.6 2.1 0.6 3.6-0.8 1.8-1.7 1-4.3-0.9-2.5-2.4-4.8-3.8-5.4-7.9-7.7-4.2-2.3-9.5-3.6l-9.3-2.3q-4.1-1.1-7.8-2.7-3.8-1.6-7.6-4.7-3.8-3.2-7.7-8.8-7.1-10.3-7.5-19.5-0.4-9.2 5.3-15.5l-7.8-13.1 4.1-0.3 7 10.2q4.1-3.2 8.2-2.8 4.1 0.4 7.8 3.1 3.8 2.6 7.1 6.4 3.3 3.8 5.8 7.3l-8.9 11.5c-0.4-0.5-4.1 0.3-4.1 0.3 0 0 0.3-5.4-0.9-6.9q-2.3-2.7-4.1-3.6-1.7-0.9-3.2 0.6-1.7 1.5-0.9 4.5 0.8 3 2.3 5.3 3.6 5.2 7.5 6.9 3.8 1.7 7.7 2.7l8.9 2.3q4.6 1.3 9.1 3.3 4.6 2.1 8.9 5.7 4.4 3.6 8.5 9.7 4 5.7 5.8 11.8 1.8 6.2 1.1 11.6-0.6 5.5-4 9.6l7.5 10.9z"/><path class="c" d="m719 240.1l-7.4-10.7q-7.3 5.7-15.3 2.2-8-3.6-17.9-17.2l8.5-11.8q4 5.6 6.9 8.6 2.9 2.9 5 3.5 2.1 0.6 3.6-0.8 1.8-1.7 1-4.2-0.9-2.6-2.4-4.9-3.8-5.4-7.9-7.7-4.2-2.3-9.5-3.6l-9.3-2.3q-4.1-1.1-7.8-2.7-3.8-1.6-7.6-4.7-3.8-3.2-7.7-8.8-7.1-10.3-7.5-19.5-0.4-9.1 5.3-15.5l-7.1-10.3 3.4-3.1 7 10.2q4.1-3.2 8.2-2.8 4.1 0.4 7.8 3.1 3.8 2.7 7.1 6.4 3.3 3.8 5.8 7.3l-8.9 11.5q-2.8-3.8-5-6.5-2.3-2.7-4.1-3.7-1.7-0.9-3.2 0.6-1.7 1.5-0.9 4.5 0.8 3 2.3 5.3 3.6 5.2 7.5 6.9 3.8 1.7 7.7 2.8l8.9 2.2q4.6 1.3 9.1 3.4 4.6 2 8.9 5.6 4.4 3.7 8.5 9.7 4 5.8 5.8 11.9 1.8 6.1 1.1 11.5-0.6 5.5-4 9.6l7.5 10.9z"/><path class="c" d="m811.1 638.9c38.3 49.2 45.1 113.9 15.1 144.6-30 30.6-85.3 15.5-123.6-33.7-38.3-49.3-45.1-114-15.1-144.6 29.9-30.7 85.3-15.6 123.6 33.7z"/><path class="k" d="m826.2 783.5c-30 30.6-85.3 15.5-123.6-33.7-38.3-49.2-45.1-114-15.1-144.6 26.5-27.2 72.9-18.4 109.8 18.1 4.8 4.7 9.4 9.9 13.8 15.6q3.8 4.8 7.1 9.9c31.9 47.6 36 106.1 8 134.7z"/><path class="d" d="m818.2 648.8l-23.7 8.6-22.7-24 25.5-10.1c4.8 4.7 9.4 9.9 13.8 15.6q3.8 4.8 7.1 9.9z"/><path class="h" d="m743.7 592.1l-50.2 16.1"/><path class="h" d="m758.8 597.8l-48 14.8"/><path class="h" d="m777.5 608l-50.2 16.1"/><path class="h" d="m844.2 722.1l-50.2 16.2"/><path class="h" d="m844.2 741.8l-50.3 16.1"/><path class="h" d="m839.5 761.5l-50.2 16.1"/><path class="h" d="m797 623.8l-49 16.1"/><path class="h" d="m818.2 649.3l-50.2 16.1"/><path class="h" d="m811.1 638.9c38.3 49.2 45.1 113.9 15.1 144.6-30 30.6-85.3 15.5-123.6-33.7-38.3-49.3-45.1-114-15.1-144.6 29.9-30.7 85.3-15.6 123.6 33.7z"/><path class="c" d="m799.9 645.3c38.3 49.2 45.1 114 15.1 144.6-29.9 30.6-85.3 15.6-123.6-33.7-38.3-49.2-45-114-15.1-144.6 30-30.6 85.3-15.6 123.6 33.7z"/><path class="c" d="m791.7 653.7c32.5 41.8 38.3 96.7 12.8 122.7-25.4 26-72.4 13.2-104.9-28.6-32.5-41.8-38.2-96.7-12.8-122.7 25.4-26 72.4-13.2 104.9 28.6z"/><path class="f" d="m791.7 653.7c32.5 41.8 38.3 96.7 12.8 122.7-25.4 26-72.4 13.2-104.9-28.6-32.5-41.8-38.2-96.7-12.8-122.7 25.4-26 72.4-13.2 104.9 28.6z"/><path class="h" d="m791.7 653.7c32.5 41.8 38.3 96.7 12.8 122.7-25.4 26-72.4 13.2-104.9-28.6-32.5-41.8-38.2-96.7-12.8-122.7 25.4-26 72.4-13.2 104.9 28.6z"/><path class="g" d="m704.1 744.4c-32.5-41.8-38.2-96.7-12.8-122.7q1.2-1.3 2.5-2.4c-2.5 1.6-4.8 3.6-7 5.8-25.4 26-19.7 80.9 12.8 122.7 31.5 40.5 76.5 53.8 102.4 31-26.4 17.7-68.2 3.8-97.9-34.4z"/><path class="g" d="m790.2 760.6l-4.5 0.6-4.4-12.2q-7.8 6.9-17.1 3.5-9.2-3.4-21.1-18.1l4.2-13.2 4.6-0.6q4.8 6 8.2 9.2 3.5 3.1 5.9 3.6 2.3 0.5 3.9-1.1 2-2 0.9-4.8-1.1-2.9-3.1-5.3-4.5-5.9-9.3-8.2-4.8-2.3-10.9-3.4l-10.6-2q-4.6-0.9-8.9-2.5-4.3-1.5-8.8-4.8-4.5-3.3-9.2-9.4-8.6-11.1-9.7-21.4-1-10.2 4.9-17.7l-9.6-14.2 4.6-0.6 8.5 11q4.4-3.9 9.1-3.7 4.6 0.2 9 3 4.3 2.7 8.3 6.7 4 4.1 7 7.8l-9.3 13.5c-0.4-0.6-4.5 0.6-4.5 0.6 0 0-0.1-6.1-1.5-7.6q-2.7-2.9-4.8-3.8-2-1-3.6 0.8-1.8 1.8-0.7 5.2 1.1 3.3 3 5.7 4.3 5.6 8.7 7.3 4.5 1.7 8.9 2.6l10.2 1.9q5.2 1.2 10.4 3.2 5.2 2 10.3 5.8 5.1 3.8 10.2 10.3 4.9 6.2 7.3 13 2.4 6.7 2 12.9-0.4 6.2-3.9 11l9.1 11.7z"/><path class="c" d="m785.7 761.2l-9-11.5q-7.8 6.9-17.1 3.4-9.2-3.4-21.1-18.1l8.8-13.8q4.8 6 8.2 9.2 3.5 3.1 5.9 3.6 2.4 0.6 3.9-1 2-2.1 0.9-4.9-1.1-2.8-3-5.3-4.6-5.8-9.4-8.2-4.8-2.3-10.9-3.4l-10.6-2q-4.5-0.9-8.9-2.5-4.3-1.5-8.8-4.8-4.5-3.3-9.2-9.4-8.6-11.1-9.6-21.3-1.1-10.3 4.8-17.8l-8.6-11.1 3.6-3.7 8.6 11q4.4-3.9 9-3.7 4.6 0.2 9 3 4.4 2.7 8.3 6.8 4 4 7 7.8l-9.2 13.4q-3.4-4.1-6.1-7-2.7-2.9-4.8-3.8-2-0.9-3.6 0.8-1.7 1.9-0.7 5.2 1.1 3.3 3 5.8 4.3 5.6 8.8 7.2 4.4 1.7 8.8 2.6l10.2 2q5.2 1.1 10.4 3.1 5.2 2.1 10.4 5.8 5.1 3.8 10.2 10.4 4.8 6.2 7.2 12.9 2.4 6.7 2 12.9-0.4 6.2-3.9 11l9.1 11.7z"/><path class="g" d="m368 218.8c0.1 55.5-30.4 104.8-68.1 110-37.8 5.2-68.5-35.5-68.6-91-0.2-55.5 30.3-104.7 68.1-109.9 37.7-5.3 68.4 35.5 68.6 90.9z"/><path class="c" d="m356.6 217.3c0.2 55.5-30.3 104.7-68.1 109.9-37.7 5.3-68.4-35.5-68.6-91-0.1-55.4 30.4-104.7 68.1-109.9 37.8-5.2 68.5 35.5 68.6 91z"/><path class="c" d="m346.3 218.7c0.1 47.1-25.8 88.9-57.8 93.3-32 4.5-58.1-30.1-58.2-77.2-0.1-47.1 25.7-88.8 57.8-93.3 32-4.4 58.1 30.1 58.2 77.2z"/><path class="i" d="m296.9 141.3c-38.2 53.3-29.3 127.1-18.9 170.8-8.1-1.1-15.7-4.7-22.3-10.5-15.3-13.2-25.4-37.6-25.4-66.8-0.1-39 17.6-74.4 41.9-87.9 5.1-2.8 10.4-4.6 15.9-5.4 3-0.4 5.9-0.5 8.8-0.2z"/><path class="i" d="m272.2 146.9c-30.6 48.9-25.4 112.4-16.5 154.7-15.3-13.2-25.4-37.6-25.4-66.8-0.1-39 17.6-74.4 41.9-87.9z"/><path class="h" d="m346.3 218.7c0.1 47.1-25.8 88.9-57.8 93.3-32 4.5-58.1-30.1-58.2-77.2-0.1-47.1 25.7-88.8 57.8-93.3 32-4.4 58.1 30.1 58.2 77.2z"/><path class="g" d="m235.3 234.8c-0.1-47 25.8-88.8 57.8-93.3q1.5-0.2 3.1-0.3-4-0.3-8.1 0.3c-32.1 4.4-57.9 46.2-57.8 93.3 0.1 45.6 24.5 79.4 55.1 77.5-28.2-1.9-50-34.4-50.1-77.5z"/><path class="g" d="m287 293.1l-3.5-2 3.5-11q-9.2 0.6-13.8-6.8-4.7-7.5-5.1-24.3l10.2-7 3.5 2.1q0.1 6.8 0.8 10.9 0.8 4.1 2.2 5.8 1.4 1.6 3.3 1.4 2.5-0.4 3.3-3 0.7-2.6 0.7-5.3 0-6.6-2.1-10.9-2.1-4.2-5.8-8.3l-6.4-7.2q-2.7-3.1-4.9-6.6-2.2-3.4-3.5-8.2-1.4-4.7-1.4-11.6 0-12.5 4.8-20.3 4.9-7.7 13.1-9.8l1-15.2 3.6 2.1v12.3q5.2-0.3 8.3 2.4 3.2 2.6 4.8 6.9 1.5 4.4 2.1 9.4 0.6 4.9 0.7 9.3l-13.9 4.4c0-0.7-3.5-2.1-3.5-2.1 0 0 3.3-4.3 3.1-6.1q-0.3-3.6-1.2-5.3-1-1.8-3-1.4-2.3 0.3-3.4 3.2-1 2.9-1 5.7 0 6.3 2.2 9.9 2.2 3.6 4.8 6.6l6.1 7q3.1 3.6 5.6 7.9 2.6 4.2 4.1 9.7 1.6 5.4 1.6 12.8 0 7-1.9 13-2 6.1-5.7 10.2-3.6 4.1-8.7 5.6v13.2z"/><path class="c" d="m283.5 291.1l-0.1-13.1q-9.2 0.7-13.8-6.8-4.6-7.4-5-24.2l13.7-5q0.1 6.9 0.8 11 0.7 4.1 2.1 5.7 1.4 1.7 3.4 1.4 2.5-0.3 3.2-2.9 0.8-2.6 0.8-5.4 0-6.6-2.2-10.8-2.1-4.3-5.8-8.4l-6.3-7.1q-2.7-3.2-4.9-6.7-2.2-3.4-3.6-8.1-1.3-4.8-1.4-11.6 0-12.5 4.9-20.3 4.8-7.8 13.1-9.9l-0.1-12.5 4.6-0.6v12.4q5.2-0.4 8.4 2.3 3.1 2.7 4.7 7 1.6 4.3 2.2 9.3 0.6 5 0.7 9.3l-13.9 4.4q-0.1-4.7-0.4-8.2-0.4-3.5-1.3-5.3-0.9-1.8-3-1.4-2.2 0.4-3.3 3.3-1.1 2.9-1.1 5.6 0 6.4 2.2 9.9 2.2 3.6 4.9 6.7l6.1 6.9q3 3.7 5.6 7.9 2.5 4.3 4.1 9.7 1.5 5.5 1.5 12.8 0 7-1.9 13.1-2 6-5.6 10.2-3.7 4.1-8.8 5.6v13.1z"/><path class="g" d="m575.2 844.4c-41-17.2-67.7-55-59.8-84.4 7.9-29.5 47.4-39.4 88.4-22.2 40.9 17.1 67.6 54.9 59.7 84.4-7.9 29.4-47.4 39.4-88.3 22.2z"/><path class="c" d="m579.8 836.5c-40.9-17.2-67.7-55-59.8-84.4 7.9-29.4 47.5-39.4 88.4-22.2 41 17.2 67.7 55 59.8 84.4-7.9 29.4-47.4 39.4-88.4 22.2z"/><path class="c" d="m582 828.4c-34.7-14.5-57.4-46.6-50.7-71.6 6.7-25 40.2-33.4 75-18.8 34.7 14.5 57.4 46.6 50.7 71.6-6.7 25-40.3 33.4-75 18.8z"/><path class="i" d="m654.4 816.2c-27.4-44.8-84.5-61.2-119.9-67.1 3.3-5.7 8.4-10.2 14.6-13.2 14.5-7.2 35.7-7 57.2 2.1 28.7 12 49.3 36.1 51.7 58.2 0.5 4.6 0.2 9.1-1 13.4q-0.9 3.5-2.6 6.6z"/><path class="i" d="m658 796.2c-26.5-37.8-74.9-53.7-108.9-60.3 14.5-7.2 35.7-7 57.2 2.1 28.7 12 49.3 36.1 51.7 58.2z"/><path class="h" d="m582 828.4c-34.7-14.5-57.4-46.6-50.7-71.6 6.7-25 40.2-33.4 75-18.8 34.7 14.5 57.4 46.6 50.7 71.6-6.7 25-40.3 33.4-75 18.8z"/><path class="g" d="m604.7 741.7c34.7 14.5 57.4 46.6 50.7 71.6q-0.3 1.2-0.7 2.3 1.4-2.8 2.3-6c6.7-25-16-57.1-50.7-71.6-33.6-14.1-66.2-6.7-74.3 16.4 10.2-20.2 40.9-26.1 72.7-12.7z"/><path class="g" d="m545.6 761.6l2.7-2 6.9 6.1q2.5-7 9.4-8.1 6.9-1.1 19.4 3.8l2 9.7-2.6 1.9q-5.1-2-8.3-2.8-3.3-0.7-4.9-0.2-1.7 0.5-2.1 2.1-0.5 1.9 1.2 3.3 1.6 1.3 3.7 2.2 4.8 2 8.6 1.8 3.8-0.2 8-1.7l7.2-2.4q3.2-1 6.4-1.6 3.3-0.5 7.2-0.1 3.9 0.5 8.9 2.6 9.3 3.9 13.5 9.9 4.2 6 3.2 12.7l10.8 5.5-2.6 2-9.1-3.9q-1.4 4-4.3 5.5-3 1.4-6.6 1.3-3.7-0.2-7.6-1.3-3.8-1.2-7-2.4l1-11.6c0.5 0.2 2.6-2 2.6-2 0 0 2.2 3.8 3.6 4.2q2.7 0.9 4.3 0.7 1.6-0.1 1.9-1.8 0.5-1.7-1.3-3.4-1.8-1.7-3.9-2.5-4.6-2-7.9-1.5-3.4 0.5-6.4 1.5l-7 2.3q-3.7 1.1-7.6 1.7-3.9 0.6-8.4 0-4.5-0.6-9.9-2.8-5.2-2.2-9-5.5-3.9-3.4-5.8-7.3-1.9-4-1.4-8.2l-9.7-4.1z"/><path class="c" d="m548.3 759.6l9.6 4.1q2.4-7 9.3-8.1 6.9-1.1 19.4 3.8l-0.6 11.7q-5.1-2.1-8.3-2.8-3.3-0.8-4.9-0.3-1.7 0.5-2.1 2.1-0.5 1.9 1.2 3.3 1.7 1.4 3.7 2.2 4.9 2.1 8.6 1.8 3.8-0.2 8-1.6l7.2-2.5q3.2-1 6.5-1.6 3.2-0.5 7.1 0 3.9 0.4 9 2.6 9.2 3.8 13.4 9.8 4.2 6 3.2 12.8l9.2 3.8-1 3.6-9.1-3.8q-1.4 3.9-4.3 5.4-2.9 1.5-6.6 1.3-3.7-0.2-7.5-1.3-3.9-1.1-7.1-2.4l1-11.6q3.6 1.4 6.2 2.2 2.7 0.9 4.3 0.8 1.6-0.2 2-1.8 0.4-1.8-1.4-3.5-1.8-1.7-3.8-2.5-4.7-2-8-1.5-3.3 0.5-6.4 1.5l-7 2.3q-3.6 1.2-7.6 1.7-3.9 0.6-8.4 0-4.5-0.5-9.9-2.8-5.2-2.2-9-5.5-3.9-3.3-5.8-7.3-1.9-4-1.4-8.2l-9.7-4.1z"/><path class="c" d="m336.6 574.4c-40.6 31.3-98.9 23.8-130.2-16.8-31.3-40.6-23.8-98.9 16.8-130.2 40.6-31.3 98.9-23.8 130.2 16.8 31.3 40.6 23.8 98.9-16.8 130.2z"/><path class="k" d="m336.6 574.4c-40.6 31.3-98.9 23.8-130.2-16.8-31.3-40.6-23.8-98.9 16.8-130.2 40.6-31.3 98.9-23.8 130.2 16.8 31.3 40.6 23.8 98.9-16.8 130.2z"/><path class="h" d="m258.9 410.5v14"/><path class="h" d="m246.2 415v19.9"/><path class="h" d="m233.2 421.4v25.2"/><path class="h" d="m214.2 434.9v19.9"/><path class="h" d="m332.5 425v19.8"/><path class="h" d="m344.7 435.1v11.5"/><path class="d" d="m290.2 408.7c-7-0.8-14.1-0.8-21.1 0v184.4c7 0.8 14.1 0.8 21.1 0.1z"/><path class="h" d="m336.6 574.4c-40.6 31.3-98.9 23.8-130.2-16.8-31.3-40.6-23.8-98.9 16.8-130.2 40.6-31.3 98.9-23.8 130.2 16.8 31.3 40.6 23.8 98.9-16.8 130.2z"/><path class="c" d="m336.6 583.5c-40.6 31.3-98.9 23.8-130.2-16.8-31.3-40.6-23.8-98.9 16.8-130.2 40.6-31.3 98.9-23.8 130.2 16.8 31.3 40.6 23.8 98.9-16.8 130.2z"/><path class="c" d="m328 572.4c-34.4 26.6-83.9 20.2-110.5-14.3-26.5-34.4-20.2-83.9 14.3-110.5 34.4-26.6 83.9-20.2 110.5 14.3 26.6 34.4 20.2 83.9-14.3 110.5z"/><path class="f" d="m328 572.4c-34.4 26.6-83.9 20.2-110.5-14.3-26.5-34.4-20.2-83.9 14.3-110.5 34.4-26.6 83.9-20.2 110.5 14.3 26.6 34.4 20.2 83.9-14.3 110.5z"/><path class="h" d="m328 572.4c-34.4 26.6-83.9 20.2-110.5-14.3-26.5-34.4-20.2-83.9 14.3-110.5 34.4-26.6 83.9-20.2 110.5 14.3 26.6 34.4 20.2 83.9-14.3 110.5z"/><path class="g" d="m328 567.6c-34.4 26.6-83.9 20.2-110.5-14.2-10.6-13.8-15.9-29.9-16.3-46-0.6 17.7 4.7 35.6 16.3 50.7 26.6 34.5 76.1 40.9 110.5 14.3 20.8-16 31.3-40.3 30.7-64.6-0.8 22.7-11.3 44.9-30.7 59.8z"/><path class="g" d="m230.3 540.6l9.6-7.4q-7.2-10.2-5.1-19.8 2.1-9.5 14.1-19.4l13.6 13c0 1.6 0 5.3 0 5.3 0 0-6.2 0.3-7.4 1.8q-2.5 3.2-2.7 5.7-0.2 2.5 1.4 4.7 2.1 2.7 4.6 2.1 2.4-0.6 4.5-2.2 4.8-3.7 6.3-8.5 1.6-4.8 1.9-11.4l0.6-11.4q0.4-4.9 1.3-9.3 1-4.5 3.5-8.7 2.5-4.3 7.5-8.1 9.1-7.1 18.4-5.8 9.2 1.2 16.7 9.5l9.2-7 3.7 4.9v5.2l-9 1.8q4 5.8 4.4 10.9 0.3 5.1-1.7 9.3-2.1 4.3-5.3 7.8-3.2 3.5-6.3 6l-13.3-8.2v-5.3q3.3-2.8 5.7-5.1 2.3-2.4 2.9-4.4 0.7-2.1-1.1-4.3-1.9-2.4-4.8-2-2.9 0.4-5 2-4.6 3.6-5.6 8.1-1 4.6-1.4 9.3l-0.6 10.9q-0.5 5.6-1.7 10.9-1.3 5.4-4.1 10.2-2.9 4.8-8.3 9-5.1 3.9-11 5.1-5.9 1.1-11.5-0.8-5.7-1.9-10.5-6.9l-13.5 7.7z"/><path class="c" d="m230.3 545.8l9.6-7.3q-7.2-10.3-5.1-19.8 2.1-9.5 14.1-19.4l13.6 13q-4.9 3.9-7.4 7.1-2.5 3.1-2.7 5.7-0.2 2.5 1.4 4.6 2.1 2.7 4.6 2.1 2.4-0.6 4.5-2.1 4.8-3.7 6.3-8.6 1.6-4.8 1.9-11.3l0.6-11.4q0.4-4.9 1.3-9.4 1-4.5 3.5-8.7 2.5-4.2 7.5-8.1 9.1-7 18.4-5.8 9.2 1.2 16.7 9.6l9.2-7.1 3.7 4.9-9 7q4 5.8 4.4 10.9 0.3 5.2-1.7 9.4-2.1 4.2-5.3 7.7-3.2 3.5-6.3 6.1l-13.3-13.5q3.3-2.8 5.7-5.2 2.3-2.3 2.9-4.4 0.7-2.1-1.1-4.2-1.9-2.4-4.8-2-2.9 0.4-5 1.9-4.6 3.6-5.6 8.2-1 4.5-1.4 9.2l-0.6 11q-0.5 5.5-1.7 10.9-1.3 5.3-4.1 10.2-2.9 4.8-8.3 8.9-5.1 4-11 5.1-5.9 1.2-11.5-0.7-5.7-1.9-10.5-7l-9.7 7.5z"/><path class="c" d="m497.9 711.3c-53.6-6.1-92.1-54.6-86-108.2 6.2-53.7 54.7-92.1 108.3-86 53.6 6.2 92.1 54.7 86 108.3-6.2 53.6-54.7 92.1-108.3 85.9z"/><path class="k" d="m497.9 711.3c-53.6-6.1-92.1-54.6-86-108.2 6.2-53.7 54.7-92.1 108.3-86 53.6 6.2 92.1 54.7 86 108.3-6.2 53.6-54.7 92.1-108.3 85.9z"/><path class="h" d="m559.5 530.6l-10.2 10.6"/><path class="h" d="m546.7 524.7l-14.6 15"/><path class="h" d="m532.2 519.9l-18.6 19.1"/><path class="h" d="m507.9 516.2l-14.6 15"/><path class="h" d="m604.5 595.5l-14.6 15"/><path class="h" d="m606.3 612.1l-8.5 8.7"/><path class="d" d="m584.5 552.2c-4.7-5.7-10-10.9-15.9-15.5l-135.4 139.2c4.7 5.7 10 10.9 15.9 15.5z"/><path class="h" d="m497.9 711.3c-53.6-6.1-92.1-54.6-86-108.2 6.2-53.7 54.7-92.1 108.3-86 53.6 6.2 92.1 54.7 86 108.3-6.2 53.6-54.7 92.1-108.3 85.9z"/><path class="c" d="m491.2 718.2c-53.6-6.2-92.1-54.6-85.9-108.3 6.1-53.6 54.6-92.1 108.3-85.9 53.6 6.2 92 54.6 85.9 108.3-6.2 53.6-54.7 92.1-108.3 85.9z"/><path class="c" d="m492.9 703.5c-45.5-5.2-78.2-46.4-72.9-91.9 5.2-45.5 46.3-78.1 91.9-72.9 45.5 5.2 78.1 46.4 72.9 91.9-5.3 45.5-46.4 78.1-91.9 72.9z"/><path class="f" d="m492.9 703.5c-45.5-5.2-78.2-46.4-72.9-91.9 5.2-45.5 46.3-78.1 91.9-72.9 45.5 5.2 78.1 46.4 72.9 91.9-5.3 45.5-46.4 78.1-91.9 72.9z"/><path class="h" d="m492.9 703.5c-45.5-5.2-78.2-46.4-72.9-91.9 5.2-45.5 46.3-78.1 91.9-72.9 45.5 5.2 78.1 46.4 72.9 91.9-5.3 45.5-46.4 78.1-91.9 72.9z"/><path class="g" d="m496.4 699.9c-45.5-5.2-78.2-46.4-72.9-91.9 2.1-18.1 9.9-34.2 21.4-46.7-13.5 12.9-22.6 30.4-24.9 50.3-5.3 45.5 27.4 86.7 72.9 91.9 27.4 3.1 53.1-7.4 70.5-26.2-17.2 16.5-41.4 25.6-67 22.6z"/><path class="g" d="m442.5 607.8l12.6 1.4q2.1-13 10.7-18.6 8.6-5.7 24.9-4.3l0.7 19.8c-1.1 1.2-3.8 3.9-3.8 3.9 0 0-4.9-4.3-7-4q-4.2 0.5-6.2 2.3-2 1.8-2.3 4.6-0.4 3.5 1.9 4.9 2.3 1.3 4.9 1.6 6.4 0.8 11.1-1.7 4.8-2.5 9.8-7.2l8.8-8.1q3.9-3.4 7.9-6.1 3.9-2.7 8.9-4.1 5-1.4 11.6-0.6 12.1 1.4 18.2 9.1 6.1 7.7 5.6 19.5l12.1 1.4-0.8 6.5-3.8 4-8.1-5.4q-1.3 7.4-4.8 11.5-3.5 4.1-8.1 5.8-4.6 1.7-9.6 2-5 0.2-9.2-0.1l-4-16 3.8-4q4.6 0.4 8.1 0.4 3.5-0.1 5.5-1.2 2-1.1 2.2-4.1 0.3-3.2-2.1-5-2.5-1.8-5.2-2.1-6.1-0.7-10.2 1.9-4.1 2.7-7.9 6l-8.5 7.8q-4.4 3.9-9.3 7-4.8 3.1-10.6 4.6-5.7 1.6-12.8 0.8-6.7-0.8-12-4.3-5.3-3.4-8.2-9-2.9-5.6-2.8-13l-15.8-4z"/><path class="c" d="m438.7 611.7l12.5 1.5q2.2-13 10.8-18.7 8.5-5.6 24.9-4.3l0.7 19.8q-6.7-0.6-10.8-0.1-4.2 0.6-6.2 2.4-2.1 1.7-2.4 4.5-0.4 3.6 1.9 4.9 2.3 1.4 5 1.7 6.3 0.7 11.1-1.7 4.7-2.5 9.7-7.2l8.8-8.2q3.9-3.4 7.9-6.1 4-2.7 9-4 5-1.4 11.6-0.6 12.1 1.3 18.1 9.1 6.1 7.7 5.6 19.5l12.1 1.4-0.7 6.5-12-1.4q-1.2 7.3-4.7 11.4-3.5 4.1-8.2 5.9-4.6 1.7-9.6 1.9-5 0.3-9.2 0l-0.1-20q4.6 0.4 8 0.3 3.5 0 5.5-1.2 2-1.1 2.2-4 0.4-3.2-2.1-5-2.5-1.9-5.2-2.2-6.1-0.7-10.2 2-4.1 2.7-7.8 6l-8.5 7.8q-4.5 3.9-9.3 7-4.9 3.1-10.6 4.6-5.7 1.5-12.9 0.7-6.7-0.8-12-4.2-5.2-3.4-8.1-9-2.9-5.7-2.9-13l-12.7-1.5z"/><path class="g" d="m609.1 351.4c0 54.4-44.1 98.6-98.5 98.6-54.5 0-98.6-44.2-98.6-98.6 0-54.4 44.1-98.6 98.6-98.6 54.4 0 98.5 44.2 98.5 98.6z"/><path class="c" d="m609.1 343.8c0 54.4-44.1 98.6-98.5 98.6-54.5 0-98.6-44.2-98.6-98.6 0-54.5 44.1-98.6 98.6-98.6 54.4 0 98.5 44.1 98.5 98.6z"/><path class="h" d="m609.1 343.8c0 54.4-44.1 98.6-98.5 98.6-54.5 0-98.6-44.2-98.6-98.6 0-54.5 44.1-98.6 98.6-98.6 54.4 0 98.5 44.1 98.5 98.6z"/><path class="c" d="m594.2 343.8c0 46.2-37.4 83.6-83.6 83.6-46.2 0-83.7-37.4-83.7-83.6 0-46.2 37.5-83.7 83.7-83.7 46.2 0 83.6 37.5 83.6 83.7z"/><path class="i" d="m594.2 343.8c0 0.7 0 1.5 0 2.2-72.1-21.8-131.2-10.8-167.2 1.6q-0.1-1.9-0.1-3.8c0-11 2.1-21.5 6-31.1 12.4-30.8 42.5-52.6 77.7-52.6 34.6 0 64.3 21.1 77 51.1 4.3 10 6.6 21 6.6 32.6z"/><path class="j" d="m587.6 311.2c-65.3-18.3-119.5-9.7-154.7 1.5 12.4-30.8 42.5-52.6 77.7-52.6 34.6 0 64.3 21.1 77 51.1z"/><path class="g" d="m510.6 264.7c45.4 0 82.4 36.2 83.6 81.4q0-1.2 0-2.3c0-46.2-37.4-83.7-83.6-83.7-46.2 0-83.7 37.5-83.7 83.7q0 1.1 0.1 2.3c1.2-45.2 38.1-81.4 83.6-81.4z"/><path class="g" d="m509.4 412l-0.8-3.3 0.8-9.5q-13.3-0.6-20-8.6-6.6-7.9-7.1-24.4l18.9-6.3 0.8 3.3q0.1 6.7 1.2 10.9 1 4.1 3 5.9 2 1.8 4.9 1.8 3.6 0 4.7-2.5 1.1-2.4 1.1-5.1 0-6.5-3.1-10.9-3-4.5-8.3-9l-9.2-7.9q-3.8-3.5-7-7.1-3.2-3.7-5.1-8.6-1.9-4.8-1.9-11.5 0-12.3 7-19.2 7-7 18.9-7.9l5.8-15.6 0.8 3.3v12.1q7.5 0.4 12 3.5 4.5 3 6.8 7.5 2.2 4.4 3.1 9.4 0.8 5 1 9.2l-20.1 2.5c0-0.5-0.8-2.9-0.8-3.3-0.1-2.5 0.5-2.9 0.3-4.9q-0.5-3.5-1.8-5.3-1.4-1.9-4.4-1.8-3.2 0-4.7 2.7-1.6 2.8-1.6 5.5 0 6.2 3.2 10 3.1 3.8 6.9 7.1l8.8 7.7q4.3 4 8 8.5 3.7 4.5 5.9 10 2.2 5.6 2.2 12.8 0 6.9-2.8 12.5-2.9 5.7-8.2 9.3-5.3 3.5-12.6 4.3v12.9z"/><path class="c" d="m508.6 408.7v-12.8q-13.3-0.6-20-8.6-6.6-7.9-7.2-24.4l19.8-3q0.1 6.7 1.2 10.8 1 4.2 3 6 2 1.8 4.8 1.8 3.6 0 4.7-2.5 1.1-2.4 1.1-5.1 0-6.5-3-10.9-3-4.5-8.3-9l-9.2-7.9q-3.9-3.5-7-7.2-3.2-3.6-5.1-8.5-2-4.8-2-11.5 0-12.3 7.1-19.3 7-6.9 18.9-7.8v-12.3h6.6v12.1q7.5 0.4 12 3.5 4.5 3 6.8 7.4 2.2 4.5 3.1 9.5 0.8 4.9 0.9 9.2l-20 2.5q-0.1-4.7-0.6-8.2-0.4-3.5-1.8-5.3-1.3-1.9-4.3-1.8-3.2 0-4.8 2.7-1.5 2.7-1.5 5.5 0 6.1 3.1 10 3.2 3.8 6.9 7.1l8.8 7.6q4.4 4 8.1 8.6 3.7 4.5 5.9 10 2.2 5.6 2.2 12.8 0 6.9-2.9 12.5-2.8 5.7-8.1 9.3-5.3 3.5-12.7 4.3v12.9z"/><path class="c" d="m691.6 746.8l-242.7 77.7-8.6-27 242.6-77.7z"/><path class="d" d="m671.8 753.2l-203.1 65-8.6-27 203-65.1z"/><path class="c" d="m504.6 806.7l-35.9 11.5-8.6-27 35.9-11.5z"/><path class="e" d="m504.6 806.7l-35.9 11.5-8.6-27 35.9-11.5z"/><path class="c" d="m641.6 762.8l-142.7 45.7-8.6-27 142.6-45.7z"/><path class="f" d="m550 792.2l-51.1 16.3-8.6-27 51-16.3z"/><path class="c" d="m597 777.1l-53.5 17.2-8.7-27.1 53.6-17.1z"/><path class="c" d="m774.4 291.2l13 177.5-19.8 1.4-13-177.4z"/><path class="d" d="m775.4 305.7l10.9 148.5-19.7 1.4-10.9-148.4z"/><path class="c" d="m784.4 427.9l1.9 26.3-19.7 1.4-2-26.2z"/><path class="e" d="m784.4 427.9l1.9 26.3-19.7 1.4-2-26.2z"/><path class="c" d="m777 327.8l7.7 104.3-19.7 1.5-7.7-104.4z"/><path class="f" d="m782 394.8l2.7 37.3-19.7 1.5-2.8-37.4z"/><path class="c" d="m779.4 360.4l2.9 39.1-19.7 1.5-2.9-39.2z"/></svg>